<?xml version="1.0" encoding="utf-8"?>
<!-- Generator: Adobe Illustrator 20.0.0, SVG Export Plug-In . SVG Version: 6.00 Build 0)  -->
<svg version="1.1" id="Layer_1" xmlns="http://www.w3.org/2000/svg" xmlns:xlink="http://www.w3.org/1999/xlink" x="0px" y="0px"
	 viewBox="0 0 435.5 55.2" style="enable-background:new 0 0 435.5 55.2;" xml:space="preserve">
<style type="text/css">
	.st0{fill-rule:evenodd;clip-rule:evenodd;fill:#187FAD;}
	.st1{fill-rule:evenodd;clip-rule:evenodd;fill:#195A7F;}
	.st2{fill:#195A7F;}
	.st3{fill-rule:evenodd;clip-rule:evenodd;fill:#0071BB;}
	.st4{fill-rule:evenodd;clip-rule:evenodd;fill:#F0B24A;}
	.st5{fill:#004A97;}
	.st6{fill:#FFFFFF;}
</style>
<g>
	<g>
		<path class="st0" d="M105.8,16.8c-2.9,0-5.2,0.8-7,1.1l-0.5,4.5c0.9-0.4,3.7-1.2,6-1.3c2.3-0.1,3.7,0.4,3.2,2.4
			c-6.9,0-11.5,1.4-12.5,5.9c-1.4,7.6,7,7.4,10.4,4.1l-0.4,1.8h6.1l2.7-12.2C114.8,18,110.1,16.7,105.8,16.8z M106.2,29.3
			c-0.3,1.6-1.6,2.3-3.2,2.4c-1.4,0.1-2.6-1.1-1.7-2.5c0.7-1.2,2.6-1.5,3.8-1.5c0.5,0,1,0,1.5,0C106.4,28.2,106.3,28.7,106.2,29.3z"
			/>
		<polygon class="st0" points="118.9,12 113.9,35.3 120.1,35.3 125.2,12 118.9,12 118.9,12 		"/>
		<path class="st0" d="M90.3,12.1H78.9l-5.1,23.3h6.6l1.7-7.7h4.7c4.6,0,8.5-2.8,9.5-7.6C97.5,14.5,93.6,12.1,90.3,12.1z M90.1,20
			c-0.4,1.8-2.2,3.2-3.9,3.2h-3.1l1.4-6.4h3.3C89.5,16.8,90.5,18.2,90.1,20z"/>
		<path class="st1" d="M46,16.8c-2.9,0-5.2,0.8-6.9,1.1l-0.5,4.5c0.8-0.4,3.6-1.2,5.9-1.3c2.3-0.1,3.6,0.4,3.2,2.4
			c-6.8,0-11.4,1.4-12.3,5.9c-1.3,7.6,6.9,7.4,10.2,4.1l-0.4,1.8h6.1l2.6-12.2C55,18,50.3,16.7,46,16.8z M46.5,29.3
			c-0.3,1.6-1.7,2.3-3.2,2.4c-1.3,0.1-2.5-1.1-1.6-2.5c0.7-1.2,2.6-1.5,3.6-1.5c0.5,0,1,0,1.6,0C46.7,28.2,46.6,28.7,46.5,29.3z"/>
		<polygon class="st1" points="56.6,17.1 62.7,17.1 63.7,28 69.7,17.1 76,17.1 61.4,43.1 54.6,43.1 59.1,35.5 56.6,17.1 56.6,17.1 
					"/>
		<path class="st1" d="M30.8,12.1H19.3l-5.1,23.3H21l1.6-7.7h4.8c4.6,0,8.4-2.8,9.5-7.6C38,14.5,34.1,12.1,30.8,12.1z M30.6,20
			c-0.4,1.8-2.1,3.2-3.8,3.2h-3.2l1.4-6.4h3.3C29.9,16.8,31,18.2,30.6,20z"/>
		<path class="st2" d="M126.6,15v-2.8h-1v-0.4h2.5v0.4h-1V15H126.6z"/>
		<path class="st2" d="M128.4,15v-3.1h0.6l0.7,2.2c0.1,0.2,0.1,0.4,0.1,0.5c0-0.1,0.1-0.3,0.2-0.5l0.7-2.2h0.6V15H131v-2.6l-0.9,2.6
			h-0.4l-0.9-2.7V15H128.4z"/>
	</g>
	<g>
		<g>
			<g>
				<path class="st3" d="M375.1,14.6l7.2-0.1L374,40.3l-7.3,0L375.1,14.6z"/>
				<path class="st3" d="M379.7,33.8l-2,4.8c0,0,5.7,3.4,12.7,1.9c0,0,9.2-0.9,8.6-9.7c0,0,1-2.6-7.4-7.6c0,0-2.9-1.5,0.3-4.4
					c0,0,3.3-2.3,8.7,1.4l2.5-4c0,0-8.8-5.2-16.8,0c0,0-6.4,5.4-1.7,10.5c0,0,1.4,1.8,3,2.4c0,0,5.5,2.9,3.7,5.1
					c0,0-0.7,3.4-7.5,1.6C383.7,35.9,380.4,35.1,379.7,33.8z"/>
				<path class="st3" d="M418.9,14.7l-6.9-0.1l-15.3,25.8l5.9,0.1l3.4-5.8l7.7,0.1l0.5,5.7l7.1,0.1L418.9,14.7z M407.7,31.7
					l5.4-10.1l0.4,10.1L407.7,31.7z"/>
			</g>
			<polyline class="st3" points="372.9,14.3 361.8,40.4 354.8,40.4 347.1,15.2 355.4,15.1 358.8,31.7 365.5,14.6 372.9,14.4 			"/>
		</g>
		<path class="st4" d="M341.2,14.4h14.7l3,15c0,0-10.5-14.9-17.8-14.9"/>
	</g>
	<g>
		<path class="st5" d="M226.9,49.5c12,0.1,23-9.8,23-21.8c0-13.1-11-22.2-23-22.2h-10.4c-12.2,0-22.2,9.1-22.2,22.2
			c0,12,10,21.9,22.2,21.8H226.9z"/>
		<path class="st6" d="M221.1,39.4V15.5c4.8,1.8,8.2,6.5,8.2,11.9C229.3,32.9,225.9,37.5,221.1,39.4 M203.8,27.4
			c0-5.4,3.4-10.1,8.2-11.9v23.8C207.2,37.5,203.8,32.9,203.8,27.4 M216.6,7.3c-11.1,0-20.2,9-20.2,20.2c0,11.1,9,20.2,20.2,20.2
			c11.1,0,20.2-9,20.2-20.2C236.7,16.3,227.7,7.3,216.6,7.3"/>
	</g>
</g>
</svg>
