<?xml version="1.0" encoding="utf-8"?>
<!-- Generator: Adobe Illustrator 20.0.0, SVG Export Plug-In . SVG Version: 6.00 Build 0)  -->
<svg version="1.1" id="Layer_1" xmlns="http://www.w3.org/2000/svg" xmlns:xlink="http://www.w3.org/1999/xlink" x="0px" y="0px"
	 viewBox="0 0 335.6 193.3" style="enable-background:new 0 0 335.6 193.3;" xml:space="preserve">
<style type="text/css">
	.st0{fill:#E61939;}
</style>
<g>
	<g>
		<g>
			<g>
				<path class="st0" d="M28.6,157c-3.4,0-6.2-2.8-6.2-6.2c0-3.4,2.8-6.2,6.2-6.2s6.2,2.8,6.2,6.2C34.8,154.2,32,157,28.6,157z
					 M28.6,146.5c-2.3,0-4.2,1.9-4.2,4.2c0,2.3,1.9,4.2,4.2,4.2s4.2-1.9,4.2-4.2C32.8,148.4,30.9,146.5,28.6,146.5z"/>
			</g>
			<g>
				<path class="st0" d="M14.3,171.6c-0.6,0-1.2-0.1-1.7-0.2c-1-0.3-4.2-1.8-3.3-7.7c0.1-0.9,0.4-2.4,0.6-4.2
					c0.5-3.7,1.3-8.8,2-12.8l2,0.3c-0.7,4-1.4,9.1-2,12.8c-0.3,1.8-0.5,3.3-0.6,4.2c-0.5,2.9,0.2,4.9,1.9,5.4c1.4,0.4,4.1,0,5.4-2.2
					c0.9-1.4,4-6.6,5.2-9.1l1.8,0.9c-1.3,2.6-4.4,7.9-5.3,9.3C18.8,170.7,16.3,171.6,14.3,171.6z"/>
			</g>
			<g>
				<rect x="29.9" y="134.1" class="st0" width="19.6" height="2"/>
			</g>
			<g>
				<rect x="33.8" y="149.8" class="st0" width="10.5" height="2"/>
			</g>
			<g>
				<path class="st0" d="M25.6,127.2h-2c0-0.9-0.6-1.6-1.2-1.6H19c-0.7,0-1.2,0.7-1.2,1.6h-2c0-2,1.5-3.6,3.2-3.6h3.4
					C24.2,123.6,25.6,125.2,25.6,127.2z"/>
			</g>
			<g>
				<rect x="19.7" y="136.4" class="st0" width="2" height="7.8"/>
			</g>
			<g>
				<rect x="16.8" y="139.3" class="st0" width="7.8" height="2"/>
			</g>
			<g>
				<path class="st0" d="M20.7,151.8c-6.3,0-11.5-5.1-11.5-11.5s5.1-11.5,11.5-11.5c6.3,0,11.5,5.1,11.5,11.5c0,2.4-0.7,4.6-2.1,6.6
					l-1.6-1.1c1.1-1.6,1.7-3.5,1.7-5.4c0-5.2-4.2-9.5-9.5-9.5c-5.2,0-9.5,4.2-9.5,9.5s4.2,9.5,9.5,9.5c0.9,0,1.8-0.1,2.7-0.4
					l0.6,1.9C22.9,151.6,21.8,151.8,20.7,151.8z"/>
			</g>
			<g>
				<path class="st0" d="M50.8,157c-3.4,0-6.2-2.8-6.2-6.2c0-3.4,2.8-6.2,6.2-6.2c3.4,0,6.2,2.8,6.2,6.2
					C57.1,154.2,54.3,157,50.8,157z M50.8,146.5c-2.3,0-4.2,1.9-4.2,4.2c0,2.3,1.9,4.2,4.2,4.2s4.2-1.9,4.2-4.2
					C55.1,148.4,53.2,146.5,50.8,146.5z"/>
			</g>
			<g>
				<path class="st0" d="M65.1,171.6c-2,0-4.5-0.9-6-3.3c-0.9-1.3-4-6.7-5.3-9.2l1.8-0.9c1.2,2.4,4.2,7.7,5.2,9
					c1.4,2.3,4,2.7,5.4,2.2c1.7-0.5,2.4-2.5,1.9-5.4c-0.1-0.9-0.4-2.4-0.6-4.2c-0.5-3.7-1.3-8.8-2-12.8l2-0.3c0.7,4,1.4,9.1,2,12.8
					c0.3,1.8,0.5,3.3,0.6,4.2c0.9,5.9-2.3,7.3-3.3,7.7C66.3,171.5,65.8,171.6,65.1,171.6z"/>
			</g>
			<g>
				<path class="st0" d="M63.6,127.2h-2c0-0.9-0.6-1.6-1.2-1.6H57c-0.7,0-1.2,0.7-1.2,1.6h-2c0-2,1.5-3.6,3.2-3.6h3.4
					C62.2,123.6,63.6,125.2,63.6,127.2z"/>
			</g>
			<g>
				<rect x="57.7" y="141.6" class="st0" width="2" height="2.6"/>
			</g>
			<g>
				<rect x="57.7" y="136.4" class="st0" width="2" height="2.6"/>
			</g>
			<g>
				<rect x="54.7" y="139.3" class="st0" width="2.6" height="2"/>
			</g>
			<g>
				<rect x="60" y="139.3" class="st0" width="2.6" height="2"/>
			</g>
			<g>
				<path class="st0" d="M58.7,151.8c-1.1,0-2.2-0.2-3.3-0.5l0.6-1.9c0.9,0.3,1.8,0.4,2.7,0.4c5.2,0,9.5-4.2,9.5-9.5
					s-4.2-9.5-9.5-9.5s-9.5,4.2-9.5,9.5c0,2,0.6,3.8,1.7,5.4l-1.6,1.1c-1.3-1.9-2.1-4.2-2.1-6.6c0-6.3,5.1-11.5,11.5-11.5
					s11.5,5.1,11.5,11.5S65,151.8,58.7,151.8z"/>
			</g>
		</g>
	</g>
	<g>
		<g>
			<g>
				<path class="st0" d="M13.9,36.3l-2-0.4c1.2-6.6,4.9-12,10.7-15.7c8.9-5.7,20.4-5.1,27.9-2c2.7,1.1,6.4,3.2,8.3,6.8L57,25.9
					c-1.2-2.4-3.8-4.4-7.3-5.8c-7-2.9-17.7-3.4-26,1.9C18.4,25.3,15,30.3,13.9,36.3z"/>
			</g>
			<g>
				<path class="st0" d="M18.2,71.2l-1.9-0.5c0-0.1,1.4-6,1.4-9.6c0-5.3-1.6-8.7-3.3-12.2c-0.7-1.5-1.5-3.1-2.1-4.8l1.9-0.7
					c0.6,1.6,1.2,3.1,2,4.6c1.7,3.6,3.5,7.3,3.5,13.1C19.6,64.9,18.3,71,18.2,71.2z"/>
			</g>
			<g>
				<path class="st0" d="M44,44.8H10.6v-9.8H44V44.8z M12.6,42.8H42v-5.8H12.6V42.8z"/>
			</g>
			<g>
				<path class="st0" d="M55.7,74.3c-2,0-13.8-3.3-15.8-6.1l-4.5-6.8l1.7-1.1l4.4,6.7c1.3,1.8,12.1,5.2,14.2,5.2
					c1.1,0,2.1-0.5,2.7-1.3c0.6-0.8,0.7-1.9,0.4-3l-0.1-0.3c-0.4-1.2-0.6-2-0.4-2.6l0.1-0.5l0.5-0.2c0.8-0.2,1.8-1.3,1.9-1.6l2,0
					c0,1.2-1.3,2.6-2.5,3.2c0.1,0.3,0.2,0.8,0.3,1.1l0.1,0.3c0.5,1.7,0.3,3.4-0.7,4.8C59.1,73.5,57.5,74.3,55.7,74.3z"/>
			</g>
			<g>
				<rect x="41.2" y="71.1" transform="matrix(0.2822 -0.9594 0.9594 0.2822 -37.8563 93.6808)" class="st0" width="5" height="2"/>
			</g>
			<g>
				<path class="st0" d="M53.4,61.1v-2c2.8,0,6.7-0.6,8.1-1c-0.1-0.1-0.1-0.2-0.2-0.4c-0.4-0.7-1-1.7-1.2-3l2-0.4
					c0.2,0.9,0.6,1.7,1,2.4c0.4,0.8,0.9,1.6,0.5,2.4C62.6,60.6,54.5,61.1,53.4,61.1z M62,57.9C62,57.9,62,57.9,62,57.9
					S62,57.9,62,57.9z"/>
			</g>
			<g>
				<path class="st0" d="M63.8,55.2h-6.5c-4,0-15.4-3.8-15.9-4l-0.2-0.1c-2.7-1.4-4.1-3.9-4.4-7.3l2-0.1c0.2,2.7,1.3,4.6,3.3,5.7
					c1,0.3,11.6,3.8,15.2,3.8h6.5c2.1,0,3.1-0.9,3.1-2.6V29.1c0-1.8-1-2.6-3.1-2.6h-6.5c-3.6,0-14.2,3.5-15.2,3.8
					c-2,1.1-3.1,3-3.3,5.7l-2-0.1c0.3-3.5,1.7-5.9,4.4-7.3l0.2-0.1c0.5-0.2,11.9-4,15.9-4h6.5c3.2,0,5.1,1.7,5.1,4.6v21.6
					C68.8,53.5,66.9,55.2,63.8,55.2z"/>
			</g>
			<g>
				<rect x="42" y="33.3" class="st0" width="2" height="13.1"/>
			</g>
		</g>
	</g>
	<g>
		<g>
			<g>
				<path class="st0" d="M289.4,146.3l-1.4-1.5l3.2-3c0.1-0.1,0.2-0.4,0.2-0.6s-0.1-0.5-0.3-0.6l-2-2c-0.4-0.4-0.9-0.4-1.3,0
					l-3.8,3.8l-1.4-1.4l3.8-3.8c1.1-1.1,3-1.1,4.1,0l2,2c0.5,0.5,0.8,1.3,0.8,2.1s-0.3,1.5-0.8,2.1L289.4,146.3z"/>
			</g>
			<g>
				<path class="st0" d="M294.3,151.1l-1.4-1.4l3.5-3.5c0.2-0.2,0.3-0.4,0.3-0.6s-0.1-0.5-0.3-0.6l-2-2c-0.4-0.4-0.9-0.4-1.3,0
					l-3.7,3.4l-1.4-1.5l3.6-3.3c1.1-1.1,2.9-1.1,4.1,0l2,2c0.5,0.5,0.8,1.3,0.8,2.1s-0.3,1.5-0.8,2.1L294.3,151.1z"/>
			</g>
			<g>
				<path class="st0" d="M293.9,159.5c-0.7,0-1.4-0.3-1.9-0.8l-2-2c-0.6-0.7-0.9-1.5-0.8-2.4l2,0.2c0,0.3,0.1,0.6,0.3,0.8l2,2
					c0.3,0.3,1.1,0.2,1.5-0.3l5.2-5.2c0.3-0.3,0.4-0.6,0.5-0.9c0-0.1,0-0.4-0.2-0.6l-2-2c-0.2-0.2-0.5-0.2-0.6-0.2
					c-0.3,0-0.7,0.2-0.9,0.5l-1.4-1.4c0.6-0.6,1.4-1,2.2-1c0.8-0.1,1.7,0.2,2.2,0.8l2,2c0.6,0.6,0.8,1.4,0.8,2.2
					c-0.1,0.8-0.4,1.6-1,2.2l-5.2,5.2C295.6,159.2,294.7,159.5,293.9,159.5z"/>
			</g>
			<g>
				<path class="st0" d="M298.6,164.3c-0.7,0-1.5-0.3-2-0.8l-2-2c-0.6-0.6-0.8-1.3-0.8-2.1c0-0.8,0.4-1.5,1-2.1l4.3-4.3
					c0.6-0.6,1.3-0.9,2.1-0.9c0.7,0,1.4,0.3,2,0.9l2,2c1.2,1.2,1.2,2.9,0,4.1l-4.3,4.3C300.3,163.9,299.4,164.3,298.6,164.3z
					 M301.1,154.1c-0.2,0-0.4,0.1-0.6,0.3l-4.3,4.3c-0.2,0.2-0.4,0.5-0.4,0.8c0,0.1,0,0.4,0.2,0.6h0l2,2c0.3,0.3,1,0.3,1.4-0.1
					l4.3-4.3c0.5-0.5,0.3-1,0-1.3l-2-2C301.5,154.2,301.3,154.1,301.1,154.1C301.1,154.1,301.1,154.1,301.1,154.1z"/>
			</g>
			<g>
				<path class="st0" d="M282.3,175.5l-1.6-1.2l1.8-2.5c0.9-0.9,2.5-1.2,4.2-1.6c1.7-0.4,3.6-0.8,4.5-1.7c0.4-0.4,5.8-5.4,6-5.6
					l1.4,1.5c-1.5,1.4-5.6,5.2-5.9,5.5c-1.4,1.4-3.6,1.8-5.5,2.3c-1.3,0.3-2.6,0.6-3.1,1L282.3,175.5z"/>
			</g>
			<g>
				<path class="st0" d="M283.6,165.1l-1.4-1.4c3.3-3.3,1.8-11.6-0.9-14.3l1.4-1.4l4.3,4.3c1.4,1.2,3.2,1,4.1,0.8
					c1.2-0.3,2-0.8,2.5-1.3l-8.3-8.3c-0.7-0.7-1.7-1-2.7-0.8c-4.4,1-6.5,2-7,2.5c-1.8,1.8-2.7,3.7-2.7,5.9c0,0.9,0,1.7,0,2.5
					c0.1,3.4,0.1,5-0.7,5.8l-3.1,3l-1.4-1.4l3.1-3c0.2-0.4,0.2-2.7,0.2-4.4c0-0.8,0-1.7,0-2.6c0-2.8,1.1-5.2,3.3-7.4c1-1,3.7-2,8-3
					c1.7-0.4,3.4,0.1,4.6,1.3l9.4,9.4l-0.3,0.6c-0.5,1.3-2.3,2.5-4.3,2.9c-2.3,0.5-4.4,0.1-6-1.3l0,0
					C286.5,157.7,286.3,162.5,283.6,165.1z"/>
			</g>
			<g>
				<path class="st0" d="M314.5,177.7c-0.2,0-0.3,0-0.5-0.1c-0.3-0.2-0.6-0.4-1-0.5c-3.3-1.8-7-3.9-12.4-2.2l-0.6-1.9
					c5.1-1.7,9.1-0.3,12.1,1.3c-2.2-5-2.5-9.4-1-13.1c1.5-3.7,5-6.6,10.2-8.6c-4.6-1.9-7.7-4.6-9.2-8.2c-1.7-4.1-1.2-9.2,1.4-15
					c-5.8,2.6-10.9,3.1-15,1.4c-3.6-1.5-6.3-4.6-8.2-9.2c-2,5.2-4.9,8.7-8.6,10.2c-3.7,1.5-8,1.2-13.1-1c1.3,2.5,2.4,5.2,2,9l-2-0.2
					c0.4-4-1-6.6-2.7-9.5c-0.2-0.4-0.4-0.7-0.6-1.1c-0.2-0.4-0.1-0.9,0.2-1.2s0.8-0.4,1.2-0.2c5.7,3.1,10.5,3.9,14.2,2.4
					c3.8-1.6,6.6-5.5,8.4-11.7c0.1-0.4,0.5-0.7,1-0.7s0.8,0.3,1,0.7c1.6,5.6,4.3,9.2,8,10.7c4.1,1.7,9.7,0.8,16-2.7
					c0.4-0.2,0.9-0.1,1.2,0.2c0.3,0.3,0.4,0.8,0.2,1.2c-3.5,6.3-4.4,11.9-2.7,16c1.5,3.7,5.1,6.4,10.7,8c0.4,0.1,0.7,0.5,0.7,1
					c0,0.4-0.3,0.8-0.7,1c-6.2,1.8-10.2,4.6-11.7,8.4c-1.6,3.8-0.8,8.5,2.4,14.2c0.2,0.4,0.1,0.9-0.2,1.2
					C315,177.6,314.8,177.7,314.5,177.7z"/>
			</g>
		</g>
	</g>
	<g>
		<g>
			<g>
				<rect x="146.9" y="34" class="st0" width="2" height="3.9"/>
			</g>
			<g>
				<rect x="146.9" y="24.8" class="st0" width="2" height="3.9"/>
			</g>
			<g>
				<rect x="146.9" y="15.6" class="st0" width="2" height="3.9"/>
			</g>
			<g>
				<rect x="180.9" y="34" class="st0" width="2" height="3.9"/>
			</g>
			<g>
				<rect x="180.9" y="24.8" class="st0" width="2" height="3.9"/>
			</g>
			<g>
				<rect x="180.9" y="15.6" class="st0" width="2" height="3.9"/>
			</g>
			<g>
				<path class="st0" d="M164.9,58.5c-1.1,0-3.6-0.8-3.6-8.1c0-3.6,0.8-9.6,3.6-9.6s3.6,6,3.6,9.6C168.6,57.7,166,58.5,164.9,58.5z
					 M164.9,42.8c-0.5,0.4-1.6,2.9-1.6,7.6c0,4.5,1.1,6.1,1.6,6.1s1.6-1.5,1.6-6.1C166.6,45.7,165.4,43.2,164.9,42.8z"/>
			</g>
			<g>
				<path class="st0" d="M182,68.2l-0.8-0.9c-1.2-1.4-3.6-4.8-4.1-7.5h-6.2c-0.4,1-1,2.7-1.5,3.4l-0.3,0.5h-8.4l-0.3-0.5
					c-0.5-0.7-1.1-2.4-1.5-3.4h-6.2c-0.5,2.7-2.9,6.1-4.1,7.5l-0.8,0.9l-0.7-1c-3.2-4.2-4.1-7.1-4.1-12.4c0-10.5,4.1-13.7,4.3-13.9
					l0.8-0.6l0.6,0.8c0.2,0.2,3.7,4.7,4.1,10.1h3.3V51c0-4.1,1.7-11.9,3.2-17.4c3.4-12.4,4.9-12.4,5.6-12.4s2.2,0,5.6,12.4
					c1.5,5.4,3.2,13.3,3.2,17.4v0.3h3.3c0.4-5.4,3.9-9.9,4.1-10.1l0.6-0.8l0.8,0.6c0.2,0.1,4.3,3.4,4.3,13.9c0,5.3-1,8.2-4.1,12.4
					L182,68.2z M169.5,57.8h9.6v1c0,1.6,1.5,4.3,2.9,6.2c2.3-3.3,3-5.7,3-10.1c0-6.7-1.8-10.1-2.8-11.5c-1.1,1.6-3,5.1-3,8.9v1h-7.2
					V51c0-6.8-4.9-24.2-6.8-27.4c-2,3.2-6.8,20.7-6.8,27.4v2.3l-1,0h-6.2v-1c0-3.8-2-7.2-3-8.9c-1,1.4-2.8,4.8-2.8,11.5
					c0,4.5,0.7,6.8,3,10.1c1.4-1.9,2.9-4.6,2.9-6.2v-1h9.6l0.2,0.7c0.3,0.9,0.8,2.4,1.2,3.2h6.1c0.4-0.8,0.9-2.3,1.2-3.2L169.5,57.8
					z"/>
			</g>
			<g>
				<polygon class="st0" points="164.9,78.3 160.1,67.1 161.9,66.3 164.9,73.3 167.9,66.3 169.8,67.1 				"/>
			</g>
		</g>
	</g>
	<g>
		<g>
			<g>
				<path class="st0" d="M312.4,65.2c-0.2,0-0.4-0.1-0.6-0.2L300,55.5c-0.4-0.3-0.5-1-0.2-1.4c0.3-0.4,1-0.5,1.4-0.2l9.7,7.8
					l-0.9-5.4c0-0.3,0-0.6,0.3-0.8c0.2-0.2,0.5-0.3,0.8-0.3l7.1,0.6l-5.2-6.6c-0.2-0.2-0.3-0.5-0.2-0.8s0.2-0.5,0.5-0.7l9.9-5.4
					l-10-4.4c-0.3-0.1-0.5-0.3-0.6-0.6s0-0.6,0.1-0.8l5-7.6l-10.4,2.8c-0.3,0.1-0.7,0-0.9-0.2c-0.3-0.2-0.4-0.5-0.3-0.9l0.7-6
					l-7.1,6.3c-0.4,0.4-1,0.3-1.4-0.1c-0.4-0.4-0.3-1,0.1-1.4l9-8c0.3-0.3,0.8-0.3,1.1-0.1c0.4,0.2,0.6,0.6,0.5,1l-0.9,7.2l11.5-3.1
					c0.4-0.1,0.8,0,1.1,0.4s0.3,0.8,0,1.1l-5.8,8.8l10.8,4.7c0.4,0.2,0.6,0.5,0.6,0.9c0,0.4-0.2,0.7-0.5,0.9l-10.6,5.8l5.9,7.4
					c0.2,0.3,0.3,0.7,0.1,1.1c-0.2,0.4-0.6,0.6-1,0.5l-8.1-0.6l1.1,6.8c0.1,0.4-0.1,0.8-0.5,1C312.8,65.1,312.6,65.2,312.4,65.2z"/>
			</g>
			<g>
				<path class="st0" d="M278.4,70.4h-10.5c-1.7,0-3.6-0.7-3.6-2.3c0-1.5,1.4-5,3.4-9.7c0.8-2,1.9-4.4,1.9-4.9
					c0-1.2-0.3-2.7-1.7-2.7c-2.5,0-3.6-1.9-3.6-3.6c0-1.8,2.3-2,3.7-2.1c0.1,0,0.1,0,0.2,0v-0.4c-0.1-0.2-0.3-0.5-0.5-0.8
					c-0.5-0.9-0.9-1.4-0.9-2c0-1.1,0.8-2.3,2.3-2.3l0.6,0c0,0,0.1,0,0.1,0c0.3-0.4,0.6-0.7,0.9-0.9v-3h4.2l1.3,2.6H297v-2.6h4
					l2.6,2.6h1.9v7.5c0,2-1.6,3.6-3.6,3.6h-3.1c-0.4,1.2-1.5,2.6-3.4,2.6h-10.5c-0.9,0-1.5,1.1-1.6,1.8l0,0.2
					c-1.3,3.8-3.7,11.1-3.9,11.7c0,0.1,0.2,0.7,0.3,1c0.4,1,0.8,2.1,0.2,2.9C279.7,70,279.2,70.4,278.4,70.4z M266.3,68
					c0.2,0.2,0.8,0.4,1.6,0.4h10.2c-0.1-0.3-0.2-0.7-0.3-0.9c-0.3-0.8-0.6-1.6-0.4-2.3c0.2-0.8,3.6-10.7,3.9-11.7
					c0.3-1.4,1.5-3.4,3.6-3.4h10.5c1.2,0,1.6-1.6,1.6-1.7v-1l1,0h3.9c0.9,0,1.6-0.7,1.6-1.6v-5.5h-0.7l-2.6-2.6H299v2.6h-23.9
					l-1.3-2.6h-1v2.4l-0.8,0.2c0,0-0.4,0.1-0.6,0.7l-0.3,0.6l-0.7,0c-0.1,0-0.4,0-0.7,0l-0.6,0c-0.1,0-0.3,0-0.3,0.2
					c0.1,0.2,0.4,0.7,0.6,1c0.5,0.8,0.7,1.2,0.7,1.7v1.3c0,1.1-1.2,1.2-2.1,1.2c-0.4,0-1.4,0.1-1.8,0.3c0,0.6,0.3,1.4,1.6,1.4
					c2.3,0,3.7,1.8,3.7,4.8c0,0.7-0.5,2-2.1,5.6C268.3,62.2,266.4,66.7,266.3,68z"/>
			</g>
			<g>
				<path class="st0" d="M286.3,59.9H281v-2h5.2c0.7,0,2.7-0.7,5.6-7.3l1.8,0.8C291.2,57.2,288.7,59.9,286.3,59.9z"/>
			</g>
		</g>
	</g>
	<g>
		<g>
			<g>
				
					<rect x="145.7" y="144.7" transform="matrix(0.7071 -0.7071 0.7071 0.7071 -54.1446 160.6542)" class="st0" width="42.4" height="2"/>
			</g>
			<g>
				<path class="st0" d="M161.6,170.5l-7.2-7.2l26.8-26.8c6-6,9.6-13,10.2-15.3c-2.3,0.6-9.3,4.1-15.3,10.2l-26.8,26.8l-7.2-7.2
					l1.4-1.4l5.8,5.8l25.4-25.4c4.3-4.3,8.8-7.1,11.1-8.4c6-3.3,7-2.4,7.3-2.1c0.3,0.3,1.3,1.3-2.1,7.3c-1.3,2.3-4.1,6.8-8.4,11.1
					l-25.4,25.4l5.8,5.8L161.6,170.5z"/>
			</g>
			<g>
				<path class="st0" d="M156.7,175.8l-1.4-1.4l0.9-0.9c0.5-0.5,0.6-0.8,0.6-0.9c0-0.2-0.1-0.4-0.4-0.7l-3.9-3.9
					c-0.6-0.6-1.9-0.6-2.5,0l-3.6,3.6c-0.1,1.1-0.6,2.1-1.7,3c-0.8,0.7-2.5,1.4-5.3-1.4c-2.8-2.8-2-4.5-1.4-5.3c0.9-1,1.9-1.6,3-1.7
					l3.6-3.6c0.6-0.6,0.6-1.9,0-2.5l-3.9-3.9c-0.3-0.3-0.5-0.4-0.7-0.4c-0.1,0-0.4,0.1-0.9,0.6l-0.9,0.9l-1.4-1.4l0.9-0.9
					c0.7-0.7,1.4-1.1,2.1-1.2c0.8-0.1,1.6,0.2,2.3,1l3.9,3.9c1.4,1.4,1.4,3.9,0,5.3l-4.2,4.2l-0.4,0c-0.4,0-1,0.1-1.8,1
					c-0.6,0.7,0.8,2.1,1.3,2.6c0.4,0.4,1.9,1.8,2.6,1.3c0.9-0.8,1-1.4,1-1.8l0-0.4l4.2-4.2c1.4-1.4,3.9-1.4,5.3,0l3.9,3.9
					c0.7,0.7,1,1.5,1,2.3c-0.1,0.7-0.4,1.4-1.2,2.1L156.7,175.8z"/>
			</g>
			<g>
				
					<rect x="173.8" y="152.8" transform="matrix(0.7071 -0.7071 0.7071 0.7071 -60.1195 169.6642)" class="st0" width="2" height="9.3"/>
			</g>
			<g>
				
					<rect x="152.2" y="128.5" transform="matrix(0.7071 -0.7071 0.7071 0.7071 -51.2002 148.1406)" class="st0" width="2" height="14.7"/>
			</g>
			<g>
				<polygon class="st0" points="168.3,170.5 166.9,169.1 172.7,163.3 166.8,157.5 168.3,156 175.5,163.3 				"/>
			</g>
			<g>
				<path class="st0" d="M155.1,145.7l-7.7-7.7c-4.3-4.3-7.1-8.8-8.4-11.1c-3.3-6-2.4-7-2.1-7.3c0.3-0.3,1.3-1.3,7.3,2.1
					c2.3,1.3,6.8,4.1,11.1,8.4l7.7,7.7l-1.4,1.4l-7.7-7.7c-6-6-13-9.6-15.3-10.2c0.6,2.3,4.1,9.3,10.2,15.3l7.7,7.7L155.1,145.7z"/>
			</g>
			<g>
				<polygon class="st0" points="180.6,158.2 173.4,150.9 174.8,149.5 180.6,155.3 186.5,149.5 187.9,150.9 				"/>
			</g>
			<g>
				<path class="st0" d="M173.2,175.8l-0.9-0.9c-0.7-0.7-1.1-1.4-1.2-2.1c-0.1-0.8,0.2-1.6,1-2.3l3.9-3.9c1.4-1.4,3.9-1.4,5.3,0
					l4.2,4.2l0,0.4c0,0.4,0.1,1,1,1.8c0.7,0.6,2.1-0.8,2.6-1.3c0.4-0.4,1.8-1.9,1.3-2.6c-0.8-0.9-1.4-1-1.8-1l-0.4,0l-4.2-4.2
					c-1.4-1.4-1.4-3.9,0-5.3l3.9-3.9c0.7-0.7,1.5-1,2.3-1c0.7,0.1,1.4,0.4,2.1,1.2l0.9,0.9l-1.4,1.4l-0.9-0.9
					c-0.5-0.5-0.8-0.6-0.9-0.6c-0.2,0-0.4,0.1-0.7,0.4l-3.9,3.9c-0.6,0.6-0.6,1.9,0,2.5l3.6,3.6c1.1,0.1,2.1,0.6,3,1.7
					c0.7,0.8,1.4,2.5-1.4,5.3c-2.8,2.8-4.5,2-5.3,1.4c-1-0.9-1.6-1.9-1.7-3l-3.6-3.6c-0.6-0.6-1.9-0.6-2.5,0l-3.9,3.9
					c-0.3,0.3-0.4,0.5-0.4,0.7c0,0.1,0.1,0.4,0.6,0.9l0.9,0.9L173.2,175.8z"/>
			</g>
		</g>
	</g>
</g>
</svg>
