<?xml version="1.0" encoding="utf-8"?>
<!-- Generator: Adobe Illustrator 20.0.0, SVG Export Plug-In . SVG Version: 6.00 Build 0)  -->
<svg version="1.1" id="Layer_1" xmlns="http://www.w3.org/2000/svg" xmlns:xlink="http://www.w3.org/1999/xlink" x="0px" y="0px"
	 viewBox="0 0 182.1 211.8" style="enable-background:new 0 0 182.1 211.8;" xml:space="preserve">
<style type="text/css">
	.st0{fill:#E6E6E6;}
	.st1{fill:#FFF5ED;}
	.st2{clip-path:url(#SVGID_2_);}
	.st3{fill:url(#SVGID_3_);}
	.st4{fill:#094052;}
	.st5{fill:url(#SVGID_4_);}
	.st6{fill:#EDEDED;}
	.st7{fill:#0A4A5E;}
	.st8{fill:#404040;}
	.st9{fill:#5E5E5E;}
	.st10{fill:#FFBB00;}
	.st11{fill:#781D1D;}
	.st12{fill:url(#SVGID_5_);}
	.st13{fill:url(#SVGID_6_);}
	.st14{fill:url(#SVGID_7_);}
	.st15{fill:#EBAB76;}
	.st16{fill:#C4844E;}
	.st17{fill:#F5BA89;}
	.st18{fill:url(#SVGID_8_);}
	.st19{fill:#4F3926;}
	.st20{fill:#36261A;}
	.st21{fill:#D98750;}
	.st22{fill:#574130;}
	.st23{fill:#1F150C;}
	.st24{fill:#362516;}
	.st25{fill:#FFFFFF;}
	.st26{fill:#E0A472;}
	.st27{fill:#EBEBEB;}
	.st28{fill:#C2C2C2;}
	.st29{fill:url(#SVGID_9_);}
	.st30{fill:url(#SVGID_10_);}
	.st31{fill:url(#SVGID_11_);}
	.st32{fill:#A6A6A6;}
	.st33{fill:url(#SVGID_12_);}
	.st34{fill:url(#SVGID_13_);}
	.st35{fill:#B06203;}
	.st36{fill:url(#SVGID_14_);}
	.st37{fill:#854A02;}
	.st38{fill:#754102;}
	.st39{fill:#D17404;}
	.st40{fill:#ADADAD;}
	.st41{fill:url(#SVGID_15_);}
	.st42{fill:#BAB100;}
	.st43{fill:#948D00;}
	.st44{fill:#C9C9C9;}
	.st45{fill:url(#SVGID_16_);}
	.st46{fill:url(#SVGID_17_);}
	.st47{fill:#D4945F;}
	.st48{fill:#E0A574;}
	.st49{fill:url(#SVGID_18_);}
	.st50{fill:#241A11;}
	.st51{fill:#453220;}
	.st52{fill:url(#SVGID_19_);}
	.st53{fill:#FFFFFE;}
	.st54{fill:#C27947;}
	.st55{fill:#C98A55;}
	.st56{fill:#402D1E;}
	.st57{fill:url(#SVGID_20_);}
	.st58{fill:url(#SVGID_21_);}
	.st59{fill:#F0F0F0;}
	.st60{fill:#9E9600;}
	.st61{fill:#39B4BD;}
	.st62{fill:url(#SVGID_22_);}
	.st63{fill:#DBBE9E;}
	.st64{fill:#BFA180;}
	.st65{fill:#BF6311;}
	.st66{fill:#A6560F;}
	.st67{fill:#FFD500;}
	.st68{fill:url(#SVGID_23_);}
	.st69{fill:#FFE01C;}
	.st70{fill:#FFEFA1;}
	.st71{fill:url(#SVGID_24_);}
	.st72{fill:url(#SVGID_25_);}
	.st73{fill:#7D410B;}
	.st74{fill:url(#SVGID_26_);}
	.st75{clip-path:url(#SVGID_28_);fill:url(#SVGID_29_);}
	.st76{clip-path:url(#SVGID_31_);fill:url(#SVGID_32_);}
	.st77{fill:#DB6F39;}
	.st78{fill:#D18647;}
	.st79{fill:#4D2807;}
	.st80{fill:#FCAC7A;}
	.st81{fill:#D4B100;}
	.st82{fill:none;}
	.st83{fill:#E0E0E0;}
</style>
<g>
	<polygon class="st0" points="59.2,45 56.9,45 56.9,42.7 55.4,42.7 55.4,45 53.1,45 53.1,46.5 55.4,46.5 55.4,48.8 56.9,48.8 
		56.9,46.5 59.2,46.5 	"/>
	<path class="st1" d="M20,128.2c0,43,34.9,77.9,77.9,77.9c43,0,77.9-34.9,77.9-77.9s-34.9-77.9-77.9-77.9c-12.1,0-23.6,2.8-33.9,7.7
		c-5.7,2.8-11,6.2-15.8,10.2c-3.8,3.1-7.2,6.6-10.3,10.3C26.7,92,20,109.3,20,128.2z"/>
	<g>
		<defs>
			<path id="SVGID_1_" d="M163.8,86.8c7.7-9.2,18.9-29.4-3.4-52C129.8,3.9,63.6-5.8,45.2,22.8c-18.4,28.7-23.3,55-28.1,67.3
				c-4.8,12.3-16.9,20-6.9,31.3c2.4,2.7,5.9,5.3,9.8,7.7c0.5,42.6,35.2,76.9,77.8,76.9c43,0,77.9-34.9,77.9-77.9
				C175.7,113,171.4,98.8,163.8,86.8z"/>
		</defs>
		<clipPath id="SVGID_2_">
			<use xlink:href="#SVGID_1_"  style="overflow:visible;"/>
		</clipPath>
		<g class="st2">
			<g>
				<linearGradient id="SVGID_3_" gradientUnits="userSpaceOnUse" x1="148.4292" y1="218.4556" x2="148.4292" y2="200.4505">
					<stop  offset="0" style="stop-color:#0C5C76"/>
					<stop  offset="1" style="stop-color:#0A4C61"/>
				</linearGradient>
				<path class="st3" d="M123.4,198.5c0,0-1.4,24,3,48.4c4.4,24.5,12.9,41.6,13.7,43.3h1.9c0,0-2.3-14.7-2.1-38.2
					c0.2-23.5,2.4-29.7,2.4-29.7s4.9,21,11.3,36.8c6.4,15.7,17.9,31.1,17.9,31.1h2.1c0,0-13.7-39.3-15-91.6
					c-1.6-1.2-18.4-3.8-18.4-3.8L123.4,198.5z"/>
				
					<rect x="120.3" y="202" transform="matrix(0.4992 -0.8665 0.8665 0.4992 -112.1561 210.465)" class="st4" width="11.3" height="0.6"/>
				<polygon class="st4" points="158.5,205.9 153.6,198.5 154.1,198.2 159,205.6 				"/>
				<linearGradient id="SVGID_4_" gradientUnits="userSpaceOnUse" x1="142.6781" y1="289.151" x2="144.1107" y2="289.151">
					<stop  offset="0" style="stop-color:#D4D4D4"/>
					<stop  offset="1" style="stop-color:#EDEDED"/>
				</linearGradient>
				<path class="st5" d="M139.6,290.2c0,0,1.3-1.6,1.7-1.6c0.3-0.1,3.4-0.7,3.8-0.4c0.4,0.4,1.3,2,1.3,2H139.6z"/>
				<path class="st6" d="M171.4,290.2c0,0,0.2-0.6,0.8-0.9c1.2-0.7,9.3-1.2,9.7-0.8c0.4,0.4,1.4,1.8,1.4,1.8H171.4z"/>
				<path class="st7" d="M142,222.3c0-0.2-0.1-16-0.7-20.5c-0.2-1.6,0-2.4,0.6-2.7c0.9-0.4,2.2,0.9,2.5,1.2l0.1,0.1l0,0.1
					c0.1,0.5,1.2,13.3-1.9,15.8l0,0c0.1,3.4,0.1,6.1,0.1,6.1L142,222.3z M142.3,199.7c-0.1,0-0.1,0-0.1,0c-0.1,0.1-0.5,0.4-0.2,2
					c0.3,2.6,0.5,8.8,0.6,13.7c2.4-2.8,1.5-13.6,1.4-14.8C143.4,200.2,142.7,199.7,142.3,199.7z"/>
				<path class="st8" d="M126.1,96.3c0,0,8.5-2.4,18.6-2.4c10.1,0,15.7,3.7,15.7,3.7l-6.1,98.4c0,0-6.5,8.2-12.3,8.2
					c-5.8,0-13.1-8.2-13.1-8.2l-2.9-72.1V96.3z"/>
				<path class="st9" d="M135.5,101.7c0,0,6.5,5.6,9.7,5.6c3.2,0,11-5.2,11-5.2l-1.4-2.7L136.1,99l-0.5,2.4L135.5,101.7z"/>
				<path class="st10" d="M139.8,144.1l-3.1-4.4l-12.5-1.5l1.8-18.1l34.2-2.4L165,137l-24.1,2.5L139.8,144.1z M124.8,137.7l12.2,1.4
					l2.5,3.5l0.9-3.7l23.9-2.5l-4.6-18.1l-33.1,2.4L124.8,137.7z"/>
				<g>
					<path class="st10" d="M133.4,128.5v-2.2H131l-0.2,2.3l-1.3-0.1v-5.7h1.5v2.4l2.4,0.1l0-2.5h1.5l-0.3,5.7H133.4z"/>
					<path class="st10" d="M137.6,123.9v1.1h2.7v1.1h-2.7v1.2l3,0.1l0.1,1l-4.3,0.1l-0.3-5.7h4.5l-0.1,1L137.6,123.9z"/>
					<path class="st10" d="M145.6,127.3v1.1l-3.9,0.2l0.1-5.8h1.5l-0.1,4.6H145.6z"/>
					<path class="st10" d="M150.3,127.3v1.2h-3.9v-5.7h1.5l-0.2,4.6L150.3,127.3z"/>
					<path class="st10" d="M156.8,125.4c0,1.7-1.2,3.2-3,3.2c-1.8,0-3.1-1.3-3.1-2.9c0-1.7,1.3-2.9,3.1-2.9
						C155.6,122.7,156.8,123.7,156.8,125.4z M152.2,125.6c0,1,0.7,1.7,1.6,1.7c0.9,0,1.6-0.7,1.6-1.7c0-1-0.7-1.7-1.6-1.7
						C152.9,123.9,152.2,124.6,152.2,125.6z"/>
					<path class="st10" d="M133,135.4l-1.1-4l-1,3.8l-1.6,0.1l-1.9-5.7h1.6l1.1,4.2l1.1-4.2h1.4l1.1,4.2l1.1-4.2h1.5l-1.9,5.7H133z"
						/>
					<path class="st10" d="M142.8,132.6c0,1.7-1.3,2.9-3.1,2.9c-1.8,0-3.1-1.3-3.1-2.9c0-1.7,1.3-2.9,3.1-2.9
						C141.5,129.7,142.8,130.9,142.8,132.6z M138.1,132.6c0,1,0.7,1.7,1.6,1.7c0.9,0,1.6-0.7,1.6-1.7c0-1-0.7-1.7-1.6-1.7
						C138.8,130.9,138.1,131.6,138.1,132.6z"/>
					<path class="st10" d="M146.3,133.8L146.3,133.8h-1.1v1.6h-1.3l-0.1-5.6l2.6-0.1c1.5,0,2.4,0.7,2.4,2c0,0.9-0.4,1.5-1,1.8
						l1.2,1.7l-1.3,0.2L146.3,133.8z M146.2,132.7c0.6,0,1-0.3,1-0.9c0-0.6-0.4-0.9-1-0.9h-1.1v1.8H146.2z"/>
					<path class="st10" d="M153.6,134.2v1.2l-4-0.2l0.1-5.5l1.3-0.1l0.2,4.6H153.6z"/>
					<path class="st10" d="M156.8,129.7c1.8,0,3,1.2,3,2.9c0,1.7-1.3,2.9-3.1,2.9l-2.3,0.2l-0.1-5.8L156.8,129.7z M155.8,134.3h1
						c0.9,0,1.5-0.7,1.5-1.7c0-1-0.7-1.7-1.6-1.7l-1.2-0.1L155.8,134.3z"/>
				</g>
				<path class="st11" d="M132.4,88.3c0,0,5.9,0.1,12.4,0.3c6.5,0.2,12.2,1,12.2,1l-0.4,6.1l-25-0.7L132.4,88.3z"/>
				<linearGradient id="SVGID_5_" gradientUnits="userSpaceOnUse" x1="144.2919" y1="103.717" x2="144.4581" y2="88.7608">
					<stop  offset="0" style="stop-color:#F5BA89"/>
					<stop  offset="1" style="stop-color:#F0A262"/>
				</linearGradient>
				<path class="st12" d="M133.1,82.8l-0.5,16.4c0,0,9.7,5.7,12.6,5.7c2.9,0,10.9-4.3,10.9-4.3V83.5L133.1,82.8z"/>
				<linearGradient id="SVGID_6_" gradientUnits="userSpaceOnUse" x1="160.7538" y1="162.1927" x2="160.7538" y2="190.0652">
					<stop  offset="1.075270e-02" style="stop-color:#D9D9D9"/>
					<stop  offset="1" style="stop-color:#CCCCCC"/>
				</linearGradient>
				<path class="st13" d="M151,97.1l4.6-1.6c0,0,12.1,4.4,19.3,9.5c0.7,14.4-15.3,79-15,82.1c0.3,3.1,0.7,4,0.7,4l-2.8,2.3l0.1,4
					l-6.9,5c0,0-5.2-7.4-4.6-9.5c0.7-2.1,6.1-7.5,6-8.5c-0.2-0.9-5.3-12.6-5-15.1c0.3-2.4,7-13.4,5.6-29.2
					C151.9,124.4,151,97.1,151,97.1z"/>
				<linearGradient id="SVGID_7_" gradientUnits="userSpaceOnUse" x1="123.3871" y1="162.1921" x2="123.3871" y2="190.065">
					<stop  offset="1.075270e-02" style="stop-color:#D9D9D9"/>
					<stop  offset="1" style="stop-color:#CCCCCC"/>
				</linearGradient>
				<path class="st14" d="M138.6,96.8c0,0-6,49.8-6.3,63.5c-0.3,13.7,3.6,24.7,3.8,26.7c0.2,2-4.5,4.7-4.6,6.1
					c-0.1,1.4,4.7,7.2,4.7,7.2c-0.2,0.4-6,1.4-6,1.4s-1.5-3.8-7.1-6.6c-2.6-1.3-2.3-2.8-2.5-4.6c0,0-12.2-79.7-12.3-83.6
					c6.3-6.1,12.5-9.2,18.1-11.3C131.4,94.1,138.6,96.8,138.6,96.8z"/>
				<g>
					<path class="st15" d="M131,57c0,0-2.9-0.8-4.5-0.4c-1.9,2.2-2.1,7.3-2.1,7.3l4,1.9L131,57z"/>
					<polygon class="st16" points="126.1,62.4 125.8,61.7 128.7,60.6 127.7,58.3 128.3,58 129.7,61 					"/>
					<path class="st15" d="M159,57.8c0,0,3.2-0.5,4.4,0c1.5,2.4,1.4,8,1.4,8l-3.5,0.4L159,57.8z"/>
					<path class="st16" d="M163.2,64.3c-1-0.5-2.1-1-2.4-1.2l-0.1,0.1l-0.2-0.2c-0.3-0.2-0.3-0.2,1.7-3.9l0.6,0.3
						c-0.6,1.2-1.3,2.5-1.6,3.1c0.4,0.2,1.1,0.5,2.3,1.1L163.2,64.3z"/>
					<path class="st17" d="M133.5,47.1c0,0-1.2,6.7-2.9,9.6c-1.7,2.9-14.3,32.9,15,32.9c26.4,0,15.5-27.6,13.8-32.3
						c-1.7-4.7-2.8-10.2-2.8-10.2s-7.2-3.1-11-3.1C141.9,44,133.5,47.1,133.5,47.1z"/>
					<linearGradient id="SVGID_8_" gradientUnits="userSpaceOnUse" x1="144.6446" y1="67.5041" x2="151.7065" y2="68.8535">
						<stop  offset="0" style="stop-color:#F5BA89"/>
						<stop  offset="1" style="stop-color:#F0A262"/>
					</linearGradient>
					<path class="st18" d="M145.3,62.3l-1.4,5.3c0,0-2.3,1.4-1.2,4c1.1,2.5,6.4,1.2,6.4,1.2s3.6-1.1,1.8-4.7
						c-2.5,0.1-3.2-0.2-3.3,0.1C147.5,68.2,144.8,66.6,145.3,62.3z"/>
					<path class="st19" d="M131.2,56.1l-1.9,12.5c0,0,7.6,5,16.3,5c8.7,0,14.7-4.6,14.7-4.6L159,56.5c0,0,4.4,8.6,4.4,16.2
						c0,7.6-0.7,17.3-18.6,17.3c-17.9,0-18.8-12.1-18.8-17.3C125.9,67.6,129.8,56.6,131.2,56.1z"/>
					<g>
						<path class="st20" d="M156.4,82.8L156.4,82.8l0,0.2c0.6,1.3,0.5,3.1,0.2,4.7c0.3-0.1,0.5-0.3,0.8-0.4c0.2-1.5,0.2-3.1-0.3-4.4
							c0.3-3.6-0.8-8.2-1.6-11.2c-0.2,0.1-0.4,0.2-0.7,0.3C155.7,74.8,156.7,79.4,156.4,82.8z"/>
						<path class="st20" d="M163.3,70.3c-1-0.5-2.1-0.8-3.2-1.1c-0.2,0.1-0.5,0.3-0.8,0.5c1.4,0.3,2.8,0.7,4.1,1.3
							C163.3,70.8,163.3,70.5,163.3,70.3z"/>
						<path class="st20" d="M126.2,69.8c1.3-0.8,2.4-1.2,3.2-1.5l0.1-0.8c-0.8,0.2-1.9,0.6-3.1,1.3
							C126.3,69.1,126.3,69.5,126.2,69.8z"/>
						<path class="st20" d="M143.3,81.7L143.3,81.7L143.3,81.7c-0.4-3.1,0.6-6.2,1.4-8.2c-0.3,0-0.5,0-0.8,0c-0.8,2-1.7,5.1-1.4,8.2
							c-0.3,3.6,0.2,6.4,0.7,8.2c0.2,0,0.5,0,0.7,0C143.5,88.1,143,85.3,143.3,81.7z"/>
						<path class="st20" d="M133.8,81.6c0.8-4.5,3-7.6,4.4-9.2c-0.3-0.1-0.5-0.1-0.8-0.2c-1.4,1.7-3.5,4.8-4.4,9.2
							c-1,1.7-1.5,3.4-1.8,4.8c0.2,0.2,0.4,0.3,0.6,0.5c0.2-1.4,0.7-3.2,1.8-5L133.8,81.6z"/>
					</g>
					<path class="st19" d="M133.5,53.6v4.4c0,0,5.6,1.5,10.4-2.5c-0.4-4-1-6.2-1-6.2S138.7,53,133.5,53.6z"/>
					<path class="st21" d="M145.2,62.9c0,0.5,0.1,1,0.2,1.4c0.1,0.2,0.1,0.5,0.2,0.7c0,0.1,0.1,0.2,0.1,0.3c0.1,0.1,0.1,0.2,0.1,0.3
						c0.1,0.2,0.2,0.4,0.4,0.6c0.1,0.2,0.3,0.4,0.4,0.6c0.1,0.2,0.3,0.3,0.5,0.5c0.1,0.1,0.2,0.1,0.3,0.2c0.1,0.1,0.2,0.1,0.3,0.2
						l-0.2,0c0.5,0,1.1,0,1.6-0.1c0.5,0,1.1,0,1.6,0l0.2,0l0.1,0.2c0.2,0.3,0.3,0.7,0.4,1c0.1,0.3,0.1,0.7,0.1,1.1
						c0,0.2,0,0.4,0,0.5c0,0.2-0.1,0.4-0.1,0.5c-0.1,0.2-0.1,0.3-0.3,0.5c-0.1,0.1-0.2,0.3-0.3,0.4l-0.4,0.4
						c-0.2,0.1-0.3,0.2-0.5,0.3c-0.2,0.1-0.3,0.1-0.5,0.2c-0.2,0.1-0.3,0.1-0.5,0.2l-0.5,0.1c-0.2,0-0.3,0.1-0.5,0.1
						c-0.3,0-0.7,0-1,0c0.3-0.1,0.7-0.1,1-0.2c0.2,0,0.3-0.1,0.5-0.1l0.5-0.2l0.4-0.2c0.1-0.1,0.3-0.1,0.4-0.2l0.4-0.3l0.3-0.3
						c0.1-0.1,0.2-0.2,0.2-0.4c0.1-0.1,0.1-0.3,0.2-0.4c0.1-0.1,0.1-0.3,0.1-0.4c0-0.1,0-0.3,0-0.4c0-0.3-0.1-0.6-0.2-0.9
						c-0.1-0.3-0.2-0.6-0.3-0.9l0.3,0.2c-0.5,0-1.1,0-1.6,0c-0.5,0-1.1,0-1.6,0h-0.1l-0.1,0c-0.1-0.1-0.2-0.2-0.3-0.2
						c-0.1-0.1-0.2-0.2-0.3-0.3c-0.2-0.2-0.3-0.4-0.5-0.6c-0.2-0.2-0.3-0.4-0.4-0.6c-0.1-0.2-0.2-0.5-0.3-0.7c0-0.1-0.1-0.2-0.1-0.4
						c0-0.1-0.1-0.2-0.1-0.4c-0.1-0.2-0.1-0.5-0.1-0.7c0-0.2,0-0.5,0-0.7C145.2,63.4,145.2,63.2,145.2,62.9z"/>
					<path class="st22" d="M141,65.3c-0.1-0.2-2.5-4.4-7.6-2.9l-0.3-1c6-1.7,8.8,3.4,8.8,3.5L141,65.3z"/>
					<path class="st22" d="M150,65.4l-0.9-0.6c0.1-0.2,3-4,8.2-3.1l-0.2,1.1C152.6,61.9,150.1,65.4,150,65.4z"/>
					<path class="st23" d="M136.1,73.5c0,0,9.8,1.9,19.4,0.9c-0.1,0.2-4.3,6.4-9.6,6.4C140.5,80.9,136.1,73.5,136.1,73.5z"/>
					<path class="st24" d="M135.6,74.6c0,0-0.3-1.6,1.4-1.9C136.6,73.2,135.6,74.6,135.6,74.6z"/>
					<path class="st24" d="M155.7,75.5l-0.7-1.9C155,73.7,156,74.1,155.7,75.5z"/>
					<path class="st25" d="M136.6,73.9c0,0,3.2,4.1,8.8,4.4c4.7,0.2,9.4-3.5,9.4-3.5s-4.7,0.6-9.1,0.4
						C141.3,74.9,136.6,73.9,136.6,73.9z"/>
					<path class="st19" d="M130,56.8v-4l3.2-6.5l1.6-0.1l13-8.5v0.7l-2.1,2.7l4-0.8l-0.4,0.8l-1.3,1.3l8-1.2l-0.2,0.7l-3.9,1.4
						l4.3,3.5l1.1,0.3l3.7,11.2l-1.3-0.2l-0.7-0.9c0,0-2.5-3.7-2.5-8.5c0.3-1.8-3.9-2.5-5.5-0.6c-0.8,1.1-1.4,1.5-1.4,1.5l-9.7-3.2
						c0,0-2.5-0.9-4.6,0.9c-1.6,1.3-1.8,2.8-1.8,2.8l-0.8,4.6l-2.1,2.4L130,56.8z"/>
					<path class="st19" d="M144.2,55.2c0,0-0.7-4.6-0.5-6.1C144.4,51.1,144.2,55.2,144.2,55.2z"/>
					<path class="st19" d="M148.7,50.1l-2.1,5.6c0,0,4,4.9,10.4,3.9c0.3-1.6,0.2-2.8,0.2-2.8S151.9,55,148.7,50.1z"/>
					<g>
						<polygon class="st20" points="133.4,50.5 130.6,51.7 130.1,52.6 133.2,51.3 						"/>
						<path class="st20" d="M138.9,43.6l-0.6,0.4l1.5,2.3c0.1,0,0.1,0,0.1,0l0.9,0.3L138.9,43.6z"/>
						<polygon class="st20" points="150.9,41.9 140.9,46.6 141.8,46.9 153.4,41.6 						"/>
						<path class="st20" d="M159.6,53.9l-2.2-0.3c0.1,0.3,0.2,0.5,0.3,0.7l2.2,0.3L159.6,53.9z"/>
					</g>
					<path class="st26" d="M138.3,65.1c0,0-0.4-0.2-1-0.4c-0.3-0.1-0.7-0.3-1.1-0.4c-0.4-0.1-0.8-0.2-1.3-0.3
						c-0.2,0-0.4-0.1-0.6-0.1c-0.2,0-0.4-0.1-0.6-0.1c-0.2,0-0.4,0-0.6,0c-0.2,0-0.4,0-0.5,0c-0.2,0-0.3,0-0.5,0
						c-0.1,0-0.3,0.1-0.3,0.1c-0.2,0-0.3,0.1-0.3,0.1s0.1-0.1,0.3-0.2c0.1,0,0.2-0.1,0.3-0.2c0.1-0.1,0.3-0.1,0.5-0.2
						c0.2-0.1,0.4-0.1,0.6-0.1c0.2,0,0.4-0.1,0.6-0.1c0.4,0,0.9,0,1.4,0.1c0.5,0.1,0.9,0.2,1.3,0.4c0.4,0.2,0.8,0.4,1.1,0.6
						C137.9,64.7,138.3,65.1,138.3,65.1z"/>
					<path class="st26" d="M154.3,64.3c0,0,0.2-0.2,0.7-0.4c0.4-0.2,1-0.3,1.7-0.4c0.3,0,0.6,0,0.9,0c0.3,0,0.6,0.1,0.8,0.2
						c0.2,0.1,0.4,0.2,0.5,0.2c0.1,0.1,0.2,0.1,0.2,0.1s-0.1,0-0.2,0c-0.1,0-0.3,0-0.5,0c-0.4,0-1,0-1.6,0c-0.3,0-0.6,0-0.9,0.1
						c-0.3,0-0.5,0-0.8,0.1C154.6,64.3,154.3,64.3,154.3,64.3z"/>
				</g>
				<g>
					<path class="st27" d="M115.9,160.8v-60c-0.5,0.4-1.1,0.7-1.6,1.1l0.1,48.8C114.9,154.1,115.4,157.5,115.9,160.8z"/>
					<path class="st27" d="M138.3,96.7c-0.3-0.1-0.9-0.3-1.7-0.5l0,17.1c0.7-6.1,1.3-11.2,1.6-14V96.7z"/>
					<path class="st27" d="M125.7,196.8c0.5,0.4,1,0.8,1.4,1.1l0.8-102.6c-0.3,0.1-1.3,0.3-1.6,0.3c-0.3,0.1-0.6,0.2-0.9,0.3
						L125.7,196.8z"/>
				</g>
				<g>
					<path class="st27" d="M118.8,180c0.1,0.5,0.2,1,0.2,1.5h15.6c-0.1-0.5-0.2-1-0.4-1.5L118.8,180z"/>
					<path class="st27" d="M117.1,168.8c0.1,0.5,0.2,1,0.2,1.5h15.4c-0.1-0.5-0.1-1-0.2-1.5L117.1,168.8z"/>
					<path class="st27" d="M120.5,191.1c0,0.5,0.1,1,0.2,1.5h11c0.3-0.4,0.8-1,1.4-1.5L120.5,191.1z"/>
					<path class="st27" d="M115.5,157.6c0.1,0.5,0.1,1,0.2,1.5h16.6c0-0.5,0-1,0.1-1.5L115.5,157.6z"/>
					<path class="st27" d="M108.9,112.9c0.1,0.5,0.1,1,0.2,1.5h27.4c0.1-0.5,0.1-1,0.2-1.5L108.9,112.9z"/>
					<path class="st27" d="M113.8,146.4c0.1,0.5,0.1,1,0.2,1.5h19.1c0-0.5,0.1-1,0.1-1.5L113.8,146.4z"/>
					<path class="st27" d="M110.5,124.1c0.1,0.5,0.1,1,0.2,1.5h24.6c0.1-0.5,0.1-1,0.2-1.5L110.5,124.1z"/>
					<path class="st27" d="M114.5,101.7c-0.7,0.5-1.3,1-2,1.5h25.3c0.1-0.5,0.1-1,0.2-1.5L114.5,101.7z"/>
					<path class="st27" d="M112.1,135.3c0.1,0.5,0.1,1,0.2,1.5l21.9-0.5c0.1-0.5,0.1-0.5,0.1-1L112.1,135.3z"/>
				</g>
				<g>
					<path class="st27" d="M149.5,199.8v-11.1c-0.5,0.6-1,1.2-1.4,1.8l0,6.9C148.5,198.3,149,199.1,149.5,199.8z"/>
					<path class="st27" d="M160.6,97.5c-0.6-0.2-1.1-0.5-1.7-0.7l0.2,95.5l1.4-1.2v-0.3c-0.1-0.4-0.4-1.5-0.6-3.8
						c0-0.4-0.4-0.6,0-2.8L160.6,97.5z"/>
					<path class="st27" d="M148,168l0,4c0.4,1.3,0.9,2.8,1.5,4.4v-12.1C148.9,165.8,148.3,167,148,168z"/>
					<path class="st27" d="M171.8,102.9c-0.5-0.3-1.1-0.6-1.6-0.9l0.1,35.5c0.5-2.7,1.1-5.4,1.6-8V102.9z"/>
				</g>
				<g>
					<path class="st27" d="M151.6,157.5c-0.1,0.5-0.3,1.1-0.4,1.6h14.5c0.1-0.5,0.2-1.1,0.3-1.6L151.6,157.5z"/>
					<path class="st27" d="M150.8,179.9c0.2,0.5,0.4,1.1,0.6,1.6h9.5c0.1-0.5,0.2-1,0.3-1.6L150.8,179.9z"/>
					<path class="st27" d="M147.7,168.7c-0.1,0.3-0.1,0.5-0.2,0.6c0,0.2,0,0.5,0,0.9h15.7c0.1-0.5,0.1-0.5,0.2-1.1L147.7,168.7z"/>
					<path class="st27" d="M146.7,192.6h12.2l1.8-1.5c0,0,0,0,0-0.1l-13,0C147.2,191.6,146.9,192.2,146.7,192.6z"/>
					<path class="st27" d="M151.6,112.8c0,0.5,0,1,0.1,1.6h22.6c0.1-0.6,0.1-1.1,0.2-1.6L151.6,112.8z"/>
					<path class="st27" d="M153.3,146.3c0,0.5-0.1,1.1-0.1,1.6h14.9c0.1-0.5,0.2-1.1,0.3-1.6L153.3,146.3z"/>
					<path class="st27" d="M151.2,101.7c0,0.5,0.1,1.5,0.1,2.1l21-0.5c-0.9-0.6-1.9-1.1-2.9-1.6L151.2,101.7z"/>
					<path class="st27" d="M152.2,124c0,0.5,0.1,1,0.1,1.6h20.3c0.1-0.5,0.2-1.1,0.3-1.6L152.2,124z"/>
					<path class="st27" d="M152.8,135.2c0,0.5,0.1,1,0.1,1.6h17.5c0.1-0.5,0.2-1.1,0.3-1.6L152.8,135.2z"/>
				</g>
				<polygon class="st6" points="132.6,100.9 138.6,93 132.4,88.3 126.1,96.3 				"/>
				<polygon class="st6" points="156.1,101.4 151,92.6 156.9,89.6 162.1,97.3 				"/>
				<polygon class="st28" points="138.6,93 138.6,96.8 138.3,99.9 134.6,98.3 				"/>
				<polygon class="st28" points="151.1,100.6 151,92.6 154.7,98.4 				"/>
				<linearGradient id="SVGID_9_" gradientUnits="userSpaceOnUse" x1="178.7689" y1="127.2074" x2="178.7689" y2="154.8394">
					<stop  offset="0" style="stop-color:#D9D9D9"/>
					<stop  offset="1" style="stop-color:#E8E8E8"/>
				</linearGradient>
				<path class="st29" d="M175,105c0,0,15.8,41.1,18.1,66c-15.5-9.9-28.5-11.5-28.5-11.5L175,105z"/>
				<g>
					<path class="st27" d="M181.5,164.7c0.5,0.2,1,0.4,1.5,0.7V128c-0.5-1.7-1.1-3.3-1.6-4.9L181.5,164.7z"/>
					<path class="st27" d="M192.7,167.6l0,3.1c0.1,0.1,0.2,0.1,0.4,0.2C192.9,169.8,192.8,168.7,192.7,167.6z"/>
					<path class="st27" d="M170.3,160.7c0.5,0.1,1,0.3,1.5,0.4v-39.6l-1.6,8.2L170.3,160.7z"/>
				</g>
				<g>
					<path class="st27" d="M167,146.3l-0.3,1.6h22c-0.1-0.6-0.3-1.1-0.4-1.7L167,146.3z"/>
					<path class="st27" d="M164.9,157.5l-0.3,1.6h26.7c-0.1-0.6-0.2-1.1-0.3-1.7L164.9,157.5z"/>
					<path class="st27" d="M189.2,168.6c0.9,0.5,1.8,1.1,2.8,1.7h1c-0.1-0.5-0.1-1.1-0.2-1.7L189.2,168.6z"/>
					<path class="st27" d="M173.5,112.8l-0.3,1.6h5.3c-0.2-0.6-0.4-1.1-0.6-1.6L173.5,112.8z"/>
					<path class="st27" d="M169.2,135.1l-0.3,1.6h16.8c-0.2-0.6-0.3-1.1-0.5-1.6L169.2,135.1z"/>
					<path class="st27" d="M171.3,124l-0.3,1.6h11.2c-0.2-0.6-0.4-1.1-0.5-1.6L171.3,124z"/>
				</g>
				<linearGradient id="SVGID_10_" gradientUnits="userSpaceOnUse" x1="173.8624" y1="174.5078" x2="181.5347" y2="163.4597">
					<stop  offset="0" style="stop-color:#F5BA89"/>
					<stop  offset="1" style="stop-color:#F0A262"/>
				</linearGradient>
				<path class="st30" d="M158.5,205.2l0.9-4.8c0,0,13.7-4.7,21.5-11.6c7.8-6.8,12.1-15.6,12.1-15.6s-21.3-12.6-28.5-12.3
					c-4.4,24.8-7.4,36.5-7.4,36.5l-2,2.1L158.5,205.2z"/>
				<path class="st19" d="M184.9,181.4c-4.3,0-9.6-1-9.9-1l0.1-0.7c0.1,0,11.4,2.1,14.1,0.3l0.4,0.6
					C188.6,181.2,186.9,181.4,184.9,181.4z"/>
				<path class="st19" d="M179.4,184.6c-4,0-7.8-0.7-8.1-0.7l0.1-0.7c0.1,0,10.7,1.8,15-0.5l0.3,0.6
					C184.9,184.3,182.1,184.6,179.4,184.6z"/>
				<path class="st19" d="M173.3,188.3c-2.6,0-4.6-0.3-4.8-0.3l0.1-0.7c0.1,0,8.7,1.2,14.3-1.5l0.3,0.6
					C180.1,188,176.3,188.3,173.3,188.3z"/>
				<path class="st6" d="M163.9,162.7l1.4-9.4c0,0,18.6-1.8,27.8,9.9c0.8,4.5-0.1,12.8-0.1,12.8s-4.8-4.7-14.7-9.3
					C169.3,162.7,163.9,162.7,163.9,162.7z"/>
				<linearGradient id="SVGID_11_" gradientUnits="userSpaceOnUse" x1="153.7745" y1="199.7837" x2="155.8725" y2="192.6203">
					<stop  offset="0" style="stop-color:#F5BA89"/>
					<stop  offset="1" style="stop-color:#F0A262"/>
				</linearGradient>
				<path class="st31" d="M155,199.5l-4.7,3.4c0,0,3.1,3.3,5.7-2.3C155.8,199.7,155,199.5,155,199.5z"/>
				<path class="st32" d="M169.2,136.8l-0.6-0.1c0,0,0-0.4,0.1-1.2l0.6,0.1C169.2,136.3,169.2,136.8,169.2,136.8z M169.5,134.3
					l-0.6-0.1c0-0.4,0.1-0.8,0.2-1.2l0.6,0.1C169.6,133.5,169.5,134,169.5,134.3z M169.8,131.9l-0.6-0.1l0.2-1.2l0.6,0.1
					L169.8,131.9z M170.1,129.5l-0.6-0.1l0.2-1.2l0.6,0.1L170.1,129.5z M170.5,127l-0.6-0.1l0.2-1.2l0.6,0.1L170.5,127z
					 M170.9,124.6l-0.6-0.1l0.2-1.2l0.6,0.1L170.9,124.6z M171.3,122.2l-0.6-0.1l0.2-1.2l0.6,0.1L171.3,122.2z M171.7,119.8
					l-0.6-0.1c0.1-0.4,0.1-0.8,0.2-1.2l0.6,0.1C171.9,119,171.8,119.4,171.7,119.8z M172.2,117.3l-0.6-0.1c0.1-0.4,0.2-0.8,0.2-1.2
					l0.6,0.1C172.3,116.5,172.3,116.9,172.2,117.3z M172.7,114.9l-0.6-0.1c0.1-0.4,0.2-0.8,0.3-1.2l0.6,0.1
					C172.8,114.1,172.7,114.5,172.7,114.9z M173.2,112.5l-0.6-0.1c0.1-0.4,0.2-0.8,0.3-1.2l0.6,0.1
					C173.4,111.7,173.3,112.1,173.2,112.5z M173.8,110.2l-0.6-0.2c0.1-0.4,0.2-0.8,0.3-1.2l0.6,0.2
					C174,109.4,173.9,109.8,173.8,110.2z M174.4,107.8l-0.6-0.2c0.1-0.4,0.2-0.8,0.4-1.2l0.6,0.2C174.6,107,174.5,107.4,174.4,107.8
					z M175.1,105.5l-0.6-0.2l0.1-0.4l0.6,0.2L175.1,105.5z"/>
				<path class="st32" d="M113,138c0,0,0-0.4-0.1-1.2l0.6-0.1c0.1,0.8,0.1,1.2,0.1,1.2L113,138z M112.7,135.5l-0.1-1.2l0.6-0.1
					l0.1,1.2L112.7,135.5z M112.5,133.1l-0.1-1.2l0.6-0.1l0.1,1.2L112.5,133.1z M112.2,130.6l-0.1-1.2l0.6-0.1l0.1,1.2L112.2,130.6z
					 M112,128.2l-0.1-1.2l0.6-0.1l0.1,1.2L112,128.2z M111.7,125.7l-0.2-1.2l0.6-0.1l0.2,1.2L111.7,125.7z M111.3,123.3
					c-0.1-0.4-0.1-0.8-0.2-1.2l0.6-0.1c0.1,0.4,0.1,0.8,0.2,1.2L111.3,123.3z M111,120.9c-0.1-0.4-0.1-0.8-0.2-1.2l0.6-0.1
					c0.1,0.4,0.1,0.8,0.2,1.2L111,120.9z M110.6,118.4c-0.1-0.4-0.1-0.8-0.2-1.2l0.6-0.1c0.1,0.4,0.1,0.8,0.2,1.2L110.6,118.4z
					 M110.2,116c-0.1-0.4-0.1-0.8-0.2-1.2l0.6-0.1c0.1,0.4,0.2,0.8,0.2,1.2L110.2,116z M109.8,113.6c-0.1-0.4-0.2-0.8-0.3-1.2
					l0.6-0.1c0.1,0.4,0.2,0.8,0.3,1.2L109.8,113.6z M109.2,111.2c-0.1-0.4-0.2-0.8-0.3-1.2l0.6-0.2c0.1,0.4,0.2,0.8,0.3,1.2
					L109.2,111.2z M108.6,108.9c-0.1-0.4-0.3-0.8-0.4-1.1l0.6-0.2c0.1,0.4,0.3,0.8,0.4,1.2L108.6,108.9z"/>
				<polygon class="st32" points="156,122.7 157.1,138.3 163,140.1 167.5,124.5 				"/>
				<linearGradient id="SVGID_12_" gradientUnits="userSpaceOnUse" x1="101.4717" y1="127.2061" x2="101.4717" y2="154.8389">
					<stop  offset="0" style="stop-color:#D9D9D9"/>
					<stop  offset="1" style="stop-color:#E8E8E8"/>
				</linearGradient>
				<path class="st33" d="M88,167.1c0,0,9.9-42.7,20.2-60.1c5.2,23.8,6.8,49,6.8,49L88,167.1z"/>
				<g>
					<path class="st27" d="M104.8,113.7c-0.5,1.2-1.1,2.4-1.6,3.7l0.1,43.4l1.5-0.6V113.7z"/>
					<path class="st27" d="M92.1,165.4l1.5-0.6v-19.1c-0.5,1.9-1,3.7-1.5,5.4L92.1,165.4z"/>
					<path class="st27" d="M115,155.9c0,0-0.2-2.7-0.6-7.2l0,7.4L115,155.9z"/>
				</g>
				<g>
					<path class="st27" d="M90.3,157.7c-0.1,0.5-0.2,1-0.4,1.4h17.4l3.5-1.5L90.3,157.7z"/>
					<path class="st27" d="M93.3,146.5c-0.1,0.5-0.3,1-0.4,1.4h21.4c0-0.5-0.1-1-0.1-1.5L93.3,146.5z"/>
					<path class="st27" d="M96.7,135.3c-0.2,0.5-0.3,0.9-0.4,1.4h16.9c-0.1-0.5-0.1-1-0.2-1.5L96.7,135.3z"/>
					<path class="st27" d="M105.1,112.9c-0.2,0.5-0.4,1-0.7,1.4h5.3c-0.1-0.5-0.2-1-0.3-1.5L105.1,112.9z"/>
					<path class="st27" d="M100.5,124.1c-0.2,0.5-0.3,1-0.5,1.4h11.6c-0.1-0.5-0.1-1-0.2-1.5L100.5,124.1z"/>
				</g>
				<linearGradient id="SVGID_13_" gradientUnits="userSpaceOnUse" x1="107.8011" y1="178.6147" x2="100.7425" y2="160.5078">
					<stop  offset="0" style="stop-color:#F5BA89"/>
					<stop  offset="1" style="stop-color:#F0A262"/>
				</linearGradient>
				<path class="st34" d="M124.1,205.2l3.8-6.5l-4.4-4.1l-8.6-36.2c0,0-12.9-2.1-26.8,8c2.8,8.2,12.5,22.6,33.6,32.2L124.1,205.2z"
					/>
				<path class="st19" d="M103.4,177.7c-4.4,0-9-1.5-9.5-1.8l0.3-0.6c0.7,0.4,9.2,3,13.9,0.9l0.3,0.6
					C106.9,177.4,105.1,177.7,103.4,177.7z"/>
				<path class="st19" d="M107.6,182.1c-5,0-10.6-2.8-10.9-2.9l0.3-0.6c0.1,0,8.7,4.2,13.7,2.4l0.2,0.6
					C109.8,182,108.7,182.1,107.6,182.1z"/>
				<path class="st6" d="M88.9,168.5c0,0-4.1-3.4-3-10.6c12.7-8.8,29.2-7.7,29.2-7.7l0.7,9.5c0,0-9,1.5-14.8,3.1
					C95.1,164.2,88.9,168.5,88.9,168.5z"/>
				<path class="st19" d="M95.6,173.8c-2.9,0-4.8-0.5-4.9-0.5l0.2-0.6c0.1,0,5.5,1.4,11.8-0.5l0.2,0.6
					C100.2,173.5,97.7,173.8,95.6,173.8z"/>
				<path class="st7" d="M172,289.4c-7.2-9.2-29.1-64.6-30-67l0.6-0.2c0.2,0.6,22.8,57.7,29.9,66.8L172,289.4z"/>
			</g>
			<g>
				<path class="st17" d="M56.5,121.8c0,0,6.3,0.5,7.5,1.3c0.4,1.5-1.8,2.4-1.8,2.4l-5.2-2.1L56.5,121.8z"/>
				<path class="st35" d="M32.5,290.2c0,0,0.4-1.6,1.7-1.9c1.3-0.3,10.1,0,10.1,0h2.4l0.8,1.9H32.5z"/>
				<linearGradient id="SVGID_14_" gradientUnits="userSpaceOnUse" x1="33.9753" y1="167.6647" x2="41.9545" y2="214.6196">
					<stop  offset="0" style="stop-color:#854A02"/>
					<stop  offset="1" style="stop-color:#6E3D02"/>
				</linearGradient>
				<path class="st36" d="M29.6,159.5c0,0,4.1,42.6,9.7,57.9c5.6,15.3,4.9,70.9,5.1,70.9c0.2,0,2.4,0,2.4,0s9.8-40.4,7.1-61.5
					c-2.7-21.1-7.6-27.1-8.9-42.2c-1.3-15.1-3-25.1-3-25.1H29.6z"/>
				<path class="st37" d="M38.4,161.4c0,0,4.9,38.5,6.5,47.6c1.6,9.1,4.9,21.9,5.2,33.7c0.2,11.7-3.2,45.6-3.2,45.6h2.7
					c0,0,10.5-24.9,10.5-48.1c0-18.4-5.6-22.1-5.6-46c0-17.3,1-35.8-1.2-41.7C51.1,146.7,38.4,161.4,38.4,161.4z"/>
				<path class="st38" d="M52.3,166.3c-0.2-0.1-4.1-2.8-5.6-7.2l0.6-0.2c1.4,4.2,5.3,6.8,5.4,6.9L52.3,166.3z"/>
				<path class="st38" d="M49.4,288l-0.6-0.2c0.1-0.3,7.9-29.5,8.7-42c0.6-8.8-1.2-17.3-2.8-24.8c-0.7-3.3-1.3-6.3-1.7-9.1
					c-0.9-6.5-0.8-23.6-0.8-35c0-4.9,0.1-8.8,0-10.6c-0.2-5.9-2.6-12.8-2.6-12.8l0.6-0.2c0,0.1,2.4,7,2.6,13c0.1,1.8,0,5.7,0,10.6
					c-0.1,11.3-0.2,28.4,0.7,34.9c0.4,2.8,1,5.8,1.7,9.1c1.6,7.5,3.4,16.1,2.8,24.9C57.3,258.5,49.4,287.7,49.4,288z"/>
				
					<rect x="38.5" y="159.4" transform="matrix(0.9863 -0.1651 0.1651 0.9863 -26.8714 8.6779)" class="st38" width="0.6" height="13.2"/>
				<path class="st38" d="M39.4,168.5l-0.1-0.6c1-0.2,0.9-5,0.2-9.4l0.6-0.1C40.5,160.7,41.4,168.1,39.4,168.5z"/>
				<path class="st39" d="M50.5,290.2c0,0-0.8-2.1-1.4-2.2c-0.6-0.2-1.4-0.1-2.2,0.4c-0.8,0.5-0.9,1.9-0.9,1.9H50.5z"/>
				<path class="st40" d="M47.2,73.4c0,0,8.1,0.7,11.5,4.1c-0.3,2.3-1.4,3.3-1.4,3.3l-10.4-3.5L47.2,73.4z"/>
				<linearGradient id="SVGID_15_" gradientUnits="userSpaceOnUse" x1="50.1712" y1="80.9175" x2="53.8577" y2="70.9429">
					<stop  offset="0" style="stop-color:#E0A574"/>
					<stop  offset="1" style="stop-color:#D6925A"/>
				</linearGradient>
				<path class="st41" d="M51.6,63.5c0,0-3,9.8-4.2,14.3c2.9,3.4,2.8,5.3,8.1,2.3c2-5.5,4.2-13.2,4.2-13.2L51.6,63.5z"/>
				<path class="st42" d="M41.3,77.6c0,0-6.3,17.5-8.5,29.1c-2.2,11.6-3.2,52.8-3.2,52.8s5.2,5.1,11.5,3.1
					c6.2-2,12.1-10.1,12.1-10.1s-1.5-4.5-5-9.5c0-7.1,3.2-23.1,7-32.7c3.8-9.5,6.2-26.6,6.2-26.6s-3.3-2.5-6.2-4.2
					c-1-0.6-0.9,0.6-1.6,0.3c-0.2-0.1-2.7,1.5-2.8,1.5c-1-0.3-0.8-3.7-1.9-3.8C45,77.1,41.3,77.6,41.3,77.6z"/>
				<polygon class="st43" points="49.4,80.9 47.4,89.3 48.4,90.2 51.5,81.5 				"/>
				<polygon class="st44" points="51.3,77.3 50.7,81.3 54.2,77.8 55.1,81.3 50.3,81.6 48,79.7 				"/>
				<linearGradient id="SVGID_16_" gradientUnits="userSpaceOnUse" x1="56.7614" y1="109.6415" x2="43.7175" y2="112.0968">
					<stop  offset="0" style="stop-color:#BAB100"/>
					<stop  offset="1" style="stop-color:#A19900"/>
				</linearGradient>
				<path class="st45" d="M61.4,83.7c0,0,1.7,2.7,2.6,5c3.2,8.5,11,28.4,8.6,37.9c-6.9,12-23,7-33.5-0.2
					c-10.5-7.1-12.4-10.6-12.4-10.6l0.6-0.7c0,0,23.5,10.8,37.7,7.8c-1.6-8.1-5.9-16.3-7.5-19.4C57,96.7,61.4,83.7,61.4,83.7z"/>
				<linearGradient id="SVGID_17_" gradientUnits="userSpaceOnUse" x1="32.0793" y1="104.3883" x2="40.0508" y2="116.9588">
					<stop  offset="0" style="stop-color:#BAB100"/>
					<stop  offset="1" style="stop-color:#D1C700"/>
				</linearGradient>
				<path class="st46" d="M41.3,77.6c-4.3,0.4-23.1,21.2-27,40c7.8,10.4,25.6,15.7,43.2,5.6l-1-1.4c0,0-24.5-2.4-31.7-6.8
					c1.8-6.1,10.5-18.9,10.5-18.9S41.7,80.8,41.3,77.6z"/>
				<path class="st0" d="M29.6,159.5c0,0,1.9,4.7,8.1,5.4c0.6-0.8,1.1-1.9,1.1-1.9l1.7,1.9c0,0,10.9-6.8,12.7-12.4
					c-7.8,6.2-9.1,8-12.9,8.9C36.6,162.3,29.6,159.5,29.6,159.5z"/>
				<g>
					<circle class="st47" cx="49.2" cy="46.6" r="4.1"/>
					<circle class="st47" cx="73.2" cy="58.6" r="4.1"/>
					<path class="st48" d="M56.4,34L52,41.1c0,0-0.3,9.2-2.3,15.1c-2.1,5.9-2.8,13.2,3.6,15.9c6.4,2.7,10.6-2.7,13.5-8.1
						c2.9-5.4,8.8-11.7,8.8-11.7l2.9-8.7c0,0,2.9-10.5-6-15.2C64.4,24.3,58.7,31.3,56.4,34z"/>
					<linearGradient id="SVGID_18_" gradientUnits="userSpaceOnUse" x1="62.4848" y1="50.4961" x2="58.9441" y2="51.4097">
						<stop  offset="0" style="stop-color:#E0A574"/>
						<stop  offset="1" style="stop-color:#D6925A"/>
					</linearGradient>
					<path class="st49" d="M63.3,43.1c0,0-0.1,10.6-1.7,14.8c-3.5-1.3-4.6-2.1-4.6-2.1s0.1-3,1.7-6.5C60.3,45.8,62.7,44.1,63.3,43.1
						z"/>
					<path class="st50" d="M67.7,39.3l4.3-3.9c0,0,3.3,4.6,3.6,7c-0.8,0.5-1.3,0.8-1.3,0.8L67.7,39.3z"/>
					<path class="st51" d="M78,39.5c0,0-3.2,12.8-5.8,15.1c1.5,0,1.8,0,1.8,0l2.2-2.1c0,0,2.4-8.8,3.2-11.9
						C78.5,39.7,78,39.5,78,39.5z"/>
					<path class="st51" d="M55.3,35.4c0,0-2.9,6.7-2.8,8.9c-0.6-0.7-0.6-0.7-0.6-0.7l0-2.9l2.6-4.8L55.3,35.4z"/>
					<linearGradient id="SVGID_19_" gradientUnits="userSpaceOnUse" x1="55.6341" y1="65.8009" x2="52.893" y2="72.2253">
						<stop  offset="0" style="stop-color:#C99265"/>
						<stop  offset="1" style="stop-color:#AD784E"/>
					</linearGradient>
					<path class="st52" d="M73.7,54.6l-1.5,0l-4.6,6c0,0-3.2-0.9-8.6-3.6c-5.4-2.7-7.2-4.7-7.2-4.7l0.8-8l-0.6-0.7
						c-0.2,3.2-0.8,8.7-2.2,12.6c-2.1,5.9-2.8,13.2,3.6,15.9c6.4,2.7,10.6-2.7,13.5-8.1C68.7,60.7,71.7,56.9,73.7,54.6z"/>
					<path class="st51" d="M53.3,56.1c0,0,6.5,4.6,11.9,5.5c-0.9,0.9-4.6,4.1-8.2,2.5C52.8,62.1,53.3,56.1,53.3,56.1z"/>
					<path class="st53" d="M53.5,56.6c0,0-0.5,3.2,4.3,5.5c4.7,2.3,6.8-0.2,6.8-0.2s-3-0.7-5.9-2.1C55.3,58,53.5,56.6,53.5,56.6z"/>
					<path class="st51" d="M52.8,56.6L54,56c0,0-0.4-0.2-0.7,0C52.9,56.1,52.8,56.6,52.8,56.6z"/>
					<path class="st51" d="M64.9,61.1l0.3,1.3C65.2,62.3,65.8,61.6,64.9,61.1z"/>
					<path class="st50" d="M53.9,38c0,0,3.6-15.4,10-20.7c6.6-5.5,14.2-4.5,17.4,3c3.2,7.5-0.6,15.2,4.7,20.2
						c-3.3,1.5-6.9,1.5-9.1-0.9c-2.3-2.4-11.1-9-16-9.5C58.3,31.6,53.9,38,53.9,38z"/>
					<path class="st54" d="M49.5,48.5c-0.3,0-0.5-0.1-0.8-0.2c-0.3-0.1-0.5-0.3-0.7-0.5c-0.2-0.2-0.4-0.5-0.4-0.8c0-0.2,0-0.3,0-0.5
						c0-0.2,0.1-0.3,0.1-0.4c0.1-0.2,0.1-0.3,0.2-0.4c0.1-0.1,0.2-0.3,0.3-0.4c0.1-0.1,0.3-0.2,0.4-0.3c0.1-0.1,0.3-0.1,0.5-0.1
						c0.6-0.1,1.2,0.1,1.8,0.3l-0.4,0.4c0-0.1-0.1-0.2-0.1-0.2c-0.1-0.1-0.1-0.2-0.2-0.2c-0.1-0.1-0.3-0.3-0.4-0.4
						c-0.2-0.1-0.3-0.2-0.5-0.2c-0.2,0-0.4-0.1-0.6-0.1c-0.1,0-0.2,0-0.3,0c-0.1,0-0.2,0-0.3,0.1c-0.2,0-0.4,0.1-0.6,0.2l-0.3,0.2
						C47.2,44.9,47.1,45,47,45c-0.2,0.1-0.3,0.3-0.5,0.4c0.1-0.2,0.2-0.4,0.4-0.6c0.1-0.1,0.1-0.2,0.2-0.3l0.2-0.2
						c0.2-0.1,0.4-0.3,0.6-0.4c0.1-0.1,0.2-0.1,0.3-0.1c0.1,0,0.2,0,0.4-0.1c0.2,0,0.5,0,0.7,0c0.2,0.1,0.5,0.1,0.7,0.3
						c0.2,0.1,0.4,0.3,0.6,0.5c0.1,0.1,0.2,0.2,0.2,0.3c0.1,0.1,0.1,0.2,0.2,0.3c0.1,0.2,0,0.4-0.1,0.4c-0.1,0-0.2,0.1-0.3,0l0,0
						c-0.5-0.2-1-0.3-1.4-0.2c-0.1,0-0.2,0-0.3,0.1c-0.1,0-0.2,0.1-0.3,0.2c-0.1,0.1-0.2,0.1-0.2,0.2c-0.1,0.1-0.1,0.2-0.2,0.3
						c0,0.1-0.1,0.3-0.1,0.3c0,0.1-0.1,0.2,0,0.3c0,0.2,0.1,0.4,0.2,0.6C48.6,47.9,49,48.2,49.5,48.5z"/>
					<path class="st54" d="M71,59.3c0.2,0.2,0.4,0.3,0.7,0.4c0.2,0.1,0.5,0.1,0.7,0.2c0.1,0,0.2,0,0.3,0c0.1,0,0.2-0.1,0.3-0.1
						c0.2-0.1,0.4-0.3,0.5-0.5l0.1-0.1l0,0c0,0,0,0,0,0l0,0l0,0l0.1-0.2c0.1-0.1,0.1-0.2,0.1-0.3c0-0.1,0.1-0.2,0.1-0.3
						c0-0.1,0-0.2,0-0.3c-0.1-0.2-0.2-0.3-0.4-0.5c-0.1-0.1-0.2-0.1-0.3-0.2c-0.1-0.1-0.2-0.1-0.3-0.1l0,0c-0.2-0.1-0.3-0.3-0.2-0.4
						c0-0.1,0.1-0.2,0.2-0.2c0.2-0.1,0.4-0.1,0.6-0.1c0.2,0,0.4,0,0.7,0c0.2,0,0.4,0.1,0.6,0.2c0.1,0,0.2,0.1,0.3,0.2
						c0.1,0.1,0.2,0.1,0.3,0.2c0.1,0.1,0.2,0.2,0.2,0.2c0.1,0.1,0.1,0.2,0.2,0.3c0,0.1,0.1,0.2,0.1,0.3c0,0.1,0.1,0.2,0.1,0.3
						c0,0.1,0,0.2,0.1,0.3l0,0.3c0,0.2,0,0.4,0,0.6c-0.1-0.2-0.1-0.4-0.1-0.6l-0.1-0.3c0-0.1-0.1-0.2-0.1-0.3c0-0.1-0.1-0.2-0.1-0.2
						c0-0.1-0.1-0.1-0.2-0.2c-0.1-0.1-0.1-0.1-0.2-0.2c-0.1-0.1-0.1-0.1-0.2-0.2c-0.1,0-0.1-0.1-0.2-0.1c-0.1,0-0.2-0.1-0.2-0.1
						c-0.2,0-0.3-0.1-0.5-0.1c-0.2,0-0.4,0-0.5,0c-0.2,0-0.4,0.1-0.5,0.1l0-0.6c0.2,0.1,0.3,0.1,0.4,0.2c0.1,0.1,0.3,0.1,0.4,0.2
						c0.2,0.2,0.5,0.5,0.6,0.8c0,0.2,0.1,0.3,0.1,0.5c0,0.2-0.1,0.3-0.1,0.5c-0.1,0.1-0.1,0.3-0.2,0.4l-0.1,0.2l0,0l0,0c0,0,0,0,0,0
						l0,0l-0.1,0.1c-0.2,0.2-0.4,0.4-0.7,0.5c-0.1,0.1-0.3,0.1-0.4,0.1c-0.2,0-0.3,0-0.4,0c-0.3-0.1-0.5-0.2-0.8-0.3
						C71.3,59.7,71.2,59.5,71,59.3z"/>
					<path class="st55" d="M61.9,58.2C61.9,58.2,61.8,58.2,61.9,58.2c-0.2,0-3-0.8-5-2.2c-0.1-0.1-0.1-0.1-0.1-0.2
						c-0.6-4.3,3.5-10,5.6-12.1c2.1-2.1,2.2-7,2.2-7c0-0.2,0.1-0.3,0.3-0.3c0.2,0,0.3,0.2,0.3,0.3c0,0.2-0.1,5.2-2.4,7.5
						c-1.9,1.9-5.9,7.4-5.5,11.4c1.9,1.3,4.5,2,4.6,2c0.2,0,0.3,0.2,0.2,0.4C62.2,58.1,62,58.2,61.9,58.2z"/>
					<path class="st50" d="M57.9,35.6c0,0,6.5,2.1,7.6,2c0.4-3,0.2-5.6,0.2-5.6s-6.7,1.4-7.8,1.9C57.9,34.7,57.9,35.6,57.9,35.6z"/>
					<path class="st56" d="M65.8,18.3c1.6-0.9,3.3-0.9,5.1-0.3c3.9,1.5,5.7,6.1,7.5,10.5c1.5,3.7,3,7.4,5.7,9.2
						c-0.1-0.3-0.3-0.6-0.4-0.9c-2.2-1.8-3.5-5-4.8-8.4c-1.8-4.6-3.7-9.3-7.8-10.8c-2-0.7-3.8-0.6-5.5,0.3c-4.9,2.7-6.9,11.2-7.1,12
						c-0.8,1.6-1.4,3.3-1.7,4.3c0.3-0.4,0.7-0.8,1-1.2c1-2.7,2.8-6.8,5.3-8c0.9-0.4,1.7-0.5,2.6-0.1c2.2,0.9,4.6,4,7.2,7.2
						c2.8,3.5,5.9,7.4,9.3,9.4c0.3,0,0.6-0.1,0.9-0.1c-3.6-1.8-6.8-5.9-9.8-9.6c-2.6-3.3-5.1-6.4-7.4-7.4c-1-0.4-2.1-0.4-3.1,0.1
						c-1.2,0.6-2.3,1.8-3.2,3.3C60.6,24.9,62.6,20.1,65.8,18.3z"/>
					<path class="st55" d="M64.4,48.5c0,0,0.4,0.1,1,0.3c0.3,0.1,0.6,0.2,1,0.3c0.4,0.1,0.8,0.2,1.2,0.2c0.2,0,0.4,0.1,0.6,0.1
						c0.2,0,0.4,0.1,0.6,0.1c0.2,0,0.4,0,0.5,0c0.2,0,0.3,0,0.5,0c0.2,0,0.3,0,0.4,0c0.1,0,0.2,0,0.3,0c0.2,0,0.3,0,0.3,0
						s-0.1,0.1-0.3,0.1c-0.2,0.1-0.4,0.2-0.7,0.3c-0.2,0.1-0.3,0.1-0.5,0.1c-0.2,0-0.4,0.1-0.6,0.1c-0.4,0-0.8,0-1.3-0.1
						c-0.4-0.1-0.8-0.2-1.2-0.3c-0.4-0.1-0.7-0.3-1-0.5C64.7,48.8,64.4,48.5,64.4,48.5z"/>
					<path class="st55" d="M55.5,41c0,0,0.1,0.4,0.3,0.9c0.1,0.3,0.3,0.5,0.5,0.8c0.2,0.3,0.4,0.6,0.6,0.9c0.1,0.1,0.2,0.3,0.4,0.4
						c0.1,0.1,0.2,0.3,0.4,0.4c0.1,0.1,0.2,0.3,0.4,0.4c0.1,0.1,0.2,0.2,0.3,0.3c0.2,0.2,0.4,0.4,0.5,0.5c0.1,0.1,0.2,0.2,0.2,0.2
						s-0.1,0-0.3-0.1c-0.2-0.1-0.4-0.1-0.7-0.3c-0.3-0.1-0.6-0.3-0.9-0.6c-0.3-0.2-0.6-0.5-0.8-0.8c-0.1-0.2-0.2-0.3-0.4-0.5
						c-0.1-0.2-0.2-0.3-0.3-0.5c-0.2-0.3-0.3-0.7-0.3-1c0-0.3,0-0.6,0-0.7C55.5,41.1,55.5,41,55.5,41z"/>
					<path class="st53" d="M71.4,47.2c-0.5,1.4-2,1.8-3.7,1.4c-1.6-0.4-2.5-1.5-1.7-3.6c0.5-1.4,2.2-2,3.7-1.4
						C71.2,44.2,71.8,46.1,71.4,47.2z"/>
					<path class="st53" d="M56.6,40.2c-0.7,1.3,0,2.7,1.5,3.7c1.3,0.9,2.8,0.8,3.8-1.2c0.7-1.3,0-3-1.4-3.7
						C59,38.4,57.2,39.2,56.6,40.2z"/>
					<linearGradient id="SVGID_20_" gradientUnits="userSpaceOnUse" x1="58.5572" y1="43.4568" x2="61.1103" y2="40.2136">
						<stop  offset="0" style="stop-color:#7A7500"/>
						<stop  offset="1" style="stop-color:#374500"/>
					</linearGradient>
					<circle class="st57" cx="59.5" cy="42.3" r="2.2"/>
					<linearGradient id="SVGID_21_" gradientUnits="userSpaceOnUse" x1="67.4837" y1="47.7016" x2="70.0368" y2="44.4583">
						<stop  offset="0" style="stop-color:#7A7500"/>
						<stop  offset="1" style="stop-color:#374500"/>
					</linearGradient>
					<circle class="st58" cx="68.4" cy="46.6" r="2.2"/>
					<path class="st50" d="M57.6,39.3c0,0,3.3-0.5,4.5,3C62.8,39.5,59.7,37.8,57.6,39.3z"/>
					<path class="st50" d="M66.3,44.5c0,0,2.5-1.4,5,0.8C70.8,43.4,67.9,42.1,66.3,44.5z"/>
				</g>
				<polygon class="st0" points="47.4,80.5 51.3,77.3 47.2,73.4 44.1,77.1 				"/>
				<polygon class="st0" points="54.2,77.8 55.1,82.7 59.7,80.9 58.7,77.6 				"/>
				<path class="st17" d="M27.3,115.1l-0.9-4.1l-5.7-4.8c0,0-1-0.2-1.4,0.5c0.6,0.9,4.3,3.9,4.3,3.9l-5.3-3.2c0,0-1,0.4-1.1,1.3
					c1.6,1,6,3.2,6,3.2s-5.9-2.1-6-2.1c-0.3,0.5,0,1.7,0,1.7l5.8,1.6l-5-0.5c0,0-0.5,0.8-0.4,1.3c1.6,0.4,7.1,1,7.1,1l2.1,1
					L27.3,115.1z"/>
				<path class="st43" d="M57.8,103.5l-0.6,0c0-0.6,0.4-13.6,4-19.9l0.5,0.3C58.1,90,57.8,103.4,57.8,103.5z"/>
				<path class="st43" d="M35.6,96.1H35c0-0.5,0.1-12.6,6-18.8l0.4,0.4C35.7,83.8,35.6,96,35.6,96.1z"/>
				<polygon class="st59" points="56.5,121.8 58.3,121.8 58.5,123.7 57.1,123.4 				"/>
				<polygon class="st59" points="26.8,116.1 27.3,114.8 28,115.5 28,116.5 				"/>
				<path class="st60" d="M29.7,157.3c0,0,5,2.9,9.8,1.8c4.8-1,13.2-8,13.2-8l0.5,1.4c0,0-6.6,8.1-13.7,9.7
					c-7.1,1.6-9.9-2.7-9.9-2.7L29.7,157.3z"/>
			</g>
			<g>
				<path class="st17" d="M50.8,126.7c0,0-1.3,10.6,15.5,31.7c0.8-0.3,1.1-0.8,1.1-0.8s-4.9-5.1-5.6-14.6
					c-0.7-9.1-1.8-13.8-1.8-13.8L50.8,126.7z"/>
				<path class="st61" d="M66.2,279.4v10.8c0,0-2.6,0-2.9-3c-0.3-3,1.3-9.2,1.3-9.2S65.9,278,66.2,279.4z"/>
				<path class="st17" d="M64.7,278c0,0-0.7,5.8,0.3,6.1c1,0.3,1.2-4.6,1.2-4.6L64.7,278z"/>
				<linearGradient id="SVGID_22_" gradientUnits="userSpaceOnUse" x1="83.4008" y1="178.6713" x2="68.48" y2="252.0317">
					<stop  offset="0" style="stop-color:#DBBE9E"/>
					<stop  offset="1" style="stop-color:#C29E76"/>
				</linearGradient>
				<path class="st62" d="M91.7,172.9c0,0-7.2,39.1-11,53.9c-3.8,14.8-14.5,52.6-14.5,52.6s-0.2,1.4-0.8,1.3
					c-0.5-0.1-0.8-2.8-0.8-2.8s2.9-36.1,6.5-47c2-23,3.9-51.2,5.3-54.1C77.7,174,91.7,172.9,91.7,172.9z"/>
				<path class="st63" d="M64.1,161.7c0,0-2.2,1.7-2.8,2.6c-1.1,5.5-2,29,4,60.9c0.9,5.1-2,16.4,0.4,30.4c2.4,14,9.3,33.2,9.3,33.2
					l1.4-0.8c0,0-2.5-46.6-1.8-64.1c0.7-17.5,3.8-47.9,3.8-47.9L64.1,161.7z"/>
				<polygon class="st64" points="63.1,176.7 68.7,166.3 69.6,167.9 63.1,181.3 				"/>
				<path class="st64" d="M74.7,288.9c-0.1-0.3-7.7-33.8-8.3-39.5c-0.5-4.6-0.5-11.2-0.4-18.1c0-1.7,0-3.5,0-5.2
					c-2.5-13-3.5-55.8-3.5-59.2l0-0.1c0.1-0.2,0.6-0.8,3-2.9c0.2-0.2,0.4-0.3,0.4-0.4l0.4,0.4c0,0-0.2,0.2-0.4,0.4
					c-0.6,0.6-2.5,2.3-2.8,2.7c0,3.9,1,46.1,3.5,59c0,1.8,0,3.6,0,5.3c0,6.9-0.1,13.5,0.4,18.1c0.6,5.6,8.2,39.1,8.3,39.4
					L74.7,288.9z"/>
				<path class="st65" d="M60.6,113V81.2c0,0,3.1-22.3,22.2-18.5c0,0,2.4,1.9,2.4,4.7c4.5,1.4,9.4,7.5,10.3,11.8
					c1.3,6,0,34.2,0,34.2S74.2,115.5,60.6,113z"/>
				<g>
					<path class="st66" d="M77.6,62.3c-1.2,4.6-5.3,17.8-14.7,21.5c-0.8-0.9-1.4-1.8-2-2.7c7.6-3.7,9.8-12.9,10.5-17.2
						c-0.2,0.1-0.5,0.3-0.7,0.4C70,68.7,67.7,77,60.7,80.5c-0.1,0.5-0.1,0.7-0.1,0.7v0.7c0.9,1.3,2,2.7,3.3,4l0.5,27.6
						c0.2,0,0.4,0,0.7,0.1l-0.5-27.1c0.9,0.8,2,1.5,3.2,2l0.3-0.6c-1.9-0.9-3.4-2.2-4.7-3.6c9.7-4.1,13.8-17.6,14.9-22.1
						C78,62.3,77.8,62.3,77.6,62.3z"/>
					<path class="st66" d="M93.1,86.7c0.9,4.1,0.3,20.9,0.1,26.8c0.2,0,0.5,0,0.7-0.1c0.2-6,0.8-22.7-0.1-26.9L93.1,86.7z"/>
					<path class="st66" d="M86.1,96.7l-0.7,0.1l1.9,17.2c0.2,0,0.4,0,0.7,0L86.1,96.7z"/>
					<path class="st66" d="M74.2,114.2c0.2,0,0.4,0,0.7,0l0.6-15.5l-0.7,0L74.2,114.2z"/>
				</g>
				<path class="st67" d="M77.6,111.8c0,0,9.7-2.3,13.8-7.5c3.4,5.3,11.6,21.6,10,24.3c-1,1.8-1.5,3.1-1.5,3.1s-8.1,24.7-8.4,25.8
					c0.1,2.2,0.1,17.6,0.1,17.6s-7.9,7.2-16.4,4c-8.5-3.2-11.7-17.3-11.7-17.3s13.5-8.5,14.1-10.1c0.8-2.3,1.9-14.2,0.9-16.5
					c-2.3-1.8-3.1-3.4-2.4-9.9C76.7,118.9,77.6,111.8,77.6,111.8z"/>
				<linearGradient id="SVGID_23_" gradientUnits="userSpaceOnUse" x1="104.4388" y1="102.5379" x2="118.556" y2="96.195">
					<stop  offset="0" style="stop-color:#FFD500"/>
					<stop  offset="1" style="stop-color:#E8AA00"/>
				</linearGradient>
				<path class="st68" d="M91.5,104.2c0,0,2-3.5,3.9-4.7c3.2-0.9,19.9-8.8,22-8.1c2.1,0.7,3.9,5.5,0.8,8.1
					c-3.1,2.5-14.1,6-21.6,13.5C92.7,108.7,91.5,104.2,91.5,104.2z"/>
				<path class="st67" d="M80,111.1c0,0-4.8-1.1-10.7,2.6c-5.9,3.7-16.2,9.7-16.2,9.7l-2,0.6v1.6l-1,0.9c0,0,7.2,3.5,10.6,3.4
					c-0.2-1.1-0.4-2.2-0.4-2.2l1.7-0.1c0,0,8.5-5.2,14.5-6C78.6,116.7,80,111.1,80,111.1z"/>
				<g>
					<path class="st69" d="M91.4,127.4c-1.1-1.7-2.4,0-2.4,0s-1.2-1.6-2.5,0c-1.3,1.6,3,2.9,3,2.9S92.5,129.1,91.4,127.4z"/>
					<path class="st69" d="M91.6,104c-0.1,0.1-0.1,0.2-0.1,0.2c-0.7,0.8-1.5,1.6-2.3,2.3c0.2,0.1,0.3,0.1,0.3,0.1
						S92.1,105.5,91.6,104z"/>
					<path class="st69" d="M91.4,133.4c-1.1-1.7-2.4,0-2.4,0s-1.2-1.6-2.5,0c-1.3,1.6,3,2.9,3,2.9S92.5,135.1,91.4,133.4z"/>
					<path class="st69" d="M89,151.2c0,0-1.2-1.6-2.5,0c-1.3,1.6,3,2.9,3,2.9s3-1.2,2-2.9C90.3,149.5,89,151.2,89,151.2z"/>
					<path class="st69" d="M91.4,145.2c-1.1-1.7-2.4,0-2.4,0s-1.2-1.6-2.5,0c-1.3,1.6,3,2.9,3,2.9S92.5,146.9,91.4,145.2z"/>
					<path class="st69" d="M91.4,139.3c-1.1-1.7-2.4,0-2.4,0s-1.2-1.6-2.5,0c-1.3,1.6,3,2.9,3,2.9S92.5,141,91.4,139.3z"/>
					<path class="st69" d="M91.4,115.5c-1.1-1.7-2.4,0-2.4,0s-1.2-1.6-2.5,0c-1.3,1.6,3,2.9,3,2.9S92.5,117.2,91.4,115.5z"/>
					<path class="st69" d="M91.4,121.5c-1.1-1.7-2.4,0-2.4,0s-1.2-1.6-2.5,0c-1.3,1.6,3,2.9,3,2.9S92.5,123.2,91.4,121.5z"/>
					<path class="st69" d="M84.5,149.3c-1.1-1.7-2.4,0-2.4,0s-1.2-1.6-2.5,0c-1.3,1.6,3,2.9,3,2.9S85.5,151,84.5,149.3z"/>
					<path class="st69" d="M84.5,143.4c-1.1-1.7-2.4,0-2.4,0s-1.2-1.6-2.5,0c-1.3,1.6,3,2.9,3,2.9S85.5,145.1,84.5,143.4z"/>
					<path class="st69" d="M84.5,155.3c-1.1-1.7-2.4,0-2.4,0s-1.2-1.6-2.5,0c-1.3,1.6,3,2.9,3,2.9S85.5,157,84.5,155.3z"/>
					<path class="st69" d="M84.5,167.1c-1.1-1.7-2.4,0-2.4,0s-1.2-1.6-2.5,0c-1.3,1.6,3,2.9,3,2.9S85.5,168.8,84.5,167.1z"/>
					<path class="st69" d="M91.4,109.6c-1.1-1.7-2.4,0-2.4,0s-1.2-1.6-2.5,0c-1.3,1.6,3,2.9,3,2.9S92.5,111.3,91.4,109.6z"/>
					<path class="st69" d="M84.5,161.2c-1.1-1.7-2.4,0-2.4,0s-1.2-1.6-2.5,0c-1.3,1.6,3,2.9,3,2.9S85.5,162.9,84.5,161.2z"/>
					<path class="st69" d="M82,173.1c0,0-1.2-1.6-2.5,0c-1.3,1.6,3,2.9,3,2.9s3-1.2,2-2.9C83.4,171.4,82,173.1,82,173.1z"/>
					<path class="st69" d="M101.7,126.9c-0.2,0.1-0.4,0.3-0.7,0.6c-0.5,0.6-0.2,1.1,0.3,1.6c0.1-0.2,0.2-0.3,0.3-0.5
						C101.7,128.2,101.7,127.6,101.7,126.9z"/>
					<path class="st69" d="M67.5,161.2c0,0-1.2-1.6-2.5,0c-1.3,1.6,3,2.9,3,2.9s3-1.2,2-2.9C68.9,159.5,67.5,161.2,67.5,161.2z"/>
					<path class="st69" d="M55.5,125.6c-1.1-1.7-2.4,0-2.4,0s-0.8-1.2-1.9-0.5v0.5l-0.8,0.7c0,0.1,0,0.2,0.1,0.3
						c0.6,0.3,2.1,1,3.8,1.6C55,127.7,56.3,126.7,55.5,125.6z"/>
					<path class="st69" d="M118.4,94.8c0,0,0.6-0.2,1.1-0.6c-0.3-1-0.9-1.9-1.6-2.3c0,0,0,0,0,0s0,0-0.1-0.1
						c-0.2-0.1-0.3-0.2-0.5-0.2c-0.3-0.1-1,0-1.9,0.2c0,0,0,0-0.1,0.1C114.1,93.4,118.4,94.8,118.4,94.8z"/>
					<path class="st69" d="M84.5,137.5c-1.1-1.7-2.4,0-2.4,0s-1.2-1.6-2.5,0c-1.3,1.6,3,2.9,3,2.9S85.5,139.2,84.5,137.5z"/>
					<path class="st69" d="M76.9,174.9c-1.1-1.7-2.4,0-2.4,0s-1.2-1.6-2.5,0c-1.3,1.6,3,2.9,3,2.9S78,176.6,76.9,174.9z"/>
					<path class="st69" d="M111,95.9c0,0-1.2-1.6-2.5,0c-1.3,1.6,3,2.9,3,2.9s3-1.2,2-2.9C112.4,94.2,111,95.9,111,95.9z"/>
					<path class="st69" d="M70,173.1c-0.6-1-1.4-0.8-1.9-0.5c0.5,0.8,1.1,1.5,1.6,2.3C70.2,174.3,70.4,173.7,70,173.1z"/>
					<path class="st69" d="M94,143.4c-0.8,0.9,0.3,1.7,1.4,2.3c0.3-0.9,0.6-1.7,0.8-2.6C95.8,142.7,95,142.3,94,143.4z"/>
					<path class="st69" d="M96.5,107.8c0,0-1.2-1.6-2.5,0c-1.3,1.6,3,2.9,3,2.9s3-1.2,2-2.9C97.9,106.1,96.5,107.8,96.5,107.8z"/>
					<path class="st69" d="M98.9,125.6c-1.1-1.7-2.4,0-2.4,0s-1.2-1.6-2.5,0c-1.3,1.6,3,2.9,3,2.9S100,127.3,98.9,125.6z"/>
					<path class="st69" d="M96.5,131.5c0,0-1.2-1.6-2.5,0c-1.3,1.6,3,2.9,3,2.9s3-1.2,2-2.9C97.9,129.8,96.5,131.5,96.5,131.5z"/>
					<path class="st69" d="M103.5,103.7c0,0-1.2-1.6-2.5,0c-1.3,1.6,3,2.9,3,2.9s3-1.3,2-2.9C104.8,102,103.5,103.7,103.5,103.7z"/>
					<path class="st69" d="M98.9,101.8c-1.1-1.7-2.4,0-2.4,0s-1.2-1.6-2.5,0c-1.3,1.6,3,2.9,3,2.9S100,103.5,98.9,101.8z"/>
					<path class="st69" d="M105.9,97.7c-1.1-1.7-2.4,0-2.4,0s-1.2-1.6-2.5,0c-1.3,1.6,3,2.9,3,2.9S107,99.4,105.9,97.7z"/>
					<path class="st69" d="M70,167.1c-1.1-1.7-2.4,0-2.4,0s-1.1-1.5-2.3-0.2c0.3,0.8,0.7,1.6,1.1,2.4c0.8,0.4,1.7,0.7,1.7,0.7
						S71.1,168.8,70,167.1z"/>
					<path class="st69" d="M84.5,179.1C84.5,179,84.5,179,84.5,179.1c-1.1-1.8-2.5-0.1-2.5-0.1s-1.2-1.6-2.5,0
						c-0.2,0.3-0.3,0.6-0.2,0.8C81.2,179.9,82.9,179.6,84.5,179.1z"/>
					<path class="st69" d="M60,121.5c0,0-1.2-1.6-2.5,0c-1.3,1.6,3,2.9,3,2.9s3-1.2,2-2.9C61.4,119.8,60,121.5,60,121.5z"/>
					<path class="st69" d="M89.5,171.9c0,0,3-1.2,2-2.9c-1.1-1.7-2.4,0-2.4,0s-1.2-1.6-2.5,0C85.2,170.6,89.5,171.9,89.5,171.9z"/>
					<path class="st69" d="M60,127.4c0,0-1.2-1.6-2.5,0c-0.7,0.8,0.1,1.6,1.1,2.1c0.8,0.2,1.6,0.3,2.2,0.3c-0.2-1.1-0.4-2.2-0.4-2.2
						l1.7-0.1c0,0,0.1-0.1,0.3-0.2C61.3,125.9,60,127.4,60,127.4z"/>
					<path class="st69" d="M89,163c0,0-1.2-1.6-2.5,0c-1.3,1.6,3,2.9,3,2.9s3-1.2,2-2.9C90.3,161.4,89,163,89,163z"/>
					<path class="st69" d="M77.1,152.3c-0.5,0.5-1.2,1.1-2.2,1.8c0,0,0,0,0,0S76.7,153.4,77.1,152.3z"/>
					<path class="st69" d="M65.1,125.6c-0.1,0.1-0.2,0.2-0.2,0.3c0.6-0.3,1.2-0.6,1.9-1C66.3,124.8,65.7,124.8,65.1,125.6z"/>
					<path class="st69" d="M91.4,174.9c-1.1-1.7-2.4,0-2.4,0s-1.2-1.6-2.5,0c-0.9,1,0.6,2,1.8,2.5c1.7-1,2.9-1.9,3.3-2.3
						C91.5,175.1,91.5,175,91.4,174.9z"/>
					<path class="st69" d="M96.5,113.7c0,0-1.2-1.6-2.5,0c-1.3,1.6,3,2.9,3,2.9s0.4-0.2,0.8-0.4C97.4,115.3,97,114.5,96.5,113.7
						C96.5,113.7,96.5,113.7,96.5,113.7z"/>
					<path class="st69" d="M91.4,157.1c-1.1-1.7-2.4,0-2.4,0s-1.2-1.6-2.5,0c-1.3,1.6,3,2.9,3,2.9s1.9-0.8,2.2-1.9
						c0-0.3,0-0.5,0-0.7C91.5,157.3,91.5,157.2,91.4,157.1z"/>
					<path class="st69" d="M119.7,97.1c-0.9-0.4-1.8,0.7-1.8,0.7s-1.2-1.6-2.5,0c-0.9,1,0.6,2,1.8,2.5c0.4-0.2,0.7-0.4,0.9-0.6
						C119,98.9,119.5,98,119.7,97.1z"/>
					<path class="st69" d="M113.4,101.8c-1.1-1.7-2.4,0-2.4,0s-1.2-1.6-2.5,0c-0.7,0.9,0.3,1.7,1.3,2.3c1.4-0.7,2.6-1.3,3.8-1.9
						C113.6,102.1,113.5,102,113.4,101.8z"/>
					<path class="st69" d="M94,149.3c-0.3,0.4-0.3,0.7-0.1,1c0.1-0.4,0.3-0.9,0.4-1.3C94.2,149.1,94.1,149.2,94,149.3z"/>
					<path class="st69" d="M96.5,137.5c0,0-1.2-1.6-2.5,0c-1.3,1.6,3,2.9,3,2.9s0.1,0,0.2-0.1c0.4-1.2,0.8-2.4,1.1-3.5
						C97.4,136.4,96.5,137.5,96.5,137.5z"/>
					<path class="st69" d="M96.5,119.6c0,0-1.2-1.6-2.5,0c-1.3,1.6,3,2.9,3,2.9s3-1.2,2-2.9C97.9,117.9,96.5,119.6,96.5,119.6z"/>
					<path class="st69" d="M84.5,113.7c-1.1-1.7-2.4,0-2.4,0s-1.2-1.6-2.5,0c-1.3,1.6,3,2.9,3,2.9S85.5,115.4,84.5,113.7z"/>
					<path class="st69" d="M82.5,110.7c0,0,1.3-0.5,1.9-1.3c-0.9,0.4-1.8,0.8-2.6,1.1C82.2,110.6,82.5,110.7,82.5,110.7z"/>
					<path class="st69" d="M76.9,163c-1.1-1.7-2.4,0-2.4,0s-1.2-1.6-2.5,0c-1.3,1.6,3,2.9,3,2.9S78,164.7,76.9,163z"/>
					<path class="st69" d="M76.9,157.1c-1.1-1.7-2.4,0-2.4,0s-1.2-1.6-2.5,0c-1.3,1.6,3,2.9,3,2.9S78,158.8,76.9,157.1z"/>
					<path class="st69" d="M74.5,169c0,0-1.2-1.6-2.5,0c-1.3,1.6,3,2.9,3,2.9s3-1.2,2-2.9C75.9,167.3,74.5,169,74.5,169z"/>
					<path class="st69" d="M84.5,131.5c-1.1-1.7-2.4,0-2.4,0s-1.2-1.6-2.5,0c-1.3,1.6,3,2.9,3,2.9S85.5,133.2,84.5,131.5z"/>
					<path class="st69" d="M84.5,125.6c-1.1-1.7-2.4,0-2.4,0s-1.2-1.6-2.5,0c-1.3,1.6,3,2.9,3,2.9S85.5,127.3,84.5,125.6z"/>
					<path class="st69" d="M84.5,119.6c-1.1-1.7-2.4,0-2.4,0s-1.2-1.6-2.5,0c-1.3,1.6,3,2.9,3,2.9S85.5,121.3,84.5,119.6z"/>
					<path class="st69" d="M70,119.6c-1.1-1.7-2.4,0-2.4,0s-1.2-1.6-2.5,0c-1.3,1.6,3,2.9,3,2.9S71.1,121.3,70,119.6z"/>
					<path class="st69" d="M75,118.5c0,0,3-1.2,2-2.9c-1.1-1.7-2.4,0-2.4,0s-1.2-1.6-2.5,0C70.7,117.2,75,118.5,75,118.5z"/>
					<path class="st69" d="M76.5,132.9c0.2,0.4,0.4,0.7,0.6,1c0-0.2-0.1-0.3-0.2-0.5C76.8,133.2,76.7,133,76.5,132.9z"/>
					<path class="st69" d="M70,113.7c-0.1-0.1-0.1-0.2-0.2-0.3c-0.1,0.1-0.3,0.2-0.4,0.3c-1,0.6-2.2,1.3-3.4,2.1
						c0.9,0.6,2.1,0.9,2.1,0.9S71.1,115.4,70,113.7z"/>
					<path class="st69" d="M77,111c-1.1,0.1-2.3,0.3-3.8,0.8c0.9,0.5,1.8,0.8,1.8,0.8S76.5,111.9,77,111z"/>
					<path class="st69" d="M76.9,127.4c-0.3-0.5-0.7-0.7-1-0.7c-0.1,1.3-0.1,2.3-0.1,3.2C76.7,129.4,77.6,128.5,76.9,127.4z"/>
					<path class="st69" d="M76.5,121.5c-0.1,0.7-0.2,1.4-0.2,2.1c0.7-0.5,1.3-1.3,0.7-2.2c-1.1-1.7-2.4,0-2.4,0s-1.2-1.6-2.5,0
						c-0.4,0.4-0.3,0.8,0,1.2C73.5,122.1,75.1,121.7,76.5,121.5L76.5,121.5z"/>
				</g>
				<path class="st70" d="M80.4,110.9c0,0,3.7,9.3,7.3,8.2c5.2-1.5,1.7-12.8,1.7-12.8s-2.4,1.9-4.6,2.9
					C82.6,110.2,80.4,110.9,80.4,110.9z"/>
				<linearGradient id="SVGID_24_" gradientUnits="userSpaceOnUse" x1="117.8871" y1="108.7123" x2="117.478" y2="98.8917">
					<stop  offset="0" style="stop-color:#F5BA89"/>
					<stop  offset="1" style="stop-color:#FFCA9E"/>
				</linearGradient>
				<path class="st71" d="M122,112.3c0-0.5-2.2-9-2.2-9s0,0,0,0c0.2-0.4,2.9-7.1,1.7-9.6c-1.2-2.5-4.2-2.2-4.2-2.2s-2.9,1.7-4,4.2
					c-1.1,2.5,1.8,5.7,1.8,5.7l2.5,2.6c0,0-1.8,4.7-2.5,5.8c-0.7,1.1-1.6,5.8-1.6,5.8s0.8-0.1,1.5-1.6c0.1,1.2,0.2,2.9,0.5,4.4
					c0.4,2.1,1,3.9,1.1,4.3c0.3-0.1,0.7-0.3,0.7-1.2c0-0.4-0.3-1.7-0.4-3.2c-0.1-1.7-0.1-3.5,0-3.7c0.2-0.3,1,9.2,1,9.2
					s1.1-0.4,1-1.9c-0.1-1.4-0.4-7.1-0.1-7.3c0.2-0.3,0.8,7.3,0.8,7.3s0.9-0.5,0.9-1.4c0-1-0.2-6.3-0.1-6.8c0.1-0.2,0.5,5.7,0.5,5.7
					s0.9,0,0.9-2.2C121.8,114.6,122,112.7,122,112.3z"/>
				<path class="st17" d="M67.4,157.6c0,0,4.6-3.5,5.6-2.6c0.4,0.4,0.4,1.3,0.4,1.3l-4.1,2.9c0,0-1.2-0.2-1.9,0.2
					c-0.7,0.4-1.1-0.9-1.1-0.9L67.4,157.6z"/>
				<path class="st17" d="M73.1,155c0,0,3.5,2.5,4.6,3.4c-0.8,0.5-3.5-0.4-5.1-2C72.4,155.6,73.1,155,73.1,155z"/>
				<path class="st17" d="M71.9,155.7c0,0,3.9,2.9,5.2,4c-0.9,0.6-3.9-0.8-5.7-2.6C71.1,156.2,71.9,155.7,71.9,155.7z"/>
				<path class="st17" d="M70.5,156.7c0,0,3.4,2.3,4.4,3.2c-0.8,0.5-3.4-0.5-4.9-1.9C69.9,157.3,70.5,156.7,70.5,156.7z"/>
				<path class="st17" d="M69.1,157.3c0,0,2.8,2.1,3.7,3c-0.6,0.4-2.8-0.4-4.1-1.7C68.6,157.8,69.1,157.3,69.1,157.3z"/>
				<linearGradient id="SVGID_25_" gradientUnits="userSpaceOnUse" x1="84.9805" y1="108.5938" x2="84.5202" y2="95.552">
					<stop  offset="0" style="stop-color:#F5BA89"/>
					<stop  offset="1" style="stop-color:#F5A25D"/>
				</linearGradient>
				<path class="st72" d="M81.1,110.7c0,0,2.4,5.6,5.9,4.4c3.8-1.3,1.9-8.4,1.9-8.4l-2.9-13.5l-5.6,2.3L81.1,110.7z"/>
				<path class="st61" d="M75,288.8l1.4-0.8c0,0,10.7,0.6,11.2,0.9c1.1,0.5,0.9,1.3,0.9,1.3H74.7L75,288.8z"/>
				<path class="st17" d="M63.3,84.6c0,0,0.7,8.6,5.6,12.6c4.8,4,11.2,6.8,18.4,2.7c7.2-4.2,9.9-14.5,6.4-21.5
					c-3.5-7.1-13-13.7-21.9-9C62.9,74.2,63.1,79.6,63.3,84.6z"/>
				<path class="st73" d="M74.1,77.2c0,0,0.3-1.3,0.3-1.7c-2.1,0.2-7.3,1.8-8.7,5.1C67.1,79.4,70.3,77.1,74.1,77.2z"/>
				<linearGradient id="SVGID_26_" gradientUnits="userSpaceOnUse" x1="80.7381" y1="92.1261" x2="83.6183" y2="87.1413">
					<stop  offset="0" style="stop-color:#F5BA89"/>
					<stop  offset="1" style="stop-color:#F58E5B"/>
				</linearGradient>
				<path class="st74" d="M80.1,88.9l3.1-1.9c0,0,2.8,2.3,0.2,4.3c-2.7,2-4.1,1-4.1,1L80.1,88.9z"/>
				<path class="st25" d="M82.3,83.4c0,0,1-4.3,2.2-4.8c1.2-0.5,4.4-0.6,5.7,0.7c0.3,1.3-1.3,2.9-3.2,4.2c-1.9,1.3-3.9,1.5-3.9,1.5
					L82.3,83.4z"/>
				<path class="st25" d="M76.2,88.2v-1.8c0,0-2.5-2.9-4.6-1.9c-2,1-3.7,4.4-3.7,4.9c0,0.4,0.8,1,1.3,1
					C69.8,90.4,73.1,88.9,76.2,88.2z"/>
				<path class="st21" d="M78.7,78.2c-0.1,0.9-0.2,1.9-0.2,2.8c0,0.5,0,0.9,0,1.4c0,0.5,0,0.9,0.1,1.4c0,0.2,0,0.5,0.1,0.7
					c0,0.2,0.1,0.5,0.1,0.7l0.1,0.7l0.2,0.7c0.1,0.2,0.2,0.4,0.3,0.6c0.1,0.2,0.2,0.4,0.3,0.6c0.1,0.2,0.2,0.4,0.4,0.6l0.4,0.5
					l-0.4,0c0.5-0.4,0.9-0.8,1.5-1.1c0.3-0.2,0.5-0.3,0.8-0.5c0.3-0.2,0.5-0.3,0.8-0.4l0.2-0.1l0.1,0.1c0.4,0.5,0.7,1.1,0.9,1.6
					c0.1,0.3,0.2,0.6,0.2,0.9c0,0.2,0,0.3,0,0.5c0,0.2,0,0.3,0,0.5c0-0.2,0-0.3-0.1-0.5c0-0.1-0.1-0.3-0.1-0.4
					c-0.1-0.3-0.2-0.6-0.3-0.8c-0.3-0.5-0.6-1-1-1.5l0.3,0.1c-0.2,0.1-0.5,0.3-0.7,0.4c-0.2,0.2-0.5,0.3-0.7,0.5
					c-0.5,0.3-0.9,0.7-1.4,1.1l-0.2,0.2L80,89.3l-0.5-0.6c-0.2-0.2-0.3-0.4-0.4-0.6c-0.1-0.2-0.2-0.4-0.3-0.7
					c-0.1-0.2-0.2-0.5-0.3-0.7L78.3,86l-0.1-0.7c-0.1-0.2-0.1-0.5-0.1-0.7c0-0.2-0.1-0.5-0.1-0.7c0-0.5,0-1,0-1.4
					c0-0.5,0.1-1,0.1-1.4c0-0.5,0.1-0.9,0.2-1.4C78.5,79.1,78.6,78.7,78.7,78.2z"/>
				<g>
					<defs>
						<path id="SVGID_27_" d="M76.2,88.2v-1.8c0,0-2.5-2.9-4.6-1.9c-2,1-3.7,4.4-3.7,4.9c0,0.4,0.8,1,1.3,1
							C69.8,90.4,73.1,88.9,76.2,88.2z"/>
					</defs>
					<clipPath id="SVGID_28_">
						<use xlink:href="#SVGID_27_"  style="overflow:visible;"/>
					</clipPath>
					<linearGradient id="SVGID_29_" gradientUnits="userSpaceOnUse" x1="71.5728" y1="84.5899" x2="73.2896" y2="88.8545">
						<stop  offset="0" style="stop-color:#5C3008"/>
						<stop  offset="1" style="stop-color:#7D410B"/>
					</linearGradient>
					<circle class="st75" cx="72.7" cy="87.3" r="2.8"/>
				</g>
				<g>
					<defs>
						<path id="SVGID_30_" d="M82.3,83.4c0,0,1-4.3,2.2-4.8c1.2-0.5,4.4-0.6,5.7,0.7c0.3,1.3-1.3,2.9-3.2,4.2
							c-1.9,1.3-3.9,1.5-3.9,1.5L82.3,83.4z"/>
					</defs>
					<clipPath id="SVGID_31_">
						<use xlink:href="#SVGID_30_"  style="overflow:visible;"/>
					</clipPath>
					<linearGradient id="SVGID_32_" gradientUnits="userSpaceOnUse" x1="84.8716" y1="79.2845" x2="86.5887" y2="83.5497">
						<stop  offset="0" style="stop-color:#5C3008"/>
						<stop  offset="1" style="stop-color:#7D410B"/>
					</linearGradient>
					<circle class="st76" cx="85.9" cy="81.8" r="2.8"/>
				</g>
				<path class="st77" d="M74.6,93.9c0,0,4,2,8,0.8c4-1.2,5.5-3.7,5.5-3.7S86,95.5,83,96.6C80.1,97.6,74.6,93.9,74.6,93.9z"/>
				<path class="st78" d="M74.3,94.6c0,0-0.4-0.9,0.8-1.4C74.9,93.9,74.3,94.6,74.3,94.6z"/>
				<path class="st78" d="M88.6,91.6l-1.4-1C87.2,90.6,88.2,90.2,88.6,91.6z"/>
				<path class="st17" d="M93.4,77.9c0,0,0.8-2.6,2.9-2c2.3,0.7,3.2,6.7-1.4,8.4C93.9,80.5,93.4,77.9,93.4,77.9z"/>
				<path class="st65" d="M83.1,66.2c0,0-4.5,11.1-17.2,20.4c0,5.5-3.4,6.4-3.4,6.4L62,81.8c0,0,0.9-6.4,3.8-9
					C68.6,70.2,75.6,63.3,83.1,66.2z"/>
				<path class="st79" d="M68,89.4c0,0,0-0.2,0-0.5c0-0.3,0.1-0.8,0.3-1.4c0.2-0.6,0.4-1.2,0.8-1.9c0.2-0.3,0.4-0.7,0.7-1
					c0.3-0.3,0.6-0.6,1-0.8c0.2-0.1,0.4-0.2,0.7-0.3l0.2-0.1l0.1,0l0,0l0,0l0,0l0.1,0l0.3,0c0.2,0,0.4,0,0.7,0
					c0.2,0,0.4,0.1,0.6,0.1c0.8,0.3,1.4,0.8,1.8,1.2c0.2,0.2,0.4,0.5,0.5,0.7c0.1,0.2,0.2,0.4,0.3,0.5c0.1,0.3,0.2,0.5,0.2,0.5
					s-0.1-0.1-0.4-0.3c-0.3-0.2-0.6-0.5-1.1-0.8c-0.2-0.1-0.5-0.3-0.8-0.4c-0.3-0.1-0.6-0.2-0.8-0.3c-0.1,0-0.3,0-0.4,0
					c-0.1,0-0.2,0-0.4,0l-0.3,0h0c0.1,0,0,0,0,0l0,0l0,0l0,0l0,0l-0.1,0c-0.1,0-0.3,0.1-0.4,0.2c-0.3,0.1-0.5,0.4-0.7,0.6
					c-0.1,0.1-0.2,0.2-0.3,0.4c-0.1,0.1-0.2,0.3-0.3,0.4c-0.2,0.3-0.4,0.5-0.6,0.8c-0.2,0.3-0.3,0.5-0.5,0.7
					C68.4,88.7,68,89.4,68,89.4z"/>
				<path class="st79" d="M82.3,83.4c0,0-0.1-0.7,0.1-1.8c0-0.3,0.1-0.6,0.2-0.9c0.1-0.3,0.2-0.6,0.3-1c0.1-0.3,0.3-0.7,0.6-1
					c0.1-0.1,0.1-0.2,0.2-0.3c0.1-0.1,0.1-0.2,0.3-0.2c0.1-0.1,0.2-0.1,0.4-0.2l0.2-0.1c0.5-0.2,0.8-0.2,1.2-0.3c0.4,0,0.8,0,1.1,0
					c0.4,0,0.7,0.1,1,0.2c0.3,0.1,0.6,0.2,0.9,0.3c0.3,0.1,0.5,0.2,0.7,0.4c0.2,0.1,0.4,0.3,0.5,0.4c0.2,0.2,0.3,0.4,0.3,0.4
					c0,0,0,0-0.1-0.1c-0.1,0-0.2-0.1-0.3-0.1c-0.1-0.1-0.3-0.1-0.5-0.1c-0.2,0-0.4-0.1-0.7-0.1c-0.5,0-1.1-0.1-1.7,0
					c-0.3,0-0.6,0-0.9,0.1c-0.3,0.1-0.6,0.1-0.8,0.2l-0.2,0.1c0,0-0.1,0-0.1,0.1c-0.1,0.1-0.2,0.1-0.3,0.3c-0.2,0.2-0.4,0.5-0.5,0.7
					c-0.2,0.3-0.3,0.5-0.4,0.8c-0.1,0.3-0.3,0.5-0.4,0.8c-0.2,0.5-0.4,0.9-0.6,1.2C82.4,83.2,82.3,83.4,82.3,83.4z"/>
				<path class="st73" d="M79.8,78c0,0-1.2-0.6-1.5-0.9c1.6-1.4,6.2-4.2,9.6-3C86.2,74.3,82.3,75.1,79.8,78z"/>
				<path class="st21" d="M95.6,81.4c0.2-0.3,0.3-0.7,0.4-1c0.1-0.3,0.1-0.7,0.1-1c0-0.1,0-0.1-0.1-0.2l0-0.1l0,0l0,0c0,0,0,0,0,0
					l0,0l0,0l-0.1-0.1c0-0.1-0.1-0.1-0.1-0.2c0-0.1-0.1-0.1-0.1-0.1c-0.1-0.1-0.2-0.1-0.4-0.2c-0.1,0-0.1,0-0.2,0
					c-0.1,0-0.2,0-0.2,0l-0.8,0.2l0.4-0.6c0.1-0.1,0.2-0.3,0.3-0.4c0.1-0.1,0.2-0.2,0.3-0.3c0.2-0.2,0.6-0.3,0.9-0.3
					c0.3,0,0.6,0.2,0.8,0.4c0.2,0.2,0.3,0.5,0.4,0.7c-0.2-0.2-0.4-0.4-0.6-0.5c-0.2-0.1-0.4-0.2-0.6-0.2c-0.2,0-0.4,0.1-0.5,0.3
					c-0.1,0.1-0.2,0.2-0.2,0.3c-0.1,0.1-0.1,0.2-0.2,0.3l-0.4-0.5c0.1,0,0.2,0,0.4-0.1c0.1,0,0.2,0,0.3,0c0.2,0,0.5,0.2,0.6,0.3
					c0.1,0.1,0.2,0.2,0.2,0.3c0.1,0.1,0.1,0.2,0.2,0.3l0.1,0.1l0,0l0,0l0,0l0,0.1c0,0.1,0,0.2,0.1,0.3c0,0.2,0,0.4-0.1,0.6
					c0,0.2-0.1,0.4-0.2,0.6C96.1,80.8,95.9,81.1,95.6,81.4z"/>
				<g>
					<path class="st66" d="M76.5,65.9c-2,5.9-6.1,15-13.6,18c-0.3-0.4-0.6-0.7-0.9-1.1l0,1.2c0.6,0.7,1.2,1.4,1.9,2l0.1,6
						c0.2-0.2,0.4-0.5,0.7-0.8l-0.1-4.6c0.4,0.3,0.8,0.6,1.2,0.9c0-0.3,0-0.5,0-0.8c-0.9-0.7-1.7-1.4-2.5-2.2
						c7.9-3.3,12.1-12.8,13.9-18.7C77,65.7,76.8,65.8,76.5,65.9z"/>
					<path class="st66" d="M70.2,69c-0.3,0.2-0.6,0.5-0.9,0.7c-1.2,3.5-3.3,7.3-6.9,9.8c-0.1,0.3-0.2,0.6-0.2,0.9
						C66.7,77.6,69,73,70.2,69z"/>
				</g>
				<path class="st17" d="M64.8,90.9c0,0-3-1-4,0.9c-1.1,2.1,2.8,6.9,7.2,4.6C65.9,93.1,64.8,90.9,64.8,90.9z"/>
				<path class="st21" d="M64.8,94.8c-0.4,0.1-0.8,0.2-1.2,0.1c-0.1,0-0.2-0.1-0.3-0.1c-0.1-0.1-0.2-0.1-0.3-0.2
					c-0.1-0.1-0.1-0.2-0.2-0.3c-0.1-0.1-0.1-0.2-0.1-0.3c0-0.2,0-0.2,0-0.3c0-0.1,0-0.3,0-0.4c0-0.1,0.1-0.2,0.1-0.3
					c0.1-0.1,0.1-0.2,0.2-0.3c0.2-0.2,0.3-0.3,0.5-0.4c0.1-0.1,0.2-0.1,0.3-0.1c0.1,0,0.2-0.1,0.3-0.1l-0.1,0.6
					c-0.2-0.1-0.4-0.2-0.7-0.2c-0.2-0.1-0.5-0.1-0.7-0.1c-0.1,0-0.1,0-0.2,0c-0.1,0-0.1,0-0.2,0c-0.1,0-0.2,0.1-0.3,0.1L62,92.5
					c-0.1,0-0.1,0.1-0.1,0.1c-0.1,0.1-0.1,0.2-0.2,0.3c0-0.1,0-0.3,0.1-0.4c0-0.1,0-0.1,0.1-0.2l0.1-0.2c0.1-0.1,0.2-0.2,0.4-0.3
					c0.1,0,0.1-0.1,0.2-0.1c0.1,0,0.1,0,0.2-0.1c0.3,0,0.6-0.1,0.8,0c0.3,0,0.5,0.1,0.8,0.2l1,0.4l-1,0.3c-0.1,0-0.2,0-0.2,0.1
					c-0.1,0-0.2,0.1-0.2,0.1c-0.1,0.1-0.3,0.2-0.4,0.3c-0.1,0.1-0.1,0.1-0.1,0.2c0,0.1-0.1,0.1-0.1,0.2c0,0.1,0,0.1,0,0.2
					c0,0.1,0,0.2,0,0.2c0,0.1,0,0.2,0,0.2c0,0.1,0,0.1,0.1,0.2c0,0.1,0.1,0.1,0.1,0.2c0.1,0.1,0.1,0.1,0.2,0.1
					C64,94.7,64.4,94.8,64.8,94.8z"/>
				
					<ellipse transform="matrix(0.9692 -0.2461 0.2461 0.9692 -20.3031 20.768)" class="st80" cx="72.9" cy="91.6" rx="4.8" ry="1.3"/>
				
					<ellipse transform="matrix(0.6829 -0.7305 0.7305 0.6829 -32.8669 91.8995)" class="st80" cx="89.4" cy="83.8" rx="4.5" ry="1.3"/>
				<path class="st17" d="M75,288.8c0,0,6.2,0.6,7.3,0c1-0.6-5.9-0.8-5.9-0.8L75,288.8z"/>
				<polygon class="st25" points="74.7,290.2 74.8,289.6 84.7,289.8 88.5,289.6 88.5,290.2 				"/>
				<path class="st25" d="M64.7,278c0,0-1.4,7.6-1.1,9.3c0.4,2.4,2.7,2.7,2.7,2.7v0.3c0,0-2.9,0.4-3-3.2
					C63.1,283.4,64.7,278,64.7,278z"/>
				<path class="st81" d="M76.7,121.7l-0.5-0.3c0,0,0.2-0.4,0.5-1.1l0.6,0.3C77,121.3,76.8,121.7,76.7,121.7z M77.8,119.4l-0.6-0.2
					c0.1-0.4,0.3-0.7,0.4-1.1l0.6,0.2C78.1,118.6,77.9,119,77.8,119.4z M78.5,117l-0.6-0.1c0.1-0.4,0.2-0.8,0.2-1.2l0.6,0.1
					C78.7,116.2,78.6,116.6,78.5,117z M78.9,114.5l-0.6,0c0-0.2,0-0.4,0-0.7c0-0.2,0-0.3,0-0.5l0.6,0c0,0.2,0,0.4,0,0.6
					C78.9,114.1,78.9,114.3,78.9,114.5z M78.1,112.1c-0.1-0.4-0.1-0.7-0.3-1.1l0.6-0.2c0.1,0.4,0.2,0.8,0.3,1.2L78.1,112.1z"/>
				<path class="st81" d="M96.3,113.3c0,0-0.4-0.3-0.9-0.9l0.5-0.4c0.5,0.6,0.8,0.9,0.8,0.9L96.3,113.3z M94.7,111.5
					c-0.2-0.3-0.5-0.6-0.7-1l0.5-0.4c0.2,0.3,0.5,0.7,0.7,1L94.7,111.5z M93.2,109.4c-0.2-0.4-0.4-0.7-0.6-1.1l0.5-0.3
					c0.2,0.4,0.4,0.7,0.6,1L93.2,109.4z M92.1,107.2c-0.2-0.4-0.3-0.8-0.5-1.2l0.6-0.2c0.1,0.4,0.3,0.7,0.4,1.1L92.1,107.2z
					 M91.3,104.8c0-0.2-0.1-0.4-0.1-0.6l0.6-0.1c0,0.2,0.1,0.3,0.1,0.5L91.3,104.8z"/>
			</g>
		</g>
	</g>
	<path class="st82" d="M97.8,50.2c-13,0-25.2,3.2-36,8.8c-0.2-1-0.3-1.8-0.3-1.8c0-0.2,0.3-2.1,0.4-2.1c0.1,0-4.3-5.2-4.3-5.2
		l-2.3-1.2l-0.2-0.8l-6.2-0.3c0,0,0.2,0-0.6-0.3c-2.7,1.6-6.5,9.4-6.6,9.6c-0.1,0.1,0.4,1.8,0.4,1.8l-1.9,4l0.6-0.3L40.4,69
		c-0.6,0-1.5,0.1-1.8,0.5c-0.4,1.2-0.2,6.8-0.1,7c0.2,0.1,0.5,0.2,0.7,0.3c-11.7,13.4-18.9,30.8-19.3,49.8c-1.1,3.3-2,6.9-2.7,10.9
		c0,0,0,0,0,0c-0.2,0.9-0.3,1.9-0.4,2.8c0,0.2,0.1,0.5,0.2,0.7c-0.6,0.3-1,0.5-1,0.5l2.2,4.1h0.7l0,0c0.7,1,1.9,2.7,3.4,4.6
		c-0.2,0.2-0.3,0.4-0.4,0.4l0.4,0.3c0,0,0.1-0.1,0.3-0.3c0.4,0.6,0.9,1.1,1.3,1.7c0,0,0,0,0,0.1c-0.2,0.3-0.3,0.4-0.3,0.5l0.4,0.3
		c0,0,0-0.1,0.1-0.1C34.4,183.9,63.5,206,97.8,206c43,0,77.9-34.9,77.9-77.9C175.7,85.1,140.8,50.2,97.8,50.2z"/>
	<path class="st59" d="M89.4,194.9c-1.8,0-3.2-1.4-3.2-3.2s1.4-3.2,3.2-3.2c1.8,0,3.2,1.4,3.2,3.2S91.2,194.9,89.4,194.9z M89.4,190
		c-0.9,0-1.7,0.7-1.7,1.7c0,0.9,0.7,1.7,1.7,1.7c0.9,0,1.7-0.7,1.7-1.7C91.1,190.7,90.3,190,89.4,190z"/>
	<polygon class="st59" points="17.5,161.4 15.2,161.4 15.2,159.1 13.7,159.1 13.7,161.4 11.4,161.4 11.4,162.9 13.7,162.9 
		13.7,165.2 15.2,165.2 15.2,162.9 17.5,162.9 	"/>
	<polygon class="st59" points="115.1,76 112.8,76 112.8,73.7 111.3,73.7 111.3,76 109,76 109,77.6 111.3,77.6 111.3,79.8 
		112.8,79.8 112.8,77.6 115.1,77.6 	"/>
	<g>
		<path class="st10" d="M21.5,65.5c4.8,6.1,4.1,17.4,3.7,21.6h-3.7h-3.7C17.4,82.9,16.7,71.6,21.5,65.5z M21.5,62.7
			C13.1,70.3,16.2,89,16.2,89h5.3h5.3C26.9,89,30,70.3,21.5,62.7L21.5,62.7z"/>
		<path class="st10" d="M14.9,96.9c0,0-5.9-8.7,1.2-12.3c1.4,3.5,2,4.4,2,4.4s-4.6,0.6-2,7L14.9,96.9z"/>
		<path class="st10" d="M28.2,96.9c0,0,5.9-8.7-1.2-12.3c-1.4,3.5-2,4.4-2,4.4s4.8,0,2,7L28.2,96.9z"/>
		<polygon class="st10" points="24.5,91.1 18.6,91.1 18.1,89 25,89 		"/>
		<path class="st10" d="M19.1,92.4h5.1c0,0,0.8,2,0.8,3.3c0,1.4-1.4,2.4-1.4,2.4s0.7-2.9-0.4-2.9s-0.7,2.7,0,3.5
			c0.7,0.9,0,2.8-0.8,2.8c0,0,0.9-1.8-0.8-2.6c-1.7-0.7-1.6-2.6-0.8-3.7c0.7-1.1-1-1.3-1.3,0c-0.4,1.4,0.1,2,0.1,2s-1.7-0.8-1.6-2.2
			C18,93.8,19.1,92.4,19.1,92.4z"/>
		<circle class="st10" cx="21.5" cy="81.1" r="2.1"/>
		<circle class="st10" cx="21.5" cy="75.3" r="1.2"/>
	</g>
	<path class="st83" d="M72.3,153.5c-0.6,0-1.2,0-1.8,0l0-1.9c0.6,0,1.2,0,1.8,0l0.6,0l0,1.9L72.3,153.5z M75.3,153.4l0-1.9
		c0.9,0,1.7,0,2.4,0l0,1.9C77,153.4,76.2,153.4,75.3,153.4z M68,153.4c-0.8,0-1.6,0-2.4-0.1l0.1-1.9c0.8,0,1.6,0,2.4,0.1L68,153.4z
		 M80.1,153.3l-0.1-1.9c1.5-0.1,2.4-0.1,2.4-0.1l0.1,1.9C82.6,153.2,81.7,153.3,80.1,153.3z M63.2,153.3c-0.8,0-1.6-0.1-2.4-0.1
		l0.1-1.9c0.8,0,1.6,0.1,2.4,0.1L63.2,153.3z M58.4,153c-0.8,0-1.6-0.1-2.4-0.2l0.1-1.9c0.8,0.1,1.6,0.1,2.4,0.2L58.4,153z
		 M53.5,152.7c-0.8-0.1-1.6-0.1-2.4-0.2l0.2-1.9c0.8,0.1,1.6,0.2,2.4,0.2L53.5,152.7z M48.7,152.2c-0.8-0.1-1.6-0.2-2.4-0.3l0.2-1.9
		c0.8,0.1,1.6,0.2,2.4,0.3L48.7,152.2z M43.9,151.6c-0.8-0.1-1.6-0.2-2.4-0.4l0.3-1.9c0.8,0.1,1.6,0.3,2.4,0.4L43.9,151.6z
		 M39.1,150.8c-0.8-0.1-1.6-0.3-2.4-0.5l0.4-1.9c0.8,0.2,1.6,0.3,2.3,0.5L39.1,150.8z M34.4,149.8c-0.8-0.2-1.6-0.4-2.4-0.6l0.5-1.8
		c0.7,0.2,1.5,0.4,2.3,0.6L34.4,149.8z M29.7,148.6c-0.8-0.2-1.6-0.5-2.3-0.7l0.6-1.8c0.7,0.2,1.5,0.5,2.3,0.7L29.7,148.6z M25,147
		c-0.8-0.3-1.5-0.6-2.3-0.9l0.8-1.7c0.7,0.3,1.4,0.6,2.2,0.9L25,147z M20.5,145.1c-0.8-0.4-1.5-0.8-2.2-1.2l1-1.6
		c0.6,0.4,1.3,0.8,2.1,1.1L20.5,145.1z M16.3,142.5c-0.7-0.5-1.4-1-2-1.5l1.2-1.4c0.6,0.5,1.2,1,1.8,1.4L16.3,142.5z M12.5,139.2
		c-0.6-0.6-1.1-1.3-1.6-2l1.6-1c0.4,0.6,0.9,1.2,1.4,1.8L12.5,139.2z M9.7,135c-0.4-0.8-0.6-1.6-0.8-2.4l1.8-0.5
		c0.2,0.7,0.4,1.4,0.7,2.1L9.7,135z M8.5,130.1c0-0.4-0.1-0.9-0.1-1.4c0-0.4,0-0.8,0-1.2l1.9,0.1c0,0.4,0,0.7,0,1.1
		c0,0.4,0,0.8,0.1,1.2L8.5,130.1z M10.6,125.4l-1.9-0.4c0.2-0.8,0.4-1.6,0.6-2.4l1.8,0.6C11,124,10.8,124.7,10.6,125.4z M12,121
		l-1.7-0.7c0.3-0.7,0.7-1.5,1-2.2l1.7,0.8C12.6,119.6,12.3,120.3,12,121z M14.1,116.8l-1.6-0.9c0.4-0.7,0.8-1.4,1.3-2.1l1.6,1
		C14.9,115.5,14.5,116.2,14.1,116.8z M16.7,112.9l-1.5-1.1c0.5-0.6,0.9-1.3,1.5-2l1.5,1.2C17.6,111.6,17.1,112.2,16.7,112.9z
		 M19.6,109.1l-1.5-1.2c0.5-0.6,1-1.2,1.6-1.9l1.4,1.2C20.6,107.9,20,108.5,19.6,109.1z"/>
</g>
</svg>
