<?xml version="1.0" encoding="utf-8"?>
<!-- Generator: Adobe Illustrator 20.0.0, SVG Export Plug-In . SVG Version: 6.00 Build 0)  -->
<svg version="1.1" id="Layer_1" xmlns="http://www.w3.org/2000/svg" xmlns:xlink="http://www.w3.org/1999/xlink" x="0px" y="0px"
	 viewBox="0 0 241.1 222.7" style="enable-background:new 0 0 241.1 222.7;" xml:space="preserve">
<style type="text/css">
	.st0{fill:#D1D3D4;}
	.st1{fill:#6D6E71;}
	.st2{fill:#58595B;}
	.st3{fill:#4F5052;}
	.st4{fill:#FFFFFF;}
	.st5{fill:#FFE766;}
	.st6{fill:#414042;}
	.st7{opacity:0.1;}
	.st8{opacity:0.15;}
	.st9{fill:#BCBEC0;}
	.st10{opacity:0.2;}
</style>
<g>
	<g>
		<g>
			<path id="XMLID_165_" class="st0" d="M27,49.7c2.4,3.4,1.7,8.1-1.7,10.5L18.7,65c-3.4,2.4-8.1,1.7-10.5-1.7
				c-2.4-3.4-1.7-8.1,1.7-10.5l6.6-4.8C19.9,45.6,24.6,46.3,27,49.7z M22.7,56.5c1.3-0.9,1.6-2.8,0.7-4.1c-0.9-1.3-2.8-1.6-4.1-0.7
				l-6.6,4.8c-1.3,0.9-1.6,2.8-0.7,4.1c0.9,1.3,2.8,1.6,4.1,0.7L22.7,56.5z"/>
			<path id="XMLID_1_" class="st0" d="M28.4,143c2.4,3.4,1.7,8.1-1.7,10.5l-6.6,4.8c-3.4,2.4-8.1,1.7-10.5-1.7
				c-2.4-3.4-1.7-8.1,1.7-10.5l6.6-4.8C21.3,138.9,26,139.6,28.4,143z M24.1,149.8c1.3-0.9,1.6-2.8,0.7-4.1s-2.8-1.6-4.1-0.7
				l-6.6,4.8c-1.3,0.9-1.6,2.8-0.7,4.1c0.9,1.3,2.8,1.6,4.1,0.7L24.1,149.8z"/>
			<path id="XMLID_5_" class="st0" d="M231.9,143.6c-1.8,3.7-6.4,5.2-10.1,3.4l-7.3-3.6c-3.7-1.8-5.2-6.4-3.4-10.1
				c1.8-3.7,6.4-5.2,10.1-3.4l7.3,3.6C232.2,135.3,233.7,139.8,231.9,143.6z M223.8,142.9c1.4,0.7,3.2,0.1,3.9-1.3
				c0.7-1.4,0.1-3.2-1.3-3.9l-7.3-3.6c-1.4-0.7-3.2-0.1-3.9,1.3c-0.7,1.4-0.1,3.2,1.3,3.9L223.8,142.9z"/>
			<path id="XMLID_8_" class="st0" d="M233.5,74c-1.8,3.7-6.4,5.2-10.1,3.4l-7.3-3.6c-3.7-1.8-5.2-6.4-3.4-10.1
				c1.8-3.7,6.4-5.2,10.1-3.4l7.3,3.6C233.9,65.8,235.4,70.3,233.5,74z M225.5,73.3c1.4,0.7,3.2,0.1,3.9-1.3
				c0.7-1.4,0.1-3.2-1.3-3.9l-7.3-3.6c-1.4-0.7-3.2-0.1-3.9,1.3c-0.7,1.4-0.1,3.2,1.3,3.9L225.5,73.3z"/>
			<g>
				<rect x="34.7" y="25.3" class="st1" width="172.1" height="172.1"/>
				<polygon class="st2" points="206.7,25.3 221.8,10.3 19.6,10.3 34.7,25.3 				"/>
				<polygon class="st2" points="34.7,197.4 19.6,212.5 221.8,212.5 206.7,197.4 				"/>
				<polygon class="st3" points="206.7,25.3 206.7,197.4 221.8,212.5 221.8,10.3 				"/>
				<polygon class="st3" points="34.7,25.3 19.6,10.3 19.6,212.5 34.7,197.4 				"/>
			</g>
			<g>
				<g>
					<path class="st4" d="M45.2,128.2h-3.7V120c0-3.8-3.1-6.9-6.9-6.9s-6.9,3.1-6.9,6.9v8.2h-3.7V120c0-5.8,4.8-10.6,10.6-10.6
						s10.6,4.8,10.6,10.6V128.2z"/>
					<path class="st5" d="M49,146.3c0,1-0.8,1.8-1.8,1.8H22.1c-1,0-1.8-0.8-1.8-1.8v-18.9c0-1,0.8-1.8,1.8-1.8h25.1
						c1,0,1.8,0.8,1.8,1.8V146.3z"/>
					<path class="st6" d="M39,134.1c0-2.4-1.9-4.3-4.3-4.3s-4.3,1.9-4.3,4.3c0,1.7,0.9,3.1,2.3,3.8v3.5c0,1.1,0.9,2,2,2
						c1.1,0,2-0.9,2-2v-3.5C38,137.1,39,135.7,39,134.1z"/>
					<path class="st7" d="M49,146.3v-18.9c0-1-0.8-1.8-1.8-1.8h-2V120c0-5.8-4.8-10.6-10.6-10.6v3.7c3.8,0,6.9,3.1,6.9,6.9v5.7h-6.9
						v22.4h12.5C48.2,148.1,49,147.3,49,146.3z"/>
				</g>
				<rect x="30.1" y="105.8" class="st4" width="3" height="10.9"/>
				<rect x="36.2" y="105.8" class="st4" width="3" height="10.9"/>
			</g>
			<g>
				<g>
					
						<rect x="96.8" y="112.1" transform="matrix(0.7071 -0.7071 0.7071 0.7071 -56.3266 106.2565)" class="st4" width="6.6" height="18"/>
					
						<rect x="90.9" y="114.6" transform="matrix(0.7071 -0.7071 0.7071 0.7071 -53.8568 100.2941)" class="st7" width="6.6" height="1.1"/>
					
						<rect x="81.2" y="95.2" transform="matrix(0.7071 -0.7071 0.7071 0.7071 -50.3309 91.7817)" class="st4" width="8.9" height="23"/>
					
						<rect x="72.1" y="96.3" transform="matrix(0.7071 -0.7071 0.7071 0.7071 -46.5854 82.7392)" class="st0" width="8.9" height="2.6"/>
				</g>
				<g>
					
						<rect x="97.7" y="152.4" transform="matrix(-0.7071 -0.7071 0.7071 -0.7071 58.3338 346.9539)" class="st4" width="6.6" height="18"/>
					
						<rect x="91.8" y="166.8" transform="matrix(-0.7071 -0.7071 0.7071 -0.7071 43.9377 352.9162)" class="st7" width="6.6" height="1.1"/>
					
						<rect x="82.1" y="164.4" transform="matrix(-0.7071 -0.7071 0.7071 -0.7071 23.3872 361.4285)" class="st4" width="8.9" height="23"/>
					
						<rect x="73.1" y="183.6" transform="matrix(-0.7071 -0.7071 0.7071 -0.7071 1.5575 370.4714)" class="st0" width="8.9" height="2.6"/>
				</g>
				<g>
					
						<rect x="138" y="151.5" transform="matrix(-0.7071 0.7071 -0.7071 -0.7071 354.6821 174.0313)" class="st4" width="6.6" height="18"/>
					
						<rect x="144" y="165.9" transform="matrix(-0.7071 0.7071 -0.7071 -0.7071 369.0771 179.9939)" class="st7" width="6.6" height="1.1"/>
					
						<rect x="151.3" y="163.5" transform="matrix(-0.7071 0.7071 -0.7071 -0.7071 389.6275 188.5062)" class="st4" width="8.9" height="23"/>
					
						<rect x="160.4" y="182.7" transform="matrix(-0.7071 0.7071 -0.7071 -0.7071 411.4581 197.5487)" class="st0" width="8.9" height="2.6"/>
				</g>
				<g>
					
						<rect x="137.1" y="111.2" transform="matrix(0.7071 0.7071 -0.7071 0.7071 126.1073 -64.055)" class="st4" width="6.6" height="18"/>
					
						<rect x="143.1" y="113.7" transform="matrix(0.7071 0.7071 -0.7071 0.7071 123.6376 -70.0176)" class="st7" width="6.6" height="1.1"/>
					
						<rect x="150.4" y="94.2" transform="matrix(0.7071 0.7071 -0.7071 0.7071 120.1116 -78.5299)" class="st4" width="8.9" height="23"/>
					
						<rect x="159.5" y="95.4" transform="matrix(0.7071 0.7071 -0.7071 0.7071 116.367 -87.5727)" class="st0" width="8.9" height="2.6"/>
				</g>
				<g>
					<circle class="st7" cx="120.7" cy="140.8" r="31.4"/>
					<circle class="st4" cx="120.7" cy="140.8" r="29.9"/>
					<circle class="st8" cx="120.7" cy="140.8" r="22"/>
					<circle class="st4" cx="120.7" cy="140.8" r="19.1"/>
					<path class="st7" d="M120.7,151.4c-8.3,0-15.5-4.7-19-11.6c0,0.3,0,0.7,0,1c0,10.5,8.5,19.1,19.1,19.1
						c10.5,0,19.1-8.5,19.1-19.1c0-0.3,0-0.7,0-1C136.2,146.7,129,151.4,120.7,151.4z"/>
				</g>
			</g>
			<g>
				<circle class="st9" cx="120.7" cy="68.4" r="24.1"/>
				<circle class="st0" cx="120.7" cy="68.4" r="23.5"/>
				<circle class="st4" cx="120.7" cy="68.4" r="19.9"/>
				<g>
					<path class="st6" d="M116.9,48.1l-0.4,0.1l-0.6-2.8c0.1,0,0.3-0.1,0.4-0.1L116.9,48.1z"/>
					<path class="st6" d="M113,49.2l-0.4,0.1l-1.1-2.7c0.1,0,0.2-0.1,0.4-0.1L113,49.2z"/>
					<path class="st6" d="M109.4,51.1l-0.3,0.2l-1.6-2.4c0.1-0.1,0.2-0.1,0.3-0.2L109.4,51.1z"/>
					<path class="st6" d="M103.7,56.7l-0.2,0.3l-2.4-1.6c0.1-0.1,0.1-0.2,0.2-0.3L103.7,56.7z"/>
					<path class="st6" d="M101.7,60.3l-0.1,0.4l-2.7-1.1c0-0.1,0.1-0.2,0.1-0.4L101.7,60.3z"/>
					<path class="st6" d="M100.5,64.1l-0.1,0.4L97.6,64c0-0.1,0-0.3,0.1-0.4L100.5,64.1z"/>
					<path class="st6" d="M100.5,72.6l-2.8,0.6c0-0.1-0.1-0.3-0.1-0.4l2.8-0.6L100.5,72.6z"/>
					<path class="st6" d="M101.7,76.4l-2.7,1.1c0-0.1-0.1-0.2-0.1-0.4l2.7-1.1L101.7,76.4z"/>
					<path class="st6" d="M103.7,80l-2.4,1.6c-0.1-0.1-0.1-0.2-0.2-0.3l2.4-1.6L103.7,80z"/>
					<path class="st6" d="M109.4,85.6l-1.6,2.4c-0.1-0.1-0.2-0.1-0.3-0.2l1.6-2.4L109.4,85.6z"/>
					<path class="st6" d="M113,87.5l-1.1,2.7c-0.1,0-0.2-0.1-0.4-0.1l1.1-2.7L113,87.5z"/>
					<path class="st6" d="M116.9,88.6l-0.6,2.8c-0.1,0-0.3,0-0.4-0.1l0.6-2.8L116.9,88.6z"/>
					<path class="st6" d="M125.5,91.4c-0.1,0-0.3,0.1-0.4,0.1l-0.6-2.8l0.4-0.1L125.5,91.4z"/>
					<path class="st6" d="M129.9,90c-0.1,0-0.2,0.1-0.4,0.1h0l-1.1-2.7l0.4-0.1L129.9,90z"/>
					<path class="st6" d="M133.9,87.8c-0.1,0.1-0.2,0.1-0.3,0.2l-1.6-2.4l0.3-0.2L133.9,87.8z"/>
					<path class="st6" d="M140.3,81.2c-0.1,0.1-0.1,0.2-0.2,0.3l-2.4-1.6l0.2-0.3L140.3,81.2z"/>
					<path class="st6" d="M142.5,77.2L142.5,77.2c0,0.1-0.1,0.2-0.1,0.4l-2.7-1.1l0.1-0.4L142.5,77.2z"/>
					<path class="st6" d="M143.8,72.7c0,0.1,0,0.3-0.1,0.4l-2.8-0.6l0.1-0.4L143.8,72.7z"/>
					<path class="st6" d="M143.8,64l-2.8,0.6l-0.1-0.4l2.8-0.6C143.7,63.7,143.8,63.8,143.8,64z"/>
					<path class="st6" d="M142.5,59.5l-2.7,1.1l-0.1-0.4l2.7-1.1C142.4,59.3,142.4,59.4,142.5,59.5z"/>
					<path class="st6" d="M140.3,55.5l-2.4,1.6l-0.2-0.3l2.4-1.6C140.2,55.2,140.3,55.4,140.3,55.5z"/>
					<path class="st6" d="M133.9,48.9l-1.6,2.4l-0.3-0.2l1.6-2.4C133.7,48.8,133.8,48.9,133.9,48.9z"/>
					<path class="st6" d="M129.9,46.7l-1.1,2.7l-0.4-0.1l1.1-2.7h0C129.6,46.6,129.7,46.7,129.9,46.7z"/>
					<path class="st6" d="M125.5,45.4l-0.6,2.8l-0.4-0.1l0.6-2.8C125.2,45.3,125.3,45.3,125.5,45.4z"/>
					<path class="st6" d="M121.1,44.9v3.6c-0.1,0-0.3,0-0.4,0c-0.1,0-0.3,0-0.4,0v-3.6c0.1,0,0.3,0,0.4,0
						C120.8,44.9,121,44.9,121.1,44.9z"/>
					<path class="st6" d="M106.9,54c-0.2,0.2-0.4,0.4-0.6,0.6l-2.5-2.5c0.2-0.2,0.4-0.4,0.6-0.6L106.9,54z"/>
					<path class="st6" d="M100.8,68.4c0,0.1,0,0.3,0,0.4h-3.6c0-0.1,0-0.3,0-0.4c0-0.1,0-0.3,0-0.4h3.6
						C100.8,68.1,100.8,68.2,100.8,68.4z"/>
					<path class="st6" d="M106.9,82.7l-2.5,2.5c-0.2-0.2-0.4-0.4-0.6-0.6l2.5-2.5C106.5,82.3,106.7,82.5,106.9,82.7z"/>
					<path class="st6" d="M121.1,88.3v3.6c-0.1,0-0.3,0-0.4,0c-0.1,0-0.3,0-0.4,0v-3.6c0.1,0,0.3,0,0.4,0
						C120.8,88.3,121,88.3,121.1,88.3z"/>
					<path class="st6" d="M137.6,84.7c-0.2,0.2-0.4,0.4-0.6,0.6l-2.5-2.5c0.2-0.2,0.4-0.4,0.6-0.6L137.6,84.7z"/>
					<path class="st6" d="M144.2,68.4c0,0.1,0,0.3,0,0.4h-3.6c0-0.1,0-0.3,0-0.4c0-0.1,0-0.3,0-0.4h3.6
						C144.2,68.1,144.2,68.2,144.2,68.4z"/>
					<path class="st6" d="M137.6,52l-2.5,2.5c-0.2-0.2-0.4-0.4-0.6-0.6l2.5-2.5C137.2,51.6,137.4,51.8,137.6,52z"/>
				</g>
				<path class="st7" d="M120.7,83.3c-9.7,0-18.3-4.9-23.3-12.3c1.3,11.7,11.3,20.9,23.3,20.9s22-9.1,23.3-20.9
					C139,78.4,130.4,83.3,120.7,83.3z"/>
				<g>
					<circle class="st6" cx="120.7" cy="68.4" r="13.8"/>
					<circle class="st2" cx="120.7" cy="68.4" r="11.1"/>
					<path class="st7" d="M120.7,74.5c-5.3,0-9.7-3.7-10.9-8.7c-0.2,0.8-0.3,1.6-0.3,2.5c0,6.2,5,11.1,11.1,11.1s11.1-5,11.1-11.1
						c0-0.9-0.1-1.7-0.3-2.5C130.4,70.8,126,74.5,120.7,74.5z"/>
				</g>
			</g>
		</g>
		<g>
			<g>
				<path class="st7" d="M228.3,74.4c0.3-0.5,0.4-1,0.4-1.5c-0.9,0.8-2.1,1-3.2,0.4l-2.2-1.1l-2.5,3.9l-0.3,0.4c0,0-0.1,0-0.1,0
					c-0.1,0-0.2,0-0.3-0.1c-0.1,0-0.2,0-0.3,0c-2.5-0.3-5.2,0.7-6.9,2.8l-5.2,6.5c-2,2.5-2.2,5.9-0.7,8.5c0,0.1,0.1,0.1,0.1,0.2
					l-0.7,0.9h0c-0.1,0-0.2-0.1-0.3-0.1c-0.2-0.1-0.4-0.1-0.5-0.1c-0.1,0-0.1,0-0.2,0l0,0c-2.7-0.6-5.7,0.4-7.5,2.7l-5.2,6.5
					c-2,2.6-2.2,6-0.6,8.7l-0.5,0.7c-2.2-0.7-4.6-0.3-6.6,1.1l-6.8,4.8c-2.3,1.6-3.4,4.3-3.2,7l0,0c0,0,0,0.1,0,0.1c0,0,0,0.1,0,0.1
					c0,0.2,0.1,0.4,0.1,0.6c0,0,0,0,0,0c-0.2-0.1-0.3-0.2-0.5-0.3c-0.1,0-0.1-0.1-0.2-0.1c0,0-0.1,0-0.1-0.1l0,0
					c-2.3-1.2-5.2-1.1-7.6,0.4l-6.9,4.5c-2.7,1.8-4,5.1-3.3,8.1l0,0c-0.1-0.1-0.2-0.1-0.3-0.2c-0.1,0-0.1-0.1-0.2-0.1
					c-0.1-0.1-0.3-0.2-0.4-0.2c0,0,0,0,0,0c-1.1-0.6-2.3-0.9-3.5-0.9c-1.2,0-2.3,0.3-3.5,0.8l-7.4,3.8c-2.7,1.4-4.2,4.2-4.2,7v0.2
					c0,0.1,0,0.3,0,0.4c0,0,0,0.1,0,0.1l-0.5,0.2c-0.1-0.1-0.1-0.1-0.2-0.2c-0.2-0.2-0.4-0.3-0.6-0.5c0,0,0,0,0,0
					c-1.3-1-2.9-1.5-4.6-1.5c-0.7,0-1.4,0.1-2.1,0.3l-8,2.3c-3.2,0.9-5.3,3.7-5.5,6.8l-0.8,0.2c-1.4-1.6-3.4-2.7-5.7-2.8l-8.3-0.2
					c-3-0.1-5.6,1.6-6.9,4c-0.1,0.1-0.1,0.3-0.2,0.4c0,0,0,0.1-0.1,0.1c0,0.1-0.1,0.2-0.1,0.3l-1,0c-1-2.9-3.8-5.1-7.1-5.1l-8.3-0.2
					c-3-0.1-5.6,1.6-6.9,4.2c0,0,0,0,0,0c-0.1,0.2-0.2,0.3-0.2,0.5c0,0,0,0.1,0,0.1l-1,0c0-0.1-0.1-0.2-0.1-0.3
					c-0.1-0.1-0.1-0.3-0.2-0.4c0,0,0,0,0,0c-1.2-2.6-3.8-4.4-6.8-4.4l-8.3-0.2c-3-0.1-5.7,1.6-6.9,4.2c0,0,0,0,0,0
					c-0.1,0.1-0.1,0.3-0.2,0.4c0,0.1-0.1,0.2-0.1,0.2l-1,0c0,0,0-0.1,0-0.1c-0.1-0.2-0.1-0.3-0.2-0.5c0,0,0,0,0-0.1
					c-1.2-2.6-3.8-4.4-6.8-4.4l-8.3-0.2c-1.6,0-3.1,0.4-4.3,1.3l0,0c-0.3,0.2-0.6,0.5-0.9,0.7l-0.9-0.5l-4.5-2.4l-2.1,1.5
					c-1,0.7-2.3,0.7-3.3,0.1c0,0.9,0.5,1.8,1.4,2.3l3.7,2l3.4,1.8c0,0.3-0.1,0.5-0.1,0.8c0,0.1,0,0.3,0,0.4l0,0
					c0.1,4,3.4,7.3,7.5,7.4l8.3,0.2c3.2,0.1,6.1-1.9,7.2-4.8c0,0,0,0,0-0.1l1,0c0,0.1,0,0.1,0.1,0.2c1.1,2.8,3.8,4.9,7,4.9l8.3,0.2
					c3.2,0.1,6-1.8,7.2-4.6c0-0.1,0.1-0.1,0.1-0.2l1,0c0,0,0,0,0,0.1c1,2.9,3.8,5,7,5.1l8.3,0.2c3.3,0.1,6.1-2,7.3-4.8l1,0
					c0,0.1,0.1,0.2,0.1,0.3c0,0.1,0.1,0.1,0.1,0.2c0,0.1,0.1,0.2,0.2,0.3c1.2,2.5,3.7,4.3,6.7,4.4l8.3,0.2c3.9,0.1,7.1-2.7,7.7-6.5
					h0c0,0,0-0.1,0-0.1c0-0.1,0-0.2,0-0.2c0-0.2,0-0.4,0-0.7v0l0.5-0.1c1.8,2.5,5.1,3.7,8.3,2.8l8-2.3c3.4-1,5.6-4.1,5.5-7.5
					c0,0,0-0.1,0-0.1c0-0.1,0-0.3,0-0.4l0.6-0.3c2.3,2.1,5.7,2.7,8.6,1.2l7.4-3.8c3.2-1.6,4.7-5.2,4-8.5c0,0,0,0,0,0c0,0,0,0,0,0
					c0.1,0.1,0.2,0.2,0.4,0.3c0,0,0,0,0.1,0c2.4,1.5,5.6,1.6,8.2-0.1l6.9-4.5c2.7-1.8,3.9-5,3.3-8c0,0,0,0,0,0
					c2.6,1.7,6,1.8,8.6-0.1l6.8-4.8c3.1-2.1,4-6.1,2.5-9.4l0,0c0-0.1-0.1-0.2-0.1-0.3c-0.1-0.1-0.1-0.2-0.2-0.3
					c-0.1-0.1-0.1-0.2-0.2-0.3l0.5-0.6c2.9,1,6.3,0.1,8.4-2.5l5.2-6.5c1.8-2.2,2.1-5.1,1.1-7.6v0c0,0,0,0,0-0.1
					c0-0.1-0.1-0.1-0.1-0.2c-0.1-0.2-0.1-0.3-0.2-0.5c0,0,0-0.1,0-0.1c0,0,0-0.1-0.1-0.1l0.8-1c0.1,0,0.2,0.1,0.2,0.1
					c0.1,0,0.1,0,0.2,0.1c0.2,0,0.3,0.1,0.5,0.1c2.7,0.5,5.6-0.4,7.4-2.7l5.2-6.5c2-2.5,2.2-5.8,0.7-8.5v0c-0.1-0.1-0.2-0.3-0.2-0.4
					c0-0.1-0.1-0.2-0.1-0.2c-0.1-0.1-0.1-0.2-0.2-0.3l0.8-1.3L228.3,74.4z M38.6,164.4l1.1,0c-0.4,0.2-0.9,0.3-1.3,0.3l-8.3-0.2
					c-0.9,0-1.7-0.5-2.3-1.1l0.8,0.4c1.3,0.7,2.9,0.2,3.6-1.1c0.7-1.3,0.2-2.9-1.1-3.6l-1-0.5c0,0,0.1,0,0.1,0l8.3,0.2
					c0.5,0,0.9,0.1,1.3,0.3l-1.1,0c-1.5,0-2.7,1.1-2.7,2.6C36,163.2,37.2,164.4,38.6,164.4z M62.2,164.9l1.1,0
					c-0.4,0.2-0.9,0.3-1.3,0.3l-8.3-0.2c-0.5,0-0.9-0.1-1.3-0.3l1.1,0c1.5,0,2.7-1.1,2.7-2.6c0-1.5-1.1-2.7-2.6-2.7l-1.1,0
					c0.4-0.2,0.9-0.3,1.3-0.3l8.3,0.2c0.5,0,0.9,0.1,1.3,0.3l-1.1,0c-1.5,0-2.7,1.1-2.7,2.6C59.6,163.7,60.7,164.9,62.2,164.9z
					 M85.8,165.4l1.1,0c-0.4,0.2-0.9,0.3-1.3,0.3l-8.3-0.2c-0.5,0-0.9-0.1-1.3-0.3l1.1,0c1.5,0,2.7-1.1,2.7-2.6
					c0-1.5-1.1-2.7-2.6-2.7l-1.1,0c0.4-0.2,0.9-0.3,1.3-0.3l8.3,0.2c0.5,0,0.9,0.1,1.3,0.3l-1.1,0c-1.5,0-2.7,1.1-2.7,2.6
					C83.1,164.2,84.3,165.4,85.8,165.4z M109.1,166.2l-8.3-0.2c-0.5,0-0.9-0.1-1.3-0.3l1.1,0c1.5,0,2.7-1.1,2.7-2.6
					c0-1.5-1.1-2.7-2.6-2.7l-1.1,0c0.4-0.2,0.9-0.3,1.3-0.3l7.5,0.2l-0.3,0.1c-1.4,0.4-2.2,1.9-1.8,3.3c0.4,1.4,1.9,2.2,3.3,1.8
					l2-0.6C111.1,165.7,110.2,166.3,109.1,166.2z M132.2,159.3l-8,2.3c-0.5,0.1-0.9,0.1-1.4,0.1l1.1-0.3c1.4-0.4,2.2-1.9,1.8-3.3
					s-1.9-2.2-3.3-1.8l-1.1,0.3c0.3-0.3,0.7-0.5,1.2-0.7l0.6-0.2l6.4-1.8l0.9-0.3c0.4-0.1,0.8-0.1,1.2-0.1l-1.6,0.8
					c-1.3,0.7-1.8,2.3-1.2,3.6c0.7,1.3,2.3,1.8,3.6,1.2l0.8-0.4C133,159,132.6,159.2,132.2,159.3z M154,148.4
					c-0.2,0.1-0.3,0.2-0.5,0.3l-2.4,1.2l-3.3,1.7c0,0,0,0,0,0l-1.6,0.8l0,0c-0.4,0.2-0.9,0.3-1.3,0.3l1-0.5c1.3-0.7,1.8-2.3,1.2-3.6
					c-0.7-1.3-2.3-1.8-3.6-1.2l-1,0.5c0.2-0.2,0.4-0.4,0.6-0.6c0.1-0.1,0.3-0.2,0.4-0.3l0.3-0.2l1.3-0.7l5.7-2.9
					c0.2-0.1,0.4-0.2,0.6-0.2l-1.4,0.9c-1.2,0.8-1.6,2.4-0.8,3.7c0.8,1.2,2.4,1.6,3.7,0.8l2-1.3C154.7,147.8,154.4,148.1,154,148.4z
					 M172.9,136c-0.1,0.1-0.2,0.2-0.3,0.2l-1,0.6l-4.4,2.9c0,0,0,0,0,0l-1.2,0.8l-0.3,0.2c-0.2,0.1-0.4,0.2-0.5,0.3
					c-0.2,0.1-0.5,0.2-0.8,0.2l0.9-0.6c1.2-0.8,1.6-2.5,0.8-3.7c-0.8-1.2-2.4-1.6-3.7-0.8l-0.9,0.6c0.2-0.4,0.5-0.7,0.9-1l1.5-1
					l2.8-1.8v0l2.6-1.7c0.3-0.2,0.6-0.3,1-0.4l-1.7,1.2c-1.2,0.8-1.5,2.5-0.7,3.7c0.8,1.2,2.5,1.5,3.7,0.7l2.1-1.4
					C173.5,135.3,173.3,135.7,172.9,136z M192.4,121.4c-0.1,0.8-0.5,1.5-1.2,1.9l-1.5,1l-5.3,3.7c-0.3,0.2-0.7,0.4-1,0.5
					c-0.1,0-0.3,0-0.4,0.1l1-0.7c1.2-0.8,1.5-2.5,0.7-3.7c-0.8-1.2-2.5-1.5-3.7-0.7l-0.8,0.5c0.1-0.1,0.1-0.2,0.2-0.3
					c0.2-0.2,0.4-0.4,0.6-0.6l6.8-4.8c0,0,0.1,0,0.1-0.1l-0.6,0.7c-0.9,1.1-0.7,2.8,0.4,3.7c1.1,0.9,2.8,0.7,3.7-0.4l1-1.2
					C192.4,121.3,192.4,121.3,192.4,121.4z M206.3,104.4l-5.2,6.5c0,0,0,0,0,0c-0.3,0.3-0.6,0.6-1,0.8l0.7-0.9
					c0.9-1.1,0.7-2.8-0.4-3.7c-1.1-0.9-2.8-0.7-3.7,0.4l-0.7,0.9c0-0.1,0-0.2,0.1-0.3c0.1-0.3,0.3-0.7,0.5-1l5.1-6.3l0.1-0.1
					c0.1-0.1,0.1-0.2,0.2-0.2c0.3-0.3,0.7-0.6,1.2-0.7l-0.7,0.9c-0.9,1.1-0.7,2.8,0.4,3.7c1.1,0.9,2.8,0.7,3.7-0.4l0.3-0.4
					C206.6,103.8,206.5,104.1,206.3,104.4z M221.8,84.6c-0.1,0.4-0.3,0.9-0.6,1.2l-1.1,1.4l-1.3,1.7l-1.6,2l-1.1,1.4
					c-0.3,0.4-0.7,0.7-1.1,0.8l0.7-0.9c0.9-1.1,0.7-2.8-0.4-3.7c-1.1-0.9-2.8-0.7-3.7,0.4l-0.7,0.9c0.1-0.4,0.3-0.9,0.6-1.2l0.3-0.3
					l0.9-1.1c0,0,0,0,0,0l1.8-2.3l2.2-2.8c0.2-0.3,0.5-0.5,0.8-0.7l-1.6,2.4c-0.8,1.2-0.5,2.9,0.8,3.7c1.2,0.8,2.9,0.4,3.7-0.8
					l1.7-2.6C221.8,84.4,221.8,84.5,221.8,84.6z"/>
				<g>
					<path id="XMLID_69_" class="st0" d="M93.2,160.2c0.1-4.2,3.6-7.6,7.8-7.5l8.3,0.2c4.2,0.1,7.6,3.6,7.5,7.8
						c-0.1,4.2-3.6,7.6-7.8,7.5l-8.3-0.2C96.5,167.9,93.1,164.4,93.2,160.2z M100.9,157.4c-1.6,0-3,1.3-3,2.9c0,1.6,1.3,3,2.9,3
						l8.3,0.2c1.6,0,3-1.3,3-2.9c0-1.6-1.3-3-2.9-3L100.9,157.4z"/>
					<path id="XMLID_66_" class="st0" d="M69.7,159.7c0.1-4.2,3.6-7.6,7.8-7.5l8.3,0.2c4.2,0.1,7.6,3.6,7.5,7.8
						c-0.1,4.2-3.6,7.6-7.8,7.5l-8.3-0.2C72.9,167.4,69.6,163.9,69.7,159.7z M77.4,156.9c-1.6,0-3,1.3-3,2.9s1.3,3,2.9,3l8.3,0.2
						c1.6,0,3-1.3,3-2.9s-1.3-3-2.9-3L77.4,156.9z"/>
					<path id="XMLID_65_" class="st10" d="M100.8,163.3l2.1,0c-0.6,0.5-1.4,0.7-2.3,0.7l-6.4-0.1c-0.6-1.1-1-2.4-0.9-3.8
						c0,1.4-0.4,2.6-1.1,3.7l-6.4-0.1c-0.9,0-1.6-0.3-2.3-0.8l2.1,0c1.6,0,3-1.3,3-2.9c0-1.6-1.3-3-2.9-3.1l-2.1,0
						c0.6-0.5,1.4-0.7,2.3-0.7l6.4,0.1c0.6,1.1,1,2.4,0.9,3.8c0-1.4,0.4-2.6,1.1-3.7l6.4,0.1c0.8,0,1.6,0.3,2.3,0.8l-2.1,0
						c-1.6,0-3,1.3-3,2.9C97.9,161.9,99.2,163.3,100.8,163.3z"/>
					<path id="XMLID_64_" class="st0" d="M100.6,163l-14.9-0.3c-1.5,0-2.6-1.3-2.6-2.7c0-1.5,1.3-2.6,2.7-2.6l14.9,0.3
						c1.5,0,2.6,1.3,2.6,2.7C103.3,161.8,102.1,163,100.6,163z"/>
					<path id="XMLID_61_" class="st0" d="M116.1,158.1c-1.2-4.1,1.2-8.3,5.2-9.5l8-2.3c4.1-1.2,8.3,1.2,9.5,5.2
						c1.2,4.1-1.2,8.3-5.2,9.5l-8,2.3C121.5,164.5,117.2,162.2,116.1,158.1z M122.6,153.1c-1.6,0.5-2.5,2.1-2,3.7
						c0.5,1.6,2.1,2.5,3.7,2l8-2.3c1.6-0.5,2.5-2.1,2-3.7c-0.5-1.6-2.1-2.5-3.7-2L122.6,153.1z"/>
					<path class="st7" d="M126,158.4c-0.5,0.6-1.1,1-1.8,1.2l-6.3,1.8c-0.5-0.5-0.9-1-1.2-1.6c0,0.3,0,0.6,0,0.9c0,0.3,0,0.7-0.1,1
						l-6.8,1.9c-0.3,0.1-0.7,0.1-1,0.1c-0.5,0-1-0.1-1.5-0.3l1.6,0c1.6,0,3-1.3,3-2.9c0-1.6-1.3-3-2.9-3l-2.7-0.1
						c0.4-0.4,0.9-0.7,1.4-0.8l6.4-1.8c0.6,0.5,1.1,1.2,1.5,1.9c-0.1-0.8,0-1.6,0.1-2.4l6.3-1.8c0.3-0.1,0.7-0.1,1-0.1
						c0.4,0,0.8,0.1,1.2,0.2l-1.8,0.5c-1.6,0.5-2.5,2.1-2,3.7c0.5,1.6,2.1,2.5,3.7,2L126,158.4z"/>
					<path id="XMLID_60_" class="st0" d="M123.9,158.6l-14.3,4.1c-1.4,0.4-2.9-0.4-3.3-1.8c-0.4-1.4,0.4-2.9,1.8-3.3l14.3-4.1
						c1.4-0.4,2.9,0.4,3.3,1.8C126.2,156.7,125.3,158.2,123.9,158.6z"/>
					<path id="XMLID_57_" class="st0" d="M138,150.6c-1.9-3.8-0.4-8.4,3.3-10.3l7.4-3.8c3.8-1.9,8.4-0.4,10.3,3.3
						c1.9,3.8,0.4,8.4-3.3,10.3l-7.4,3.8C144.5,155.8,139.9,154.4,138,150.6z M143.4,144.5c-1.5,0.7-2,2.5-1.3,4
						c0.7,1.5,2.5,2,4,1.3l7.4-3.8c1.5-0.7,2-2.5,1.3-4s-2.5-2-4-1.3L143.4,144.5z"/>
					<path class="st7" d="M147.8,148.9c-0.3,0.6-0.9,1.2-1.5,1.5l-5.8,3c-0.6-0.4-1.2-1-1.7-1.6c0.2,0.8,0.3,1.6,0.2,2.3l-6,3.1
						c-0.5,0.3-1.1,0.4-1.6,0.4c-0.5,0-1.1-0.1-1.5-0.3l2.3-0.7c1.6-0.5,2.5-2.1,2-3.7s-2.1-2.5-3.7-2l-1.7,0.5
						c0.2-0.2,0.5-0.4,0.8-0.6l6.2-3.2c0.6,0.4,1,0.9,1.5,1.4c-0.2-0.7-0.3-1.4-0.2-2.1l5.8-3c0.5-0.3,1.1-0.4,1.6-0.4
						c0.2,0,0.3,0,0.5,0l-1.6,0.8c-1.5,0.7-2,2.5-1.3,4c0.7,1.5,2.5,2,4,1.3L147.8,148.9z"/>
					<path id="XMLID_56_" class="st0" d="M145.8,149.6l-13.2,6.8c-1.3,0.7-2.9,0.1-3.6-1.2c-0.7-1.3-0.1-2.9,1.2-3.6l13.2-6.8
						c1.3-0.7,2.9-0.1,3.6,1.2C147.6,147.3,147.1,148.9,145.8,149.6z"/>
					<path id="XMLID_53_" class="st0" d="M157.7,139.6c-2.3-3.5-1.3-8.3,2.3-10.6l7-4.5c3.5-2.3,8.3-1.3,10.6,2.3
						c2.3,3.5,1.3,8.3-2.3,10.6l-7,4.5C164.7,144.1,160,143.1,157.7,139.6z M162.5,132.9c-1.4,0.9-1.8,2.7-0.9,4.1
						c0.9,1.4,2.7,1.8,4.1,0.9l7-4.5c1.4-0.9,1.8-2.7,0.9-4.1c-0.9-1.4-2.7-1.8-4.1-0.9L162.5,132.9z"/>
					<path class="st7" d="M167.2,136.9c-0.3,0.7-0.7,1.3-1.4,1.7l-5.5,3.5c-0.3-0.2-0.5-0.3-0.8-0.5c0.1,0.3,0.1,0.6,0.2,0.9
						l-6.4,4.1c-0.6,0.4-1.4,0.6-2.1,0.6c-0.1,0-0.1,0-0.2,0l2.4-1.2c1.5-0.7,2-2.5,1.3-4c-0.7-1.5-2.5-2-4-1.3l-2.6,1.3
						c0.3-0.6,0.7-1.1,1.3-1.4l6.2-4c0.3,0.2,0.7,0.4,1,0.6c-0.1-0.4-0.1-0.7-0.2-1.1l5.5-3.5c0.6-0.4,1.3-0.6,2.1-0.6l-1.5,1
						c-1.4,0.9-1.8,2.7-0.9,4.1c0.9,1.4,2.7,1.8,4.1,0.9L167.2,136.9z"/>
					<path id="XMLID_52_" class="st0" d="M165.3,137.8l-12.5,8.1c-1.2,0.8-2.9,0.4-3.7-0.8c-0.8-1.2-0.4-2.9,0.8-3.7l12.5-8.1
						c1.2-0.8,2.9-0.4,3.7,0.8C166.9,135.3,166.6,137,165.3,137.8z"/>
					<path id="XMLID_49_" class="st0" d="M176.5,127.3c-2.4-3.4-1.6-8.2,1.8-10.7l6.8-4.8c3.4-2.4,8.2-1.6,10.7,1.8
						c2.4,3.4,1.6,8.2-1.8,10.7l-6.8,4.8C183.7,131.6,178.9,130.8,176.5,127.3z M181,120.5c-1.3,0.9-1.7,2.8-0.7,4.1
						c0.9,1.3,2.8,1.7,4.1,0.7l6.8-4.8c1.3-0.9,1.7-2.8,0.7-4.1s-2.8-1.7-4.1-0.7L181,120.5z"/>
					<path class="st7" d="M185.8,124.4c-0.3,0.7-0.7,1.2-1.3,1.7l-5.4,3.6c-0.2-0.1-0.4-0.2-0.6-0.4c0.1,0.2,0.1,0.5,0.1,0.7
						l-6.4,4.3c-0.6,0.4-1.3,0.6-2,0.6l2.4-1.6c1.4-0.9,1.8-2.7,0.9-4.1c-0.9-1.4-2.7-1.8-4.1-0.9l-2.6,1.7c0.2-0.7,0.7-1.3,1.4-1.8
						l6.3-4.3c0.3,0.1,0.5,0.3,0.8,0.5c-0.1-0.3-0.1-0.6-0.1-0.9l5.3-3.6c0.6-0.4,1.3-0.6,2.1-0.6l-1.5,1.1c-1.3,1-1.7,2.8-0.7,4.1
						c0.9,1.3,2.8,1.7,4.1,0.7L185.8,124.4z"/>
					<path id="XMLID_48_" class="st0" d="M184,125.2l-12.3,8.3c-1.2,0.8-2.9,0.5-3.7-0.7c-0.8-1.2-0.5-2.9,0.7-3.7l12.3-8.3
						c1.2-0.8,2.9-0.5,3.7,0.7C185.5,122.8,185.2,124.4,184,125.2z"/>
					<path id="XMLID_45_" class="st0" d="M194,112.2c-3.3-2.6-3.8-7.4-1.2-10.7L198,95c2.6-3.3,7.4-3.8,10.7-1.2
						c3.3,2.6,3.8,7.4,1.2,10.7l-5.2,6.5C202.1,114.3,197.3,114.8,194,112.2z M196.4,104.4c-1,1.3-0.8,3.2,0.5,4.2
						c1.3,1,3.2,0.8,4.2-0.5l5.2-6.5c1-1.3,0.8-3.2-0.5-4.2c-1.3-1-3.2-0.8-4.2,0.5L196.4,104.4z"/>
					<path class="st7" d="M202.3,106.7c0,0.7-0.3,1.4-0.8,2l-4.1,5.1c-0.8-0.1-1.7-0.4-2.4-0.9c0.3,0.3,0.5,0.6,0.7,0.9
						c0.3,0.4,0.5,0.8,0.7,1.2l-4.2,5.3c-0.6,0.8-1.5,1.3-2.5,1.3l1.5-1c1.3-0.9,1.7-2.8,0.7-4.1c-0.9-1.3-2.8-1.7-4.1-0.7l-1.9,1.3
						c0.1-0.5,0.3-0.9,0.7-1.3l4.1-5.2c0.9,0.1,1.8,0.4,2.6,0.9c-0.7-0.7-1.2-1.5-1.5-2.3l4.1-5.1c0.5-0.6,1.1-1,1.8-1.2l-1.1,1.4
						c-1,1.3-0.8,3.2,0.5,4.2c1.3,1,3.2,0.8,4.2-0.5L202.3,106.7z"/>
					<path id="XMLID_44_" class="st0" d="M200.7,108.1l-9.3,11.6c-0.9,1.1-2.6,1.3-3.7,0.4c-1.1-0.9-1.3-2.6-0.4-3.7l9.3-11.6
						c0.9-1.1,2.6-1.3,3.7-0.4C201.4,105.2,201.6,106.9,200.7,108.1z"/>
					<path id="XMLID_41_" class="st0" d="M209,93.7c-3.3-2.6-3.8-7.4-1.2-10.7l5.2-6.5c2.6-3.3,7.4-3.8,10.7-1.2
						c3.3,2.6,3.8,7.4,1.2,10.7l-5.2,6.5C217.1,95.8,212.3,96.3,209,93.7z M211.4,85.9c-1,1.3-0.8,3.2,0.5,4.2
						c1.3,1,3.2,0.8,4.2-0.5l5.2-6.5c1-1.3,0.8-3.2-0.5-4.2c-1.3-1-3.2-0.8-4.2,0.5L211.4,85.9z"/>
					<path class="st7" d="M211,96.9l-3.9,4.8c-0.5,0.7-1.2,1.1-2,1.3l1.1-1.4c1-1.3,0.8-3.2-0.5-4.2c-1.3-1-3.2-0.8-4.2,0.5
						l-0.8,1.1c0.1-0.6,0.3-1.2,0.7-1.7l4-5c1.1,0.2,2.3,0.7,3.2,1.5C209.8,94.6,210.6,95.7,211,96.9z"/>
					<path class="st7" d="M217.2,88.1c0,0.7-0.3,1.4-0.8,2l-4.1,5.1c-1.2-0.2-2.4-0.7-3.4-1.5c-1-0.8-1.8-1.8-2.3-3l4.1-5.1
						c0.5-0.6,1.1-1,1.8-1.2l-1.2,1.4c-1,1.3-0.8,3.2,0.5,4.2c1.3,1,3.2,0.8,4.2-0.5L217.2,88.1z"/>
					<path id="XMLID_40_" class="st0" d="M215.7,89.5l-9.3,11.6c-0.9,1.1-2.6,1.3-3.7,0.4c-1.1-0.9-1.3-2.6-0.4-3.7l9.3-11.6
						c0.9-1.1,2.6-1.3,3.7-0.4C216.4,86.7,216.6,88.4,215.7,89.5z"/>
					<path id="XMLID_37_" class="st0" d="M46.1,159.2c0.1-4.2,3.6-7.6,7.8-7.5l8.3,0.2c4.2,0.1,7.6,3.6,7.5,7.8s-3.6,7.6-7.8,7.5
						l-8.3-0.2C49.4,166.9,46,163.4,46.1,159.2z M53.8,156.4c-1.6,0-3,1.3-3,2.9c0,1.6,1.3,3,2.9,3l8.3,0.2c1.6,0,3-1.3,3-2.9
						c0-1.6-1.3-3-2.9-3L53.8,156.4z"/>
					<path id="XMLID_36_" class="st10" d="M77.3,162.8l2,0c-0.6,0.5-1.4,0.7-2.3,0.7l-6.4-0.1c-0.6-1.1-1-2.4-0.9-3.8
						c0,1.4-0.4,2.6-1.1,3.7l-6.4-0.1c-0.8,0-1.6-0.3-2.2-0.8l2,0c1.6,0,3-1.3,3.1-2.9c0-1.6-1.3-3-2.9-3.1l-2,0
						c0.6-0.5,1.4-0.7,2.3-0.7l6.4,0.1c0.6,1.1,1,2.4,0.9,3.8c0-1.4,0.4-2.6,1.1-3.7l6.4,0.1c0.8,0,1.6,0.3,2.2,0.8l-2,0
						c-1.6,0-3,1.3-3,2.9C74.3,161.4,75.6,162.8,77.3,162.8z"/>
					<path id="XMLID_35_" class="st0" d="M77,162.5l-14.9-0.3c-1.5,0-2.6-1.3-2.6-2.7c0-1.5,1.3-2.6,2.7-2.6l14.9,0.3
						c1.5,0,2.6,1.3,2.6,2.7C79.7,161.4,78.5,162.5,77,162.5z"/>
					<path id="XMLID_32_" class="st0" d="M22.5,158.7c0.1-4.2,3.6-7.6,7.8-7.5l8.3,0.2c4.2,0.1,7.6,3.6,7.5,7.8
						c-0.1,4.2-3.6,7.6-7.8,7.5l-8.3-0.2C25.8,166.4,22.5,162.9,22.5,158.7z M30.2,155.9c-1.6,0-3,1.3-3,2.9c0,1.6,1.3,3,2.9,3
						l8.3,0.2c1.6,0,3-1.3,3-2.9c0-1.6-1.3-3-2.9-3L30.2,155.9z"/>
					<path id="XMLID_31_" class="st10" d="M53.7,162.3l2,0c-0.6,0.5-1.4,0.7-2.3,0.7L47,163c-0.6-1.1-1-2.4-0.9-3.8
						c0,1.4-0.4,2.6-1.1,3.7l-6.4-0.1c-0.8,0-1.6-0.3-2.2-0.8l2,0c1.6,0,3-1.3,3-2.9c0-1.6-1.3-3-2.9-3.1l-2,0
						c0.6-0.5,1.4-0.7,2.3-0.7l6.4,0.1c0.6,1.1,1,2.4,0.9,3.8c0-1.4,0.4-2.6,1.1-3.7l6.4,0.1c0.8,0,1.6,0.3,2.2,0.8l-2,0
						c-1.6,0-3,1.3-3.1,2.9C50.7,160.9,52.1,162.3,53.7,162.3z"/>
					<path id="XMLID_30_" class="st0" d="M53.5,162l-14.9-0.3c-1.5,0-2.6-1.3-2.6-2.7c0-1.5,1.3-2.6,2.7-2.6l14.9,0.3
						c1.5,0,2.6,1.3,2.6,2.7C56.2,160.9,54.9,162,53.5,162z"/>
					<path id="XMLID_29_" class="st10" d="M30.1,161.8l1.9,0c-0.6,0.4-1.4,0.7-2.2,0.6c-0.6,0-1.2-0.2-1.7-0.4l-5.6-3
						c0-0.1,0-0.3,0-0.4c0.1-2.6,1.4-4.9,3.5-6.2l5.7,3c0.2,0.1,0.5,0.3,0.7,0.5l-2.1,0c-1.6,0-3,1.3-3,2.9
						C27.2,160.4,28.5,161.8,30.1,161.8z"/>
					<path id="XMLID_28_" class="st0" d="M28.6,161.1l-13.1-7c-1.3-0.7-1.8-2.3-1.1-3.6c0.7-1.3,2.3-1.8,3.6-1.1l13.1,7
						c1.3,0.7,1.8,2.3,1.1,3.6C31.6,161.3,29.9,161.8,28.6,161.1z"/>
					<path class="st7" d="M225.6,77.5L225.6,77.5l-4.6,7.1c-0.5,0.8-1.3,1.3-2.2,1.5l2.4-3c1-1.3,0.8-3.2-0.5-4.2
						c-1.3-1-3.2-0.8-4.2,0.5l-2.2,2.8c0.1-0.5,0.2-1,0.5-1.5l4.6-7c1.5,0.1,2.9,0.6,4.2,1.6C224.5,75.9,225.1,76.7,225.6,77.5z"/>
					<path id="XMLID_27_" class="st0" d="M215.7,81.2l8.1-12.4c0.8-1.2,2.5-1.6,3.7-0.8c1.2,0.8,1.6,2.5,0.8,3.7l-8.1,12.4
						c-0.8,1.2-2.5,1.6-3.7,0.8C215.3,84,214.9,82.4,215.7,81.2z"/>
				</g>
			</g>
			<g>
				<path class="st7" d="M227,142.5c-0.9,0.7-2.1,0.9-3.2,0.4l-2.3-1.1l-5,2.7l-0.4,0.2c-0.3-0.3-0.6-0.5-1-0.7l0,0
					c-1.3-0.8-2.7-1.3-4.3-1.2l-8.3,0.2c-3,0.1-5.6,1.9-6.8,4.4c0,0,0,0,0,0.1c-0.1,0.2-0.1,0.3-0.2,0.5c0,0,0,0.1,0,0.1l-1,0
					c0-0.1-0.1-0.2-0.1-0.2c-0.1-0.1-0.1-0.3-0.2-0.4c0,0,0,0,0,0c-1.3-2.5-3.9-4.2-7-4.1l-8.3,0.2c-3,0.1-5.6,1.9-6.8,4.5
					c0,0,0,0,0,0c-0.1,0.1-0.1,0.3-0.2,0.4c0,0.1-0.1,0.2-0.1,0.3l-1,0c0,0,0-0.1,0-0.1c-0.1-0.2-0.2-0.4-0.2-0.5c0,0,0,0,0,0
					c-1.3-2.5-3.9-4.2-7-4.1l-8.3,0.2c-3.3,0.1-6,2.2-7,5.1l-1,0c0-0.1-0.1-0.2-0.1-0.3c0,0,0-0.1-0.1-0.1c-0.1-0.1-0.1-0.3-0.2-0.4
					c-1.3-2.4-3.9-4.1-6.9-4l-8.3,0.2c-2.3,0.1-4.3,1.1-5.7,2.8l-0.8-0.2c-0.2-3.1-2.4-5.9-5.5-6.8l-8-2.3c-2.4-0.7-4.8-0.1-6.6,1.2
					c0,0,0,0,0,0c-0.2,0.2-0.4,0.3-0.6,0.5c-0.1,0.1-0.1,0.1-0.2,0.2l-0.5-0.3c0,0,0-0.1,0-0.1c0-0.1,0-0.3,0-0.4c0-0.1,0-0.1,0-0.2
					c0.1-2.9-1.5-5.6-4.2-7l-7.4-3.8c-2.3-1.2-4.9-1.1-7,0c0,0,0,0,0,0c-0.1,0.1-0.3,0.1-0.4,0.2c-0.1,0-0.1,0.1-0.2,0.1
					c-0.1,0.1-0.2,0.1-0.3,0.2l0,0c0.7-3-0.5-6.3-3.3-8.1l-7-4.5c-2.4-1.5-5.2-1.6-7.6-0.4l0,0c0,0-0.1,0-0.1,0.1
					c-0.1,0-0.1,0.1-0.2,0.1c-0.2,0.1-0.3,0.2-0.5,0.3c0,0,0,0,0,0c0-0.2,0.1-0.4,0.1-0.6c0,0,0-0.1,0-0.1c0,0,0-0.1,0-0.1l0,0
					c0.2-2.6-0.9-5.3-3.2-7l-6.8-4.8c-2-1.4-4.4-1.7-6.6-1l-0.5-0.7c1.6-2.7,1.5-6.1-0.6-8.7l-5.2-6.5c-1.9-2.3-4.8-3.3-7.5-2.7l0,0
					c-0.1,0-0.1,0-0.2,0c-0.2,0-0.4,0.1-0.5,0.1c-0.1,0-0.2,0.1-0.3,0.1h0l-0.7-0.9c0-0.1,0.1-0.1,0.1-0.2c1.5-2.6,1.3-6-0.7-8.5
					l-5.2-6.5c-1.7-2.1-4.3-3.1-6.9-2.8c-0.1,0-0.2,0-0.3,0c-0.1,0-0.2,0-0.3,0.1c0,0-0.1,0-0.1,0l-0.8-1.2l-2.5-3.8c0,0,0,0,0,0
					L16,61.3c-1.1,0.8-2.6,0.7-3.6-0.1c-0.2,0.7-0.1,1.6,0.3,2.2l2,3.1l1.3,2c-0.1,0.1-0.1,0.2-0.2,0.3c-0.1,0.1-0.1,0.2-0.1,0.2
					c-0.1,0.1-0.2,0.3-0.2,0.4v0c-0.6,1.1-0.9,2.4-0.9,3.7c0,1.7,0.5,3.4,1.7,4.8l5.2,6.5c1.8,2.3,4.7,3.2,7.4,2.7
					c0.2,0,0.3-0.1,0.5-0.1c0.1,0,0.1,0,0.2-0.1c0.1,0,0.2,0,0.2-0.1l0.8,1c0,0,0,0.1-0.1,0.1c0,0,0,0.1,0,0.1
					c-0.1,0.2-0.2,0.3-0.2,0.5c0,0.1-0.1,0.1-0.1,0.2c0,0,0,0,0,0.1c-0.4,0.9-0.5,1.9-0.5,2.8c0,1.7,0.5,3.4,1.7,4.8l5.2,6.5
					c2,2.6,5.4,3.4,8.4,2.5l0.5,0.6c-0.1,0.1-0.1,0.2-0.2,0.3c-0.1,0.1-0.1,0.2-0.2,0.3c0,0.1-0.1,0.2-0.1,0.3v0
					c-1.5,3.3-0.5,7.3,2.6,9.4l6.8,4.8c2.7,1.9,6.1,1.8,8.6,0.1c0,0,0,0,0,0c-0.6,3,0.6,6.2,3.3,8l7,4.5c2.6,1.7,5.8,1.6,8.2,0.1
					c0,0,0,0,0.1,0c0.1-0.1,0.3-0.2,0.4-0.3c0,0,0,0,0,0c0,0,0,0,0,0c-0.8,3.3,0.8,6.9,4,8.5l7.4,3.8c2.9,1.5,6.4,0.9,8.6-1.2
					l0.6,0.3c0,0.1,0,0.3,0,0.4v0.1c0,3.4,2.2,6.5,5.5,7.4l8,2.3c3.2,0.9,6.4-0.3,8.2-2.8l0.5,0.1v0c0,0.2,0,0.5,0,0.7
					c0,0.1,0,0.2,0,0.2c0,0,0,0.1,0,0.1h0c0.6,3.7,3.9,6.5,7.7,6.5l8.3-0.2c3-0.1,5.5-1.8,6.7-4.4c0.1-0.1,0.1-0.2,0.2-0.3
					c0-0.1,0.1-0.1,0.1-0.2c0-0.1,0.1-0.2,0.1-0.3l1,0c1.1,2.9,4,4.9,7.3,4.8l8.3-0.2c3.3-0.1,6-2.2,7-5.1c0,0,0,0,0-0.1l1,0
					c0,0.1,0.1,0.1,0.1,0.2c1.2,2.8,4,4.7,7.2,4.6l8.3-0.2c3.2-0.1,5.9-2.1,7-4.9c0-0.1,0.1-0.1,0.1-0.2l1,0c0,0,0,0.1,0,0.1
					c1.2,2.8,4,4.8,7.2,4.7l8.3-0.2c4.1-0.1,7.3-3.4,7.5-7.4l0,0c0-0.1,0-0.3,0-0.4c0-0.3,0-0.5-0.1-0.8l3.8-2l3.3-1.7
					C226.8,144.9,227.3,143.6,227,142.5z M29.5,77.9c-0.9-1.1-2.6-1.3-3.7-0.4c-1.1,0.9-1.3,2.6-0.4,3.7l0.7,0.9
					c-0.4-0.2-0.8-0.5-1.1-0.8l-1.1-1.4l-1.6-2c0,0,0,0,0,0l-1.3-1.6l-1.1-1.4c-0.3-0.4-0.5-0.8-0.6-1.2c0-0.1,0-0.2-0.1-0.4
					l1.7,2.6c0.8,1.2,2.5,1.6,3.7,0.8c1.2-0.8,1.6-2.5,0.8-3.7l-1.6-2.4c0.3,0.2,0.5,0.4,0.8,0.7l2.2,2.7l1.8,2.3l0.9,1.1l0.3,0.3
					c0.3,0.4,0.5,0.8,0.6,1.2L29.5,77.9z M44.5,96.4c-0.9-1.1-2.6-1.3-3.7-0.4c-1.1,0.9-1.3,2.6-0.4,3.7l0.7,0.9
					c-0.4-0.2-0.7-0.4-1-0.8c0,0,0,0,0,0l-5.2-6.5c-0.2-0.3-0.4-0.5-0.5-0.8l0.3,0.4c0.9,1.1,2.6,1.3,3.7,0.4
					c1.1-0.9,1.3-2.6,0.4-3.7l-0.7-0.9c0.4,0.1,0.8,0.4,1.2,0.7c0.1,0.1,0.1,0.2,0.2,0.2l0.1,0.1l5.1,6.3c0.2,0.3,0.4,0.6,0.5,1
					c0,0.1,0.1,0.2,0.1,0.3L44.5,96.4z M60.1,112.5c-1.2-0.8-2.9-0.5-3.7,0.7c-0.8,1.2-0.5,2.9,0.7,3.7l1,0.7c-0.1,0-0.3,0-0.4-0.1
					c-0.4-0.1-0.7-0.2-1-0.5l-5.3-3.7l-1.5-1c-0.7-0.5-1.1-1.2-1.2-1.9c0-0.1,0-0.1,0-0.2l1,1.2c0.9,1.1,2.6,1.3,3.7,0.4
					c1.1-0.9,1.3-2.6,0.4-3.7l-0.6-0.7c0,0,0.1,0,0.1,0.1l6.8,4.8c0.2,0.2,0.4,0.4,0.6,0.6c0.1,0.1,0.1,0.2,0.2,0.3L60.1,112.5z
					 M78.7,125c-1.2-0.8-2.9-0.4-3.7,0.8c-0.8,1.2-0.4,2.9,0.8,3.7l0.9,0.6c-0.3,0-0.5-0.1-0.8-0.2c-0.2-0.1-0.4-0.2-0.5-0.3
					l-0.3-0.2l-1.2-0.8v0l-4.5-2.9l-1-0.6c-0.1-0.1-0.2-0.1-0.3-0.2c-0.3-0.3-0.6-0.6-0.8-1l2.1,1.4c1.2,0.8,2.9,0.5,3.7-0.7
					c0.8-1.2,0.5-2.9-0.7-3.7l-1.7-1.1c0.3,0.1,0.7,0.2,1,0.4l2.6,1.7v0l2.8,1.8l1.5,1c0.4,0.3,0.7,0.6,0.9,1L78.7,125z M97.8,136.4
					c-1.3-0.7-2.9-0.1-3.6,1.2c-0.7,1.3-0.1,2.9,1.2,3.6l1,0.5c-0.4,0-0.9-0.1-1.3-0.3l0,0l-1.6-0.8l-3.3-1.7l-2.4-1.2
					c-0.2-0.1-0.3-0.2-0.5-0.3c-0.4-0.3-0.7-0.7-0.9-1.1l2,1.3c1.2,0.8,2.9,0.4,3.7-0.8c0.8-1.2,0.4-2.9-0.8-3.7l-1.4-0.9
					c0.2,0.1,0.4,0.1,0.6,0.2l5.7,2.9l1.3,0.7l0.3,0.2c0.2,0.1,0.3,0.2,0.4,0.3c0.2,0.2,0.4,0.4,0.6,0.6L97.8,136.4z M118.7,145.1
					c-1.4-0.4-2.9,0.4-3.3,1.8c-0.4,1.4,0.4,2.9,1.8,3.3l1.1,0.3c-0.4,0.1-0.9,0.1-1.4-0.1l-8-2.3c-0.4-0.1-0.8-0.3-1.1-0.6l0.8,0.4
					c1.3,0.7,2.9,0.1,3.6-1.2c0.7-1.3,0.1-2.9-1.2-3.6l-1.6-0.8c0.4-0.1,0.8,0,1.2,0.1l0.9,0.3l6.4,1.8l0.6,0.2
					c0.5,0.1,0.9,0.4,1.2,0.7L118.7,145.1z M140.4,154.8l-8.3,0.2c-1.1,0-2-0.5-2.6-1.4l2,0.6c1.4,0.4,2.9-0.4,3.3-1.8
					c0.4-1.4-0.4-2.9-1.8-3.3l-0.3-0.1l7.5-0.2c0.5,0,0.9,0.1,1.3,0.3l-1.1,0c-1.5,0-2.6,1.3-2.6,2.7c0,1.5,1.3,2.6,2.7,2.6l1.1,0
					C141.3,154.7,140.9,154.8,140.4,154.8z M164,154.3l-8.3,0.2c-0.5,0-0.9-0.1-1.3-0.3l1.1,0c1.5,0,2.6-1.3,2.6-2.7
					c0-1.5-1.3-2.6-2.7-2.6l-1.1,0c0.4-0.2,0.8-0.3,1.3-0.3l8.3-0.2c0.5,0,0.9,0.1,1.3,0.3l-1.1,0c-1.5,0-2.6,1.3-2.6,2.7
					c0,1.5,1.3,2.6,2.7,2.6l1.1,0C164.9,154.1,164.4,154.3,164,154.3z M187.5,153.7l-8.3,0.2c-0.5,0-0.9-0.1-1.3-0.3l1.1,0
					c1.5,0,2.6-1.3,2.6-2.7c0-1.5-1.3-2.6-2.7-2.6l-1.1,0c0.4-0.2,0.8-0.3,1.3-0.3l8.3-0.2c0.5,0,0.9,0.1,1.3,0.3l-1.1,0
					c-1.5,0-2.6,1.3-2.6,2.7c0,1.5,1.3,2.6,2.7,2.6l1.1,0C188.4,153.6,188,153.7,187.5,153.7z M211.1,153.2l-8.3,0.2
					c-0.5,0-0.9-0.1-1.3-0.3l1.1,0c1.5,0,2.6-1.3,2.6-2.7c0-1.5-1.3-2.6-2.7-2.6l-1.1,0c0.4-0.2,0.8-0.3,1.3-0.3l8.3-0.2
					c0,0,0.1,0,0.1,0l-1,0.5c-1.3,0.7-1.8,2.3-1.1,3.6c0.7,1.3,2.3,1.8,3.6,1.1l0.8-0.4C212.8,152.7,212,153.2,211.1,153.2z"/>
				<g>
					<path id="XMLID_134_" class="st0" d="M140.5,156.7l-8.3,0.2c-4.2,0.1-7.7-3.3-7.8-7.5c-0.1-4.2,3.3-7.7,7.5-7.8l8.3-0.2
						c4.2-0.1,7.7,3.3,7.8,7.5C148.1,153.1,144.7,156.6,140.5,156.7z M132,146.3c-1.6,0-2.9,1.4-2.9,3c0,1.6,1.4,2.9,3,2.9l8.3-0.2
						c1.6,0,2.9-1.4,2.9-3c0-1.6-1.4-2.9-3-2.9L132,146.3z"/>
					<path id="XMLID_131_" class="st0" d="M164.1,156.2l-8.3,0.2c-4.2,0.1-7.7-3.3-7.8-7.5c-0.1-4.2,3.3-7.7,7.5-7.8l8.3-0.2
						c4.2-0.1,7.7,3.3,7.8,7.5C171.6,152.6,168.3,156.1,164.1,156.2z M155.5,145.8c-1.6,0-2.9,1.4-2.9,3c0,1.6,1.4,2.9,3,2.9
						l8.3-0.2c1.6,0,2.9-1.4,2.9-3c0-1.6-1.4-2.9-3-2.9L155.5,145.8z"/>
					<path id="XMLID_130_" class="st10" d="M140.4,152.1l-2.1,0c0.6,0.5,1.4,0.7,2.3,0.7l6.4-0.1c0.6-1.1,0.9-2.4,0.9-3.8
						c0,1.4,0.4,2.6,1.1,3.7l6.4-0.1c0.9,0,1.6-0.3,2.3-0.8l-2.1,0c-1.6,0-3-1.3-3-2.9c0-1.6,1.3-3,2.9-3.1l2.1,0
						c-0.6-0.5-1.4-0.7-2.3-0.7l-6.4,0.1c-0.6,1.1-0.9,2.4-0.9,3.8c0-1.4-0.4-2.6-1.1-3.7l-6.4,0.1c-0.8,0-1.6,0.3-2.3,0.8l2.1,0
						c1.6,0,3,1.3,3,2.9C143.3,150.7,142,152,140.4,152.1z"/>
					<path id="XMLID_129_" class="st0" d="M140.6,151.7l14.9-0.3c1.5,0,2.6-1.3,2.6-2.7c0-1.5-1.3-2.6-2.7-2.6l-14.9,0.3
						c-1.5,0-2.6,1.3-2.6,2.7C137.9,150.6,139.1,151.8,140.6,151.7z"/>
					<path id="XMLID_126_" class="st0" d="M115.7,152.2l-8-2.3c-4.1-1.2-6.4-5.4-5.3-9.4c1.2-4.1,5.4-6.4,9.4-5.3l8,2.3
						c4.1,1.2,6.4,5.4,5.3,9.4C124,150.9,119.7,153.3,115.7,152.2z M110.6,139.7c-1.6-0.4-3.2,0.5-3.7,2c-0.4,1.6,0.5,3.2,2,3.7
						l8,2.3c1.6,0.4,3.2-0.5,3.7-2c0.4-1.6-0.5-3.2-2-3.7L110.6,139.7z"/>
					<path class="st7" d="M115.2,147.2c0.5,0.6,1.1,1,1.8,1.2l6.3,1.8c0.5-0.5,0.9-1,1.2-1.6c0,0.3,0,0.6,0,0.9c0,0.3,0,0.7,0.1,1
						l6.8,1.9c0.3,0.1,0.7,0.1,1,0.1c0.5,0,1-0.1,1.5-0.3l-1.6,0c-1.6,0-3-1.3-3-2.9c0-1.6,1.3-3,2.9-3l2.7-0.1
						c-0.4-0.4-0.9-0.7-1.4-0.8l-6.4-1.8c-0.6,0.5-1.1,1.2-1.5,1.9c0.1-0.8,0-1.6-0.1-2.4l-6.3-1.8c-0.3-0.1-0.7-0.1-1-0.1
						c-0.4,0-0.8,0.1-1.2,0.2l1.8,0.5c1.6,0.4,2.5,2.1,2,3.7c-0.4,1.6-2.1,2.5-3.7,2L115.2,147.2z"/>
					<path id="XMLID_125_" class="st0" d="M117.3,147.4l14.3,4.1c1.4,0.4,2.9-0.4,3.3-1.8c0.4-1.4-0.4-2.9-1.8-3.3l-14.3-4.1
						c-1.4-0.4-2.9,0.4-3.3,1.8C115,145.5,115.9,147,117.3,147.4z"/>
					<path id="XMLID_122_" class="st0" d="M92.9,142.8l-7.4-3.8c-3.8-1.9-5.3-6.5-3.4-10.3c1.9-3.8,6.5-5.3,10.3-3.4l7.4,3.8
						c3.8,1.9,5.3,6.5,3.4,10.3C101.3,143.2,96.7,144.7,92.9,142.8z M90.3,129.6c-1.5-0.7-3.3-0.2-4,1.3c-0.7,1.5-0.2,3.3,1.3,4
						l7.4,3.8c1.5,0.7,3.3,0.2,4-1.3c0.7-1.5,0.2-3.3-1.3-4L90.3,129.6z"/>
					<path class="st7" d="M93.4,137.8c0.3,0.6,0.9,1.2,1.5,1.5l5.8,2.9c0.6-0.4,1.2-1,1.7-1.6c-0.2,0.8-0.3,1.6-0.2,2.3l6,3
						c0.5,0.3,1.1,0.4,1.6,0.4c0.5,0,1.1-0.1,1.5-0.3l-2.3-0.7c-1.6-0.4-2.5-2.1-2-3.7c0.4-1.6,2.1-2.5,3.7-2l1.7,0.5
						c-0.2-0.2-0.5-0.4-0.8-0.6l-6.2-3.2c-0.6,0.4-1,0.9-1.5,1.4c0.2-0.7,0.2-1.4,0.2-2.1l-5.8-2.9c-0.5-0.3-1.1-0.4-1.6-0.4
						c-0.2,0-0.3,0-0.5,0l1.7,0.8c1.5,0.7,2,2.5,1.3,4c-0.7,1.5-2.5,2.1-4,1.3L93.4,137.8z"/>
					<path id="XMLID_121_" class="st0" d="M95.4,138.4l13.2,6.7c1.3,0.7,2.9,0.1,3.6-1.2c0.7-1.3,0.1-2.9-1.2-3.6l-13.2-6.7
						c-1.3-0.7-2.9-0.1-3.6,1.2C93.5,136.2,94.1,137.8,95.4,138.4z"/>
					<path id="XMLID_118_" class="st0" d="M72.9,130.7l-7-4.5c-3.5-2.3-4.6-7-2.3-10.6c2.3-3.5,7-4.6,10.6-2.3l7,4.5
						c3.5,2.3,4.6,7,2.3,10.6S76.5,133,72.9,130.7z M71.7,117.3c-1.4-0.9-3.2-0.5-4.1,0.9c-0.9,1.4-0.5,3.2,0.9,4.1l7,4.5
						c1.4,0.9,3.2,0.5,4.1-0.9c0.9-1.4,0.5-3.2-0.9-4.1L71.7,117.3z"/>
					<path class="st7" d="M73.9,125.8c0.3,0.7,0.7,1.3,1.4,1.7l5.5,3.5c0.3-0.2,0.5-0.3,0.8-0.5c-0.1,0.3-0.1,0.6-0.2,0.9l6.4,4.1
						c0.6,0.4,1.4,0.6,2.1,0.6c0.1,0,0.1,0,0.2,0l-2.4-1.2c-1.5-0.7-2-2.5-1.3-4c0.7-1.5,2.5-2,4-1.3l2.6,1.3
						c-0.3-0.6-0.7-1.1-1.3-1.4l-6.2-4c-0.3,0.2-0.7,0.4-1,0.6c0.1-0.4,0.1-0.7,0.2-1.1l-5.5-3.5c-0.6-0.4-1.3-0.6-2.1-0.6l1.5,1
						c1.4,0.9,1.8,2.7,0.9,4.1c-0.9,1.4-2.7,1.8-4.1,0.9L73.9,125.8z"/>
					<path id="XMLID_117_" class="st0" d="M75.8,126.7l12.5,8.1c1.2,0.8,2.9,0.4,3.7-0.8c0.8-1.2,0.4-2.9-0.8-3.7l-12.5-8.1
						c-1.2-0.8-2.9-0.4-3.7,0.8C74.2,124.2,74.6,125.9,75.8,126.7z"/>
					<path id="XMLID_114_" class="st0" d="M54,118.1l-6.8-4.8c-3.4-2.4-4.3-7.2-1.9-10.6c2.4-3.4,7.2-4.3,10.6-1.9l6.8,4.8
						c3.4,2.4,4.3,7.2,1.9,10.6C62.2,119.7,57.5,120.5,54,118.1z M53.3,104.7c-1.3-0.9-3.2-0.6-4.1,0.7c-0.9,1.3-0.6,3.2,0.7,4.1
						l6.8,4.8c1.3,0.9,3.2,0.6,4.1-0.7c0.9-1.3,0.6-3.2-0.7-4.1L53.3,104.7z"/>
					<path class="st7" d="M55.3,113.3c0.3,0.7,0.7,1.2,1.3,1.7l5.4,3.6c0.2-0.1,0.4-0.2,0.6-0.4c-0.1,0.2-0.1,0.5-0.1,0.7l6.4,4.3
						c0.6,0.4,1.3,0.6,2,0.6l-2.4-1.6c-1.4-0.9-1.8-2.7-0.9-4.1c0.9-1.4,2.7-1.8,4.1-0.9l2.6,1.7c-0.2-0.7-0.7-1.3-1.4-1.8l-6.3-4.3
						c-0.3,0.1-0.5,0.3-0.8,0.5c0.1-0.3,0.1-0.6,0.1-0.9l-5.3-3.6c-0.6-0.4-1.3-0.6-2.1-0.6l1.5,1.1c1.3,0.9,1.7,2.8,0.7,4.1
						c-0.9,1.3-2.8,1.7-4.1,0.7L55.3,113.3z"/>
					<path id="XMLID_113_" class="st0" d="M57.2,114.2l12.3,8.3c1.2,0.8,2.9,0.5,3.7-0.7c0.8-1.2,0.5-2.9-0.7-3.7l-12.3-8.3
						c-1.2-0.8-2.9-0.5-3.7,0.7C55.6,111.7,56,113.3,57.2,114.2z"/>
					<path id="XMLID_110_" class="st0" d="M36.4,100l-5.2-6.5c-2.6-3.3-2.1-8.1,1.2-10.7c3.3-2.6,8.1-2.1,10.7,1.2l5.2,6.5
						c2.6,3.3,2.1,8.1-1.2,10.7C43.8,103.8,39,103.2,36.4,100z M39.5,86.9c-1-1.3-2.9-1.5-4.2-0.5c-1.3,1-1.5,2.9-0.5,4.2L40,97
						c1,1.3,2.9,1.5,4.2,0.5c1.3-1,1.5-2.9,0.5-4.2L39.5,86.9z"/>
					<path class="st7" d="M38.8,95.6c0,0.7,0.3,1.4,0.8,2l4.1,5.1c0.8-0.1,1.7-0.4,2.4-0.9c-0.3,0.3-0.5,0.6-0.7,0.9
						c-0.3,0.4-0.5,0.8-0.7,1.2l4.2,5.3c0.6,0.8,1.5,1.2,2.5,1.3l-1.5-1c-1.3-0.9-1.7-2.8-0.7-4.1c0.9-1.3,2.8-1.7,4.1-0.7l1.9,1.3
						c-0.1-0.5-0.4-0.9-0.7-1.3l-4.1-5.1c-0.9,0.1-1.8,0.4-2.6,0.9c0.7-0.7,1.2-1.5,1.5-2.3l-4.1-5.1c-0.5-0.6-1.1-1-1.8-1.2
						l1.2,1.4c1,1.3,0.8,3.2-0.5,4.2c-1.3,1-3.2,0.8-4.2-0.5L38.8,95.6z"/>
					<path id="XMLID_109_" class="st0" d="M40.4,97l9.3,11.6c0.9,1.1,2.6,1.3,3.7,0.4c1.1-0.9,1.3-2.6,0.4-3.7l-9.3-11.6
						c-0.9-1.1-2.6-1.3-3.7-0.4C39.7,94.2,39.5,95.9,40.4,97z"/>
					<path id="XMLID_106_" class="st0" d="M21.4,81.5L16.2,75c-2.6-3.3-2.1-8.1,1.2-10.7s8.1-2.1,10.7,1.2l5.2,6.5
						c2.6,3.3,2.1,8.1-1.2,10.7C28.8,85.3,24,84.8,21.4,81.5z M24.5,68.4c-1-1.3-2.9-1.5-4.2-0.5c-1.3,1-1.5,2.9-0.5,4.2l5.2,6.5
						c1,1.3,2.9,1.5,4.2,0.5c1.3-1,1.5-2.9,0.5-4.2L24.5,68.4z"/>
					<path class="st7" d="M30.1,85.9l3.9,4.8c0.5,0.7,1.2,1.1,2,1.3l-1.1-1.4c-1-1.3-0.8-3.2,0.5-4.2c1.3-1,3.2-0.8,4.2,0.5l0.9,1.1
						c-0.1-0.6-0.3-1.2-0.8-1.7l-4-5c-1.1,0.2-2.2,0.7-3.2,1.5C31.3,83.6,30.5,84.7,30.1,85.9z"/>
					<path class="st7" d="M23.9,77.1c0,0.7,0.3,1.4,0.8,2l4.1,5.1c1.2-0.2,2.4-0.7,3.4-1.5c1-0.8,1.8-1.8,2.3-3l-4.1-5.1
						c-0.5-0.6-1.1-1-1.8-1.2l1.2,1.4c1,1.3,0.8,3.2-0.5,4.2c-1.3,1-3.2,0.8-4.2-0.5L23.9,77.1z"/>
					<path id="XMLID_105_" class="st0" d="M25.4,78.5l9.3,11.6c0.9,1.1,2.6,1.3,3.7,0.4c1.1-0.9,1.3-2.6,0.4-3.7l-9.3-11.6
						c-0.9-1.1-2.6-1.3-3.7-0.4C24.7,75.7,24.5,77.4,25.4,78.5z"/>
					<path id="XMLID_102_" class="st0" d="M187.6,155.7l-8.3,0.2c-4.2,0.1-7.7-3.3-7.8-7.5c-0.1-4.2,3.3-7.7,7.5-7.8l8.3-0.2
						c4.2-0.1,7.7,3.3,7.8,7.5C195.2,152.1,191.8,155.6,187.6,155.7z M179.1,145.2c-1.6,0-2.9,1.4-2.9,3c0,1.6,1.4,2.9,3,2.9
						l8.3-0.2c1.6,0,2.9-1.4,2.9-3c0-1.6-1.4-2.9-3-2.9L179.1,145.2z"/>
					<path id="XMLID_101_" class="st10" d="M163.9,151.5l-2,0c0.6,0.5,1.4,0.7,2.3,0.7l6.4-0.1c0.6-1.1,0.9-2.4,0.9-3.8
						c0,1.4,0.4,2.6,1.1,3.7l6.4-0.1c0.8,0,1.6-0.3,2.2-0.8l-2,0c-1.6,0-3-1.3-3.1-2.9c0-1.6,1.3-3,2.9-3.1l2,0
						c-0.6-0.5-1.4-0.7-2.3-0.7l-6.4,0.1c-0.6,1.1-0.9,2.4-0.9,3.8c0-1.4-0.4-2.6-1.1-3.7l-6.4,0.1c-0.8,0-1.6,0.3-2.2,0.8l2,0
						c1.6,0,3,1.3,3,2.9C166.9,150.1,165.6,151.5,163.9,151.5z"/>
					<path id="XMLID_100_" class="st0" d="M164.2,151.2l14.9-0.3c1.5,0,2.6-1.3,2.6-2.7c0-1.5-1.3-2.6-2.7-2.6l-14.9,0.3
						c-1.5,0-2.6,1.3-2.6,2.7S162.7,151.2,164.2,151.2z"/>
					<path id="XMLID_97_" class="st0" d="M211.2,155.1l-8.3,0.2c-4.2,0.1-7.7-3.3-7.8-7.5c-0.1-4.2,3.3-7.7,7.5-7.8l8.3-0.2
						c4.2-0.1,7.7,3.3,7.8,7.5C218.7,151.5,215.4,155,211.2,155.1z M202.7,144.7c-1.6,0-2.9,1.4-2.9,3c0,1.6,1.4,2.9,3,2.9l8.3-0.2
						c1.6,0,2.9-1.4,2.9-3c0-1.6-1.4-2.9-3-2.9L202.7,144.7z"/>
					<path id="XMLID_96_" class="st10" d="M187.5,151l-2,0c0.6,0.5,1.4,0.7,2.3,0.7l6.4-0.1c0.6-1.1,0.9-2.4,0.9-3.8
						c0,1.4,0.4,2.6,1.1,3.7l6.4-0.1c0.8,0,1.6-0.3,2.2-0.8l-2,0c-1.6,0-3-1.3-3-2.9c0-1.6,1.3-3,2.9-3.1l2,0
						c-0.6-0.5-1.4-0.7-2.3-0.7l-6.4,0.1c-0.6,1.1-0.9,2.4-0.9,3.8c0-1.4-0.4-2.6-1.1-3.7l-6.4,0.1c-0.8,0-1.6,0.3-2.2,0.8l2,0
						c1.6,0,3,1.3,3.1,2.9C190.5,149.6,189.1,151,187.5,151z"/>
					<path id="XMLID_95_" class="st0" d="M187.7,150.7l14.9-0.3c1.5,0,2.6-1.3,2.6-2.7c0-1.5-1.3-2.6-2.7-2.6l-14.9,0.3
						c-1.5,0-2.6,1.3-2.6,2.7C185,149.5,186.3,150.7,187.7,150.7z"/>
					<path id="XMLID_94_" class="st10" d="M211.1,150.5l-1.9,0c0.6,0.4,1.4,0.7,2.2,0.6c0.6,0,1.2-0.2,1.7-0.4l5.6-3
						c0-0.1,0-0.3,0-0.4c-0.1-2.6-1.4-4.9-3.5-6.2l-5.6,3c-0.2,0.1-0.5,0.3-0.7,0.5l2.1,0c1.6,0,3,1.3,3,2.9
						C214,149.1,212.7,150.4,211.1,150.5z"/>
					<path id="XMLID_93_" class="st0" d="M212.6,149.7l13.1-7c1.3-0.7,1.8-2.3,1.1-3.6c-0.7-1.3-2.3-1.8-3.6-1.1l-13.1,7
						c-1.3,0.7-1.8,2.3-1.1,3.6C209.6,149.9,211.3,150.4,212.6,149.7z"/>
					<path class="st7" d="M15.5,66.5L15.5,66.5l4.6,7c0.5,0.8,1.3,1.3,2.2,1.5l-2.4-3c-1-1.3-0.8-3.2,0.5-4.2c1.3-1,3.2-0.8,4.2,0.5
						l2.2,2.8c-0.1-0.5-0.2-1-0.6-1.5l-4.6-7c-1.5,0.1-2.9,0.7-4.2,1.6C16.6,64.9,15.9,65.7,15.5,66.5z"/>
					<path id="XMLID_92_" class="st0" d="M25.3,70.1l-8.1-12.4c-0.8-1.2-2.5-1.6-3.7-0.8c-1.2,0.8-1.6,2.5-0.8,3.7l8.1,12.4
						c0.8,1.2,2.5,1.6,3.7,0.8C25.8,73,26.1,71.4,25.3,70.1z"/>
				</g>
			</g>
		</g>
	</g>
</g>
</svg>
