<?xml version="1.0" encoding="utf-8"?>
<!-- Generator: Adobe Illustrator 20.0.0, SVG Export Plug-In . SVG Version: 6.00 Build 0)  -->
<svg version="1.1" id="Layer_1" xmlns="http://www.w3.org/2000/svg" xmlns:xlink="http://www.w3.org/1999/xlink" x="0px" y="0px"
	 viewBox="0 0 184.6 270.8" style="enable-background:new 0 0 184.6 270.8;" xml:space="preserve">
<style type="text/css">
	.st0{fill-rule:evenodd;clip-rule:evenodd;fill:#231F20;}
	.st1{fill-rule:evenodd;clip-rule:evenodd;fill:#C0E3DA;}
	.st2{fill-rule:evenodd;clip-rule:evenodd;fill:#D0D2D3;}
	.st3{fill-rule:evenodd;clip-rule:evenodd;fill:#929497;}
	.st4{fill-rule:evenodd;clip-rule:evenodd;fill:#92298D;}
	.st5{fill-rule:evenodd;clip-rule:evenodd;fill:#6D6E70;}
	.st6{fill:#F1F1F2;}
	.st7{fill:#FFFFFF;}
	.st8{fill-rule:evenodd;clip-rule:evenodd;fill:#404041;}
	.st9{fill-rule:evenodd;clip-rule:evenodd;fill:#A5B3AC;}
	.st10{fill-rule:evenodd;clip-rule:evenodd;fill:#5E6E66;}
	.st11{fill:#C0E3DA;}
	.st12{fill-rule:evenodd;clip-rule:evenodd;fill:#808184;}
	.st13{fill-rule:evenodd;clip-rule:evenodd;fill:#A36C35;}
	.st14{fill-rule:evenodd;clip-rule:evenodd;fill:#784D20;}
</style>
<g>
	<path class="st0" d="M159.5,48.9c-1,9.1-22.2,197.5-22.2,197.5l39,4.5l-0.4,1l-38.6-4.1l-1.2,9.6l40.9,4.1l-0.9,1l-41.9-4.2l0.1-1
		L7.6,245.9l-0.1-0.9l45.9,4.1v-9.2l-42.5-4.6l3.9-0.7l38.4,3.7c0,0-2.7-187.8-1.9-189C56.7,49.4,159.2,48.7,159.5,48.9z"/>
	<path class="st1" d="M134.9,256c-19.1-1.7-80-7-80-7L52.8,50.7c0,0,65.1,0,104.4-0.1C155.5,70.6,136.7,242.3,134.9,256z"/>
	<path class="st0" d="M65.2,139.8c-2.6,4.1-0.6,9,3.6,9.8c6.3,0.6,8-2.5,8.4-5c0.6-3.9-2.2-6.7-5.2-7.2
		C68.8,136.9,66.4,138.2,65.2,139.8z"/>
	<path class="st0" d="M62.6,158.5c-2,5.2,2.1,9.2,6.1,10c4.5,0.9,8.5-3.1,9-6.8c0.7-4.7-2.8-8.5-7-8.4
		C66.7,153.5,63.7,155.7,62.6,158.5z"/>
	<path class="st2" d="M69.6,138.6c3.6-0.6,6.4,1.6,6.5,4.8c0.3,7.1-11.4,6.9-10.8-0.4C65.4,141,67.1,139,69.6,138.6z"/>
	<path class="st2" d="M67,167.1c-3.3-1.6-4.5-5.8-2.8-9c3-5.6,12.8-4.2,12.4,3.3C76.4,164.8,72.8,168.9,67,167.1z"/>
	<path class="st0" d="M66.3,162.9c4.9,6.6,10.8-4.3,4-5.5C67.3,156.6,64.5,160.4,66.3,162.9z"/>
	<path class="st2" d="M70.9,158.8c3.4,2.6-1.8,6.9-3.6,3.1C66.1,159.6,69.1,157.7,70.9,158.8z"/>
	<polygon class="st0" points="70,159.3 69.8,162.8 69.4,162.8 69.2,159.2 	"/>
	<path class="st0" d="M70.8,150.4c0,0,4.2-8.2,5.3-10.1c-0.2-0.2-1.2-1.7-1.6-2.2c-1.3-0.1-2.5-1.6-4-1.7
		c-1.9,1.2-6.3,10.4-6.3,10.6c0.2,1.4,2.5,2.3,2.8,3.1C68,150.2,70,150.5,70.8,150.4z"/>
	<path class="st2" d="M72.5,139.1c-1.8,3-3.5,6-5.2,9.2c-0.4-0.3-1.7-0.9-1.7-1.4c0.3-1.5,4.1-8.4,4.8-8.9
		C70.8,137.9,72.5,139.1,72.5,139.1z"/>
	<path class="st3" d="M73.7,139.5c0.2,0,0.6,0.8,0.8,0.8c0.1,0.5-4.5,9.1-4.8,8.9c-0.4,0-1-0.3-1.4-0.3
		C70.1,146,71.9,142.4,73.7,139.5z"/>
	<g>
		<path class="st0" d="M56.1,29.9c-2.7,1.5-5.8,2.6-8.5,4.1c0.4,1.3,1.2,2.3,1.7,3.5c0.3-0.2,0.5-0.2,1-0.2c0.7,0.7,1.1,2.1,1.7,2.2
			c2.3,0.2,3.7-0.6,5.5-1.1c-0.6-1.5-1.1-5.7-1.1-5.7l8.5-1l3.5,13.8l-9.2,0.8c0,0-0.8-3.2-1.1-4.5c-2.1,1.1-6.3,2.8-7.3,2.7
			c-2.5-0.1-4.4-3.7-4.9-5c0-0.3,0.7-0.6,0.7-0.6c-0.6-1.2-1.3-2.4-1.9-3.5c-1.4,0.5-2.3,1.5-4.1,1.4c-5.4-0.3-11.4-0.1-16.9-0.2
			c-0.1-0.2-5.6-13.9-5.4-14.4c0.3-0.2,7.1-0.9,14.8-1.4c6.5-0.4,13.6-0.4,18.5-0.6C54.2,22.3,56.1,25.6,56.1,29.9z"/>
		<path class="st2" d="M54.8,29.4c-4.1,2.1-8.5,4-12.7,6.1c-2.5-4.4-5.7-8.8-8.2-13.6c3.7-0.2,15.8-0.9,16.9-0.6
			C52.9,22.3,54.7,27.1,54.8,29.4z"/>
		<path class="st2" d="M41.1,35.8c-5.1,0.3-11.2,0.1-16.8,0.1c-1.5-4.3-3.4-8.6-4.8-13c0.1-0.2,9-0.7,13-1.2
			C32.8,21.7,39.5,33,41.1,35.8z"/>
		<path class="st0" d="M20.2,23.4c1.4,4.1,2.5,8,4.3,11.8c5.8,0.1,11.3,0,15.2,0c0.3-0.2-6.5-11.8-7.4-12.9
			C28.4,23.1,24.3,22.7,20.2,23.4z"/>
		<path class="st2" d="M32.9,25.2c-4.2-0.9-5.8,1.8-6.1,4.1c0.3,4.4,7.8,4.7,8.4,0.4c0,0.3,0.3,1,0.3,1.3c-2.8,5.2-9,1.6-9.3-0.5
			c-0.9-3.1,1-7.2,6.1-6.2C32.3,24.4,32.9,25.1,32.9,25.2z"/>
		<path class="st4" d="M34.2,29.9c-1.5,3.6-6.3,1.9-6.1-0.6c0.1-2,1.6-4.2,4.4-3.1C33.7,26.6,34.4,28.5,34.2,29.9z"/>
		<path class="st2" d="M63.9,32.8l3,11.7l-6.8,0.7l-0.8-3.9l0.9-0.3c0,0,0.8,2.8,0.8,2.6c0-0.1,3.9-0.8,3.9-0.8l-2.4-8.4l-3.9,1.3
			c0,0,0.7,1.5,0.7,1.9L58.4,38c-0.5-1.1-1-3.8-1-3.8L63.9,32.8z"/>
		<path class="st5" d="M46.5,34.5c0.4,1.3,1.3,2.2,1.7,3.5l-0.7,0.4L45.8,35C45.8,34.9,46.5,34.5,46.5,34.5z"/>
		<path class="st2" d="M61.9,35.8l1.8,6.2c0,0-1.9,0.8-2.1,0.9l-0.9-2.3c0.9-0.6,0.5-1.1-0.3-0.9c-0.5,0-7.8,3.6-9.8,3.7
			c-1.6-0.2-2.9-1.6-3.4-3.6c0.7-0.3,1.9-0.9,2.5-1.3c0.5,0.5,0.6,1.9,1.3,2.2c2.4,0.4,6.5-1.4,9.8-2.4c0.1-0.2,0.3-0.4,0.2-0.7
			c-0.2-0.3-0.5-0.1-0.8-0.1c-0.2-0.3-0.5-0.9-0.5-0.9L61.9,35.8z"/>
		<path class="st6" d="M50.7,21.3c-1-0.3-13.2,0.3-16.9,0.6c0.4,0.8,0.8,1.6,1.3,2.3l17.2-1.3C51.9,22.1,51.3,21.6,50.7,21.3z"/>
		<ellipse class="st7" cx="29.1" cy="28.1" rx="0.6" ry="0.6"/>
		<ellipse class="st7" cx="29" cy="29.8" rx="0.4" ry="0.4"/>
	</g>
	<g>
		<path class="st0" d="M145.7,29.5c-2.7,1.5-5.8,2.6-8.5,4.1c0.4,1.3,1.2,2.3,1.7,3.5c0.3-0.2,0.5-0.2,1-0.2
			c0.7,0.7,1.1,2.1,1.7,2.2c2.3,0.2,3.7-0.6,5.5-1.1c-0.6-1.5-1.1-5.7-1.1-5.7l8.5-1l3.5,13.8l-9.2,0.8c0,0-0.8-3.2-1.1-4.5
			c-2.1,1.1-6.3,2.8-7.3,2.7c-2.5-0.1-4.4-3.7-4.9-5c0-0.3,0.7-0.6,0.7-0.6c-0.6-1.2-1.3-2.4-1.9-3.5c-1.4,0.5-2.3,1.5-4.1,1.4
			c-5.4-0.3-11.4-0.1-16.9-0.2c-0.1-0.2-5.6-13.9-5.4-14.4c0.3-0.2,7.1-0.9,14.8-1.4c6.5-0.4,13.6-0.4,18.5-0.6
			C143.8,21.9,145.7,25.3,145.7,29.5z"/>
		<path class="st2" d="M144.5,29c-4.1,2.1-8.5,4-12.7,6.1c-2.5-4.4-5.7-8.8-8.2-13.6c3.7-0.2,15.8-0.9,16.9-0.6
			C142.6,22,144.3,26.7,144.5,29z"/>
		<path class="st2" d="M130.7,35.4c-5.1,0.3-11.2,0.1-16.8,0.1c-1.5-4.3-3.4-8.6-4.8-13c0.1-0.2,9-0.7,13-1.2
			C122.4,21.4,129.1,32.7,130.7,35.4z"/>
		<path class="st0" d="M109.9,23.1c1.4,4.1,2.5,8,4.3,11.8c5.8,0.1,11.3,0,15.2,0c0.3-0.2-6.5-11.8-7.4-12.9
			C118.1,22.7,113.9,22.4,109.9,23.1z"/>
		<path class="st2" d="M122.6,24.9c-4.2-0.9-5.8,1.8-6.1,4.1c0.3,4.4,7.8,4.7,8.4,0.4c0,0.3,0.3,1,0.3,1.3c-2.8,5.2-9,1.6-9.3-0.5
			c-0.9-3.1,1-7.2,6.1-6.2C122,24,122.5,24.8,122.6,24.9z"/>
		<path class="st4" d="M123.9,29.5c-1.5,3.6-6.3,1.9-6.1-0.6c0.1-2,1.6-4.2,4.4-3.1C123.4,26.3,124.1,28.1,123.9,29.5z"/>
		<path class="st2" d="M153.6,32.5l3,11.7l-6.8,0.7L149,41l0.9-0.3c0,0,0.8,2.8,0.8,2.6c0-0.1,3.9-0.8,3.9-0.8l-2.4-8.4l-3.9,1.3
			c0,0,0.7,1.5,0.7,1.9l-0.9,0.3c-0.5-1.1-1-3.8-1-3.8L153.6,32.5z"/>
		<path class="st5" d="M136.2,34.2c0.4,1.3,1.3,2.2,1.7,3.5l-0.7,0.4l-1.8-3.4C135.5,34.6,136.2,34.2,136.2,34.2z"/>
		<path class="st2" d="M151.6,35.4l1.8,6.2c0,0-1.9,0.8-2.1,0.9l-0.9-2.3c0.9-0.6,0.5-1.1-0.3-0.9c-0.5,0-7.8,3.6-9.8,3.7
			c-1.6-0.2-2.9-1.6-3.4-3.6c0.7-0.3,1.9-0.9,2.5-1.3c0.5,0.5,0.6,1.9,1.3,2.2c2.4,0.4,6.5-1.4,9.8-2.4c0.1-0.2,0.3-0.4,0.2-0.7
			c-0.2-0.3-0.5-0.1-0.8-0.1c-0.2-0.3-0.5-0.9-0.5-0.9L151.6,35.4z"/>
		<path class="st6" d="M140.4,20.9c-1-0.3-13.2,0.3-16.9,0.6c0.4,0.8,0.8,1.6,1.3,2.3l17.2-1.3C141.6,21.8,141,21.2,140.4,20.9z"/>
		<ellipse class="st7" cx="118.8" cy="27.7" rx="0.6" ry="0.6"/>
		<ellipse class="st7" cx="118.7" cy="29.4" rx="0.4" ry="0.4"/>
	</g>
	<g>
		<polygon class="st0" points="104.6,128.9 105.8,130 103.8,156.7 102,157.5 81.6,156.4 82.2,129.3 		"/>
		<path class="st2" d="M103.3,130.2c-0.8,8.5-1.3,18.1-2.2,26c-6.4,0.1-11.6-0.2-17.9-0.7c0.2-8.2,0.2-15.7,0-24.7
			C90,130.7,96.8,130.4,103.3,130.2z"/>
		<path class="st0" d="M84.3,132l-0.1,20.8l16,0.1c0,0,1.4-21.3,1.3-21.3C101.3,131.5,84.3,132,84.3,132z"/>
		<polygon class="st3" points="104.8,130.6 102.9,156.1 102.2,156.4 104.1,130 		"/>
		<polygon class="st8" points="85.5,133 89.9,133.3 89.8,136.8 85.4,136.7 		"/>
		<polygon class="st8" points="91.1,133.2 95.1,133.1 94.9,136.9 91,136.9 		"/>
		<polygon class="st8" points="96,133.1 100.1,133 99.9,137.2 95.9,137.1 		"/>
		<polygon class="st8" points="89.7,138 89.8,141.6 85.4,141.5 85.3,137.9 		"/>
		<polygon class="st8" points="94.9,138.1 94.7,141.7 91,141.7 91,138 		"/>
		<polygon class="st8" points="99.9,138.2 99.6,141.9 95.9,141.7 96,138.2 		"/>
		<polygon class="st8" points="85.3,142.7 89.6,142.8 89.6,146.8 85.4,146.8 		"/>
		<polygon class="st8" points="90.9,142.7 94.6,142.8 94.7,147 90.9,147 		"/>
		<path class="st8" d="M95.9,142.9c1.3-0.1,2.4,0.1,3.6,0c0,1.4-0.2,4.1-0.2,4.1l-3.6,0C95.7,147,96,144.2,95.9,142.9z"/>
		<polygon class="st8" points="85.3,148 89.6,147.9 89.5,152 85,151.6 		"/>
		<polygon class="st8" points="90.9,148 94.6,148 94.5,152.1 90.8,152 		"/>
		<polygon class="st8" points="95.8,148.2 99.2,148.2 99,151.9 95.8,152.2 		"/>
		<path class="st7" d="M88.1,136.3l-0.6,0.1l-0.3-2.8l-0.7,0.2l-0.1-0.5l1.5,0L88.1,136.3z"/>
		<path class="st7" d="M91.9,136.2c0,0,1.8-2.4-0.2-1.7l-0.3-0.8c1.3-0.2,3.6-0.2,1.6,2.1l1.3,0l0,0.4L91.9,136.2z"/>
		<path class="st7" d="M97.5,134.7c5.6-0.5-0.1,1.8-0.1,1.8l-0.2-0.3c3.3-2-0.6-1.1-0.6-1.1l1-1.1l-1.3,0.2l0.1-0.7l2.6,0
			L97.5,134.7z"/>
		<path class="st7" d="M88.3,139.9l0.1,1.6l-0.4,0.1l-0.2-1.6l-2.2,0.5l1.1-2.7l0.9-0.1l-0.8,2.2l1-0.2l-0.1-0.9l0.5-0.1l0.1,0.9
			l0.5-0.1l0.1,0.3L88.3,139.9z"/>
		<path class="st7" d="M92,138.8l0,0.6c5.6-0.5-0.1,1.8-0.1,1.8l-0.2-0.3c3.3-2-0.6-1.1-0.6-1.1l-0.2-1.2l1.5-0.3l0.2,0.4L92,138.8z
			"/>
		<path class="st7" d="M97.3,139.7c1.8,0,2.6,0.6,0.8,1.3c-3.5,1.5-2.2-1.4,0.1-2.6l0.3,0.4C98,139.2,97.6,139.5,97.3,139.7z
			 M98.2,140.6c0.3-0.2-0.9-0.4-1.4-0.4c-0.1,0.1-0.1,0.2-0.1,0.4C96.5,141.3,97.9,140.9,98.2,140.6L98.2,140.6z"/>
		<path class="st7" d="M88,146.2h-0.8l0.4-2.5l-1.4-0.3l0-0.2l2.1,0L88,146.2z"/>
		<path class="st7" d="M93.8,144.5c0.3,0.4,0,1-0.6,1.4c-0.6,0.4-1.2,0.4-1.5,0c-0.2-0.3-0.1-0.8,0.4-1.2c-0.3,0-0.5,0-0.6-0.2
			c-0.2-0.3,0-0.8,0.5-1.1c0.5-0.3,1-0.3,1.2,0c0.2,0.3,0.1,0.6-0.2,0.9C93.3,144.2,93.7,144.2,93.8,144.5L93.8,144.5z M92,143.7
			c-0.2,0.2-0.4,0.4-0.2,0.6c0.1,0.1,0.4,0.1,0.6-0.1c0.2-0.2,0.4-0.4,0.2-0.6C92.5,143.5,92.2,143.5,92,143.7z M93.4,144.7
			c-0.1-0.2-0.5-0.2-0.8,0.1c-0.3,0.2-0.4,0.5-0.3,0.7c0.1,0.2,0.5,0.2,0.8,0C93.4,145.1,93.6,144.8,93.4,144.7L93.4,144.7z"/>
		<path class="st7" d="M96.7,143.9c3.1-2.2,2.4,0.9,0.4,2.6l-0.4-0.4c0.5-0.5,0.8-0.8,1-1.1C96,145.5,95.1,145,96.7,143.9z
			 M98.2,144c0-0.7-1.3,0-1.5,0.3c-0.2,0.3,0.9,0.3,1.5,0.1C98.2,144.3,98.2,144.1,98.2,144L98.2,144z"/>
		<path class="st7" d="M94,149.5c0.3,0.6-0.2,1.4-1.1,1.8c-0.8,0.3-1.7,0.1-2-0.6c-0.3-0.7,0.2-1.5,1.1-1.8
			C92.9,148.6,93.8,148.9,94,149.5L94,149.5z M93.5,149.6c-0.1-0.3-0.6-0.3-1.1-0.1c-0.5,0.2-0.8,0.6-0.7,0.8
			c0.1,0.3,0.6,0.3,1.1,0.1C93.2,150.2,93.6,149.8,93.5,149.6L93.5,149.6z"/>
	</g>
	<g>
		<path class="st0" d="M52.4,202c-1.4,0.1-3.4-0.3-4.1-1c-0.9-0.8-3.3-13.6,2-18.3c0.8-0.2,24.2-0.1,28.7,0.3
			c2.3,0.2,3.2,0.8,3.6,1.8c0.5,0.6-0.6,15.3-1.5,17.6c-0.5,0.7-1.9,1.4-3.6,1.2C77.4,203.6,52.6,202.1,52.4,202z"/>
		<path class="st9" d="M54.2,183.7c-3.7,4.3-2.9,16.8-2.4,17.5c-0.9,0.2-1.5-0.4-2.4-0.4c-1.1-2.5-1.9-12.3,1.4-17
			C51.9,183.6,53.8,183.8,54.2,183.7z"/>
		<path class="st9" d="M79.2,184.2c0.3,0.3-0.2,18.1-2,18.2c-6.6-0.5-15-0.9-21.6-1.3c-0.2-0.5-0.5-1.3-0.4-1.9
			c5.8,0.1,12.1,0.6,18.5,0.5c0.7,0.3,2.1,0.5,2.8,0.4c1.3-0.9,1.7-11,1.2-13.3c-0.8-0.6-2.1-0.6-3.2-0.9c-5.9,0.4-12.3-0.4-18,0.3
			c-0.6,0.7,12.3,0.9,18,0.7c0.4,3.9,0.2,8.3-0.9,11.9c-6.2-0.1-12.7-0.2-18.3-0.7c-0.3-1-1.6-8.3,1.9-14.4
			C57.4,183.7,77.9,183.4,79.2,184.2z"/>
		<path class="st9" d="M55.7,184.1c-3.3,6.4-1.8,16.1-1.3,17.3c0,0-1.1-0.2-1.5-0.3c-1.8-5.7,1-15.4,2.1-17
			C55.3,184.1,55.6,184,55.7,184.1z"/>
		<path class="st10" d="M80.3,184.2c0.3,0.1,0.6,0.3,0.9,0.5c0.8,1.6-0.9,16.5-0.9,16.8c0,0.6-1,0.9-1.8,1.1
			C79.7,198.1,80.6,189.9,80.3,184.2z"/>
		<path class="st10" d="M75.6,187.4c0.5-0.1,0.6,0.2,1,0.2c0.8,3.3-0.5,10-0.4,11.4c0,0-0.8,0.1-1.4-0.3
			C75.5,195.1,75.7,191.3,75.6,187.4z"/>
		<g>
			<path class="st0" d="M59,183.4c0.9,0,1.5,1.6,0.8,2.3c-0.9,0.8-2.6,0.3-2.3-1.1C57.6,183.9,58.2,183.4,59,183.4z"/>
			<path class="st9" d="M59.2,184.1c-0.2,0.3-0.9,0.8-1.2,1C57.7,184.3,58.7,183.6,59.2,184.1z"/>
			<path class="st9" d="M59.5,184.4c0.4,1-0.5,1.7-1.3,1.1L59.5,184.4z"/>
		</g>
		<g>
			<path class="st0" d="M77.5,183.9c0.9,0,1.5,1.6,0.8,2.3c-0.9,0.8-2.6,0.3-2.3-1.1C76.2,184.4,76.8,183.9,77.5,183.9z"/>
			<path class="st9" d="M77.7,184.6c-0.2,0.3-0.9,0.8-1.2,1C76.3,184.8,77.3,184.1,77.7,184.6z"/>
			<path class="st9" d="M78.1,184.9c0.4,1-0.5,1.7-1.3,1.1L78.1,184.9z"/>
		</g>
		<g>
			<path class="st0" d="M76.1,199.7c0.9,0,1.5,1.6,0.8,2.3c-0.9,0.8-2.6,0.3-2.3-1.1C74.8,200.2,75.4,199.6,76.1,199.7z"/>
			<path class="st9" d="M76.3,200.3c-0.2,0.3-0.9,0.8-1.2,1C74.8,200.5,75.9,199.8,76.3,200.3z"/>
			<path class="st9" d="M76.7,200.6c0.4,1-0.5,1.7-1.3,1.1L76.7,200.6z"/>
		</g>
		<g>
			<path class="st0" d="M70.5,185.6c0.6,0.3,1.6,1.2,2,1.9c-0.2,2.9-3.3,10.6-5.8,11.9c-1.2,0.6-2.5,0.2-3.7-0.1
				c-0.5-0.1-1.5-1-1.6-1.7c0.1-5,3.8-12.5,6.2-12.8C68.8,184.5,69.7,184.9,70.5,185.6z"/>
			<path class="st9" d="M67.7,185.6c0.5,0.1,1.2,0,1.6,0.7c0.3,0.6-4.2,12.1-5.8,11.7c-0.5,0-1.3-0.4-1.2-1.3
				C62.3,195.3,65.3,185.6,67.7,185.6z"/>
			<path class="st10" d="M70.5,186.6c0.2,0,0.4,0,0.7,0.4c0.7,1.9-2.4,8.9-5.1,11.5c-0.4,0.3-1.1,0.1-1.3,0
				C67.5,195,69.1,191,70.5,186.6z"/>
		</g>
	</g>
	<g>
		<path class="st0" d="M48.8,117.3c-1.4,0.1-3.4-0.3-4.1-1c-0.9-0.8-3.3-13.6,2-18.3c0.8-0.2,24.2-0.1,28.7,0.3
			c2.3,0.2,3.2,0.8,3.6,1.8c0.5,0.6-0.6,15.3-1.5,17.6c-0.5,0.7-1.9,1.4-3.6,1.2C73.9,118.8,49.1,117.3,48.8,117.3z"/>
		<path class="st9" d="M50.6,98.9c-3.7,4.3-2.9,16.8-2.4,17.5c-0.9,0.2-1.5-0.4-2.4-0.4c-1.1-2.5-1.9-12.3,1.4-17
			C48.4,98.8,50.3,99.1,50.6,98.9z"/>
		<path class="st9" d="M75.7,99.4c0.3,0.3-0.2,18.1-2,18.2c-6.6-0.5-15-0.9-21.6-1.3c-0.2-0.5-0.5-1.3-0.4-1.9
			c5.8,0.1,12.1,0.6,18.5,0.5c0.7,0.3,2.1,0.5,2.8,0.4c1.3-0.9,1.7-11,1.2-13.3c-0.8-0.6-2.1-0.6-3.2-0.9c-5.9,0.4-12.3-0.4-18,0.3
			c-0.6,0.7,12.3,0.9,18,0.7c0.4,3.9,0.2,8.3-0.9,11.9c-6.2-0.1-12.7-0.2-18.3-0.7c-0.3-1-1.6-8.3,1.9-14.4
			C53.9,99,74.4,98.7,75.7,99.4z"/>
		<path class="st9" d="M52.2,99.3c-3.3,6.4-1.8,16.1-1.3,17.3c0,0-1.1-0.2-1.5-0.3c-1.8-5.7,1-15.4,2.1-17
			C51.8,99.3,52.1,99.2,52.2,99.3z"/>
		<path class="st10" d="M76.8,99.5c0.3,0.1,0.6,0.3,0.9,0.5c0.8,1.6-0.9,16.5-0.9,16.8c0,0.6-1,0.9-1.8,1.1
			C76.2,113.3,77.1,105.2,76.8,99.5z"/>
		<path class="st10" d="M72.1,102.7c0.5-0.1,0.6,0.2,1,0.2c0.8,3.3-0.5,10-0.4,11.4c0,0-0.8,0.1-1.4-0.3
			C72,110.3,72.2,106.5,72.1,102.7z"/>
		<g>
			<path class="st0" d="M55.4,98.7c0.9,0,1.5,1.6,0.8,2.3c-0.9,0.8-2.6,0.3-2.3-1.1C54.1,99.2,54.7,98.6,55.4,98.7z"/>
			<path class="st9" d="M55.7,99.3c-0.2,0.3-0.9,0.8-1.2,1C54.2,99.5,55.2,98.8,55.7,99.3z"/>
			<path class="st9" d="M56,99.6c0.4,1-0.5,1.7-1.3,1.1L56,99.6z"/>
		</g>
		<g>
			<path class="st0" d="M74,99.2c0.9,0,1.5,1.6,0.8,2.3c-0.9,0.8-2.6,0.3-2.3-1.1C72.7,99.7,73.3,99.1,74,99.2z"/>
			<path class="st9" d="M74.2,99.8c-0.2,0.3-0.9,0.8-1.2,1C72.7,100,73.8,99.3,74.2,99.8z"/>
			<path class="st9" d="M74.6,100.1c0.4,1-0.5,1.7-1.3,1.1L74.6,100.1z"/>
		</g>
		<g>
			<path class="st0" d="M72.6,114.9c0.9,0,1.5,1.6,0.8,2.3c-0.9,0.8-2.6,0.3-2.3-1.1C71.3,115.5,71.9,114.9,72.6,114.9z"/>
			<path class="st9" d="M72.8,115.6c-0.2,0.3-0.9,0.8-1.2,1C71.3,115.8,72.4,115.1,72.8,115.6z"/>
			<path class="st9" d="M73.2,115.9c0.4,1-0.5,1.7-1.3,1.1L73.2,115.9z"/>
		</g>
		<g>
			<path class="st0" d="M66.9,100.8c0.6,0.3,1.6,1.2,2,1.9c-0.2,2.9-3.3,10.6-5.8,11.9c-1.2,0.6-2.5,0.2-3.7-0.1
				c-0.5-0.1-1.5-1-1.6-1.7c0.1-5,3.8-12.5,6.2-12.8C65.3,99.8,66.2,100.1,66.9,100.8z"/>
			<path class="st9" d="M64.2,100.9c0.5,0.1,1.2,0,1.6,0.7c0.3,0.6-4.2,12.1-5.8,11.7c-0.5,0-1.3-0.4-1.2-1.3
				C58.8,110.6,61.8,100.9,64.2,100.9z"/>
			<path class="st10" d="M66.9,101.9c0.2,0,0.4,0,0.7,0.4c0.7,1.9-2.4,8.9-5.1,11.5c-0.4,0.3-1.1,0.1-1.3,0
				C63.9,110.3,65.6,106.2,66.9,101.9z"/>
		</g>
	</g>
	<g>
		<path class="st0" d="M56.4,70.3c0.1-0.7,0.2-1.4,0.5-1.9c1-0.1,2.3-0.3,3.2-0.1c0.1,4.2-0.2,8.3-0.4,12.7
			c-0.9,0.3-2.5,0.6-3.6-0.2c0,0.2,0.1-1.7,0-1.9c-0.6,0.2-7.4,0.4-7.6,0.4c0,0-0.1,1.1-0.3,1.5c0.3,0.1,1.8,0.4,2.1,0.6
			c-0.2,2.3-0.5,7.5-1,9.6c-0.1,0.6-2.2,1.6-5,2.8c-3.4-0.4-8.3-2.1-8.6-2.2c-1-4-2.6-10.4-2.5-10.6c0.8-0.5,2.2-1.2,2.7-1.5
			c-1.2,0.1-2.4,0.1-3.9,0.1c-0.4-1-0.7-8-0.6-10C32.6,69.5,49.1,69.8,56.4,70.3z M44,80.3l0-0.5l-2.5,0L44,80.3z"/>
		<path class="st2" d="M33.2,71.1l8.1-0.2c-1.7,0.6-2.9,2-3.4,2.7c-1.7-1.7-4.1-0.3-3.8,1.8c0.2,1.8,1.1,2.5,2.9,2.6
			c0,0.3,0,0.6-0.2,0.8c-1.1-0.2-2.2,0-3.3-0.2C33,75.9,33,73.8,33.2,71.1z"/>
		<path class="st2" d="M46.3,71c3.1,0.5,7,0.1,10.1,0.7c0.1,1.8-0.2,4.4-0.4,6.5c-1.2,0-4.3,0-7.6,0.2C48.6,75.8,48.3,72.8,46.3,71z
			"/>
		<path class="st2" d="M44.3,71.6c2.8,0.1,3.2,6.5,2.6,9.8c-0.4,0.6-1.3,0.6-1.7,0.4c-0.3-2.3,1.6-8.3-1.8-9
			c-1.6,0.2-2.7,0.7-3.2,1.7c-0.5,0.1-0.9,0-1.4,0C40.3,72.9,41.6,71.5,44.3,71.6z"/>
		<path class="st2" d="M57.8,69.8c0-0.2,0.9-0.2,1.2-0.2c-0.1,0.2,0,3-0.1,3.2c-0.2,0-1.1,0-1.3,0C57.6,72.8,57.6,70,57.8,69.8z"/>
		<path class="st2" d="M36.1,74.2c1.3,1.9,6,1.6,8.1,0.8c0.5,0.2,0.2,1.3,0.1,1.8c-4,0.6-7,0.5-8.5-0.5
			C34.6,75.3,35.6,74.4,36.1,74.2z"/>
		<path class="st2" d="M57.5,73.9c0.1-0.2,0.9-0.1,1.3,0c0.2,0.3,0,2.6,0.1,2.8c-0.1,0.2-1.6-0.1-1.6-0.1
			C57.3,76,57.5,73.9,57.5,73.9z"/>
		<path class="st2" d="M40,78.4c-0.1,0.5,0.2,1.9,0,2.3c-1,0.3-1.5,0.1-2-0.2c-0.1-0.5,0.2-1.7,0-2.5C38.2,78.1,39.6,78.4,40,78.4z"
			/>
		<path class="st2" d="M44.1,78.3c0,0.7-0.1-0.2,0,0.6L41.5,79c-0.1-0.1,0-0.2-0.1-0.5C41.7,78.6,44.1,78.3,44.1,78.3z"/>
		<path class="st2" d="M37.1,80.1c0,0,0.1,0.6,0.2,0.9c0.6,0.8,2.5,0.9,3.9,0.4c0.1-0.5,0.2-1,0.2-1l2.6,0.7c0,0.6,0,1.3,0.3,1.6
			c0.7,0.1,2.3,0,3.7-0.7c0.1,0,0.1-0.5,0.2-0.5l1.2,0.3c-0.1,0.1-5.8,1.8-5.8,1.8c-0.1-0.1-7.7-2-8.4-2.4
			C35.1,81,37.1,80.1,37.1,80.1z"/>
		<path class="st2" d="M57.3,77.7c0.4-0.1,1,0.3,1.3,0.2c0,0,0,2.3,0,2.5c-0.3,0.1-0.9,0.1-1.3,0C57.3,79.8,57.4,78.4,57.3,77.7z"/>
		<path class="st2" d="M34.9,82.5c2.6,0.8,6.8,2,8.9,2.1c0.2,0,5.4-1.6,5.4-1.6l-0.9,7.7c0.1,0.3-3.4,1.8-3.4,1.6
			c0-2.1-0.2-5-0.9-7.1c-0.6,1.9,0.1,5.4-0.6,7.3c-2,0-5.7-1.5-6-1.4C36.1,88.5,36.1,85,34.9,82.5z"/>
	</g>
	<g>
		<path class="st0" d="M55.7,144.1c0.1-0.7,0.2-1.4,0.5-1.9c1-0.1,2.3-0.3,3.2-0.1c0.1,4.2-0.2,8.3-0.4,12.7
			c-0.9,0.3-2.5,0.6-3.6-0.2c0,0.2,0.1-1.7,0-1.9c-0.6,0.2-7.4,0.4-7.6,0.4c0,0-0.1,1.1-0.3,1.5c0.3,0.1,1.8,0.4,2.1,0.6
			c-0.2,2.3-0.5,7.5-1,9.6c-0.1,0.6-2.2,1.6-5,2.8c-3.4-0.4-8.3-2.1-8.6-2.2c-1-4-2.6-10.4-2.5-10.6c0.8-0.5,2.2-1.2,2.7-1.5
			c-1.2,0.1-2.4,0.1-3.9,0.1c-0.4-1-0.7-8-0.6-10C31.9,143.4,48.4,143.6,55.7,144.1z M43.3,154.2l0-0.5l-2.5,0L43.3,154.2z"/>
		<path class="st2" d="M32.5,145l8.1-0.2c-1.7,0.6-2.9,2-3.4,2.7c-1.7-1.7-4.1-0.3-3.8,1.8c0.2,1.8,1.1,2.5,2.9,2.6
			c0,0.3,0,0.6-0.2,0.8c-1.1-0.2-2.2,0-3.3-0.2C32.2,149.7,32.3,147.6,32.5,145z"/>
		<path class="st2" d="M45.6,144.8c3.1,0.5,7,0.1,10.1,0.7c0.1,1.8-0.2,4.4-0.4,6.5c-1.2,0-4.3,0-7.6,0.2
			C47.9,149.7,47.5,146.7,45.6,144.8z"/>
		<path class="st2" d="M43.6,145.5c2.8,0.1,3.2,6.5,2.6,9.8c-0.4,0.6-1.3,0.6-1.7,0.4c-0.3-2.3,1.6-8.3-1.8-9
			c-1.6,0.2-2.7,0.7-3.2,1.7c-0.5,0.1-0.9,0-1.4,0C39.6,146.8,40.9,145.3,43.6,145.5z"/>
		<path class="st2" d="M57.1,143.6c0-0.2,0.9-0.2,1.2-0.2c-0.1,0.2,0,3-0.1,3.2c-0.2,0-1.1,0-1.3,0
			C56.9,146.7,56.9,143.9,57.1,143.6z"/>
		<path class="st2" d="M35.4,148c1.3,1.9,6,1.6,8.1,0.8c0.5,0.2,0.2,1.3,0.1,1.8c-4,0.6-7,0.5-8.5-0.5
			C33.9,149.2,34.9,148.3,35.4,148z"/>
		<path class="st2" d="M56.8,147.8c0.1-0.2,0.9-0.1,1.3,0c0.2,0.3,0,2.6,0.1,2.8c-0.1,0.2-1.6-0.1-1.6-0.1
			C56.6,149.9,56.8,147.8,56.8,147.8z"/>
		<path class="st2" d="M39.3,152.3c-0.1,0.5,0.2,1.9,0,2.3c-1,0.3-1.5,0.1-2-0.2c-0.1-0.5,0.2-1.7,0-2.5
			C37.5,152,38.9,152.2,39.3,152.3z"/>
		<path class="st2" d="M43.4,152.2c0,0.7-0.1-0.2,0,0.6l-2.6,0.1c-0.1-0.1,0-0.2-0.1-0.5C41,152.4,43.4,152.2,43.4,152.2z"/>
		<path class="st2" d="M36.4,154c0,0,0.1,0.6,0.2,0.9c0.6,0.8,2.5,0.9,3.9,0.4c0.1-0.5,0.2-1,0.2-1l2.6,0.7c0,0.6,0,1.3,0.3,1.6
			c0.7,0.1,2.3,0,3.7-0.7c0.1,0,0.1-0.5,0.2-0.5l1.2,0.3c-0.1,0.1-5.8,1.8-5.8,1.8c-0.1-0.1-7.7-2-8.4-2.4
			C34.4,154.9,36.4,154,36.4,154z"/>
		<path class="st2" d="M56.6,151.5c0.4-0.1,1,0.3,1.3,0.2c0,0,0,2.3,0,2.5c-0.3,0.1-0.9,0.1-1.3,0C56.6,153.6,56.7,152.2,56.6,151.5
			z"/>
		<path class="st2" d="M34.2,156.3c2.6,0.8,6.8,2,8.9,2.1c0.2,0,5.4-1.6,5.4-1.6l-0.9,7.7c0.1,0.3-3.4,1.8-3.4,1.6
			c0-2.1-0.2-5-0.9-7.1c-0.6,1.9,0.1,5.4-0.6,7.3c-2,0-5.7-1.5-6-1.4C35.4,162.4,35.4,158.8,34.2,156.3z"/>
	</g>
	<polygon class="st11" points="136.2,257.4 172.8,261 173.5,251.6 137.5,247.7 	"/>
	<polygon class="st11" points="53.4,239.7 13.7,235.5 12.2,245.3 53.4,249 	"/>
	<g>
		<g>
			<path class="st0" d="M87.2,8.5c10.2-0.2,21.6,1.1,24.1,3.8c0.3,0.5-1,2.7-2.9,2.1c-0.9,2.4-1.8,5.7-2.2,8.8
				c3.3,2.5,10.2,10.9-1.7,10.6c-0.4,3-0.6,11-1.5,12c-3.4,1.8-26.5,1.7-29.4,0.8c-0.8-0.7-3.5-30.2-4.5-32.4
				c-2.4-0.2-2.3-3-0.7-3.6C72.1,9.7,79.3,8.6,87.2,8.5z M104.8,32.8c9.7,0.1,2.1-7.5,1-8.1C105.5,27.5,104.9,30,104.8,32.8z"/>
			<path class="st2" d="M109.7,12.8c-0.1,0.4-0.5,0.5-0.8,0.6c-10.1-4.1-24.8-2.2-25.2-1.9c2.2,1,13.2-1.1,23.4,1.9
				c-0.6,2.9-1.7,5.7-1.9,8.8c-0.7-0.8-1.5-1.6-2.2-2.4c1-2.5-1.6-5.4-4-3.8c-2.3,1.9-1.2,6.2,3.1,4.6c0,0,2.8,2.8,2.8,2.8
				c-0.6,4.3-2.4,18.3-2.7,20.8c-4.9-1.7-24.4-0.1-27.9,0.4l-4-30.8c0.6-0.8,5-1.6,11.2-2.2c-4.3-0.3-10.2,0.1-12.1,1.4
				c-1.1-0.2-0.7-1.2-0.3-1.4C75.1,9.2,103.2,7.9,109.7,12.8z"/>
			<path class="st2" d="M101.2,18.2l0.8,0.9c1-1.2-0.8-3.6-2.6-1.9c-1.5,1.7,0.9,3.5,1.9,2.5l-0.8-0.9c-0.4,0.1-1.2-0.6-0.5-1.2
				C100.7,16.9,101.5,17.8,101.2,18.2z"/>
			<path class="st12" d="M102,45.2c-6.2,1.9-23.6,1.7-27.4,0.8C76,44.6,95.1,43.6,102,45.2z"/>
			<path class="st6" d="M69.3,13c1.2-0.8,4-1.3,6.9-1.4c-0.3-0.3-0.5-0.8-0.6-1.4c-2.9,0.4-5.3,0.8-6.6,1.3
				C68.6,11.9,68.2,12.9,69.3,13z"/>
			<path class="st6" d="M70.3,13.9l4,30.8c1.1-0.2,3.6-0.4,6.7-0.7l-4.3-31.8C73.1,12.7,70.7,13.3,70.3,13.9z"/>
		</g>
		<g>
			<polygon class="st0" points="115.8,48.9 115.6,50.2 99.3,49.3 66.4,48.2 65.8,43.8 99.8,42.8 			"/>
			<polygon class="st13" points="99.3,44.1 98.6,48.1 67.6,47.3 67.3,44.9 			"/>
			<polygon class="st14" points="100.8,44.4 114.7,49.2 114.4,49.6 100.3,48.2 			"/>
		</g>
	</g>
</g>
</svg>
