<?xml version="1.0" encoding="utf-8"?>
<!-- Generator: Adobe Illustrator 20.0.0, SVG Export Plug-In . SVG Version: 6.00 Build 0)  -->
<svg version="1.1" id="Layer_1" xmlns="http://www.w3.org/2000/svg" xmlns:xlink="http://www.w3.org/1999/xlink" x="0px" y="0px"
	 viewBox="0 0 360.7 484.4" style="enable-background:new 0 0 360.7 484.4;" xml:space="preserve">
<style type="text/css">
	.st0{fill:#E61939;}
	.st1{fill:#FFFFFF;}
	.st2{opacity:0.2;clip-path:url(#SVGID_2_);fill:url(#SVGID_3_);}
</style>
<g>
	<path class="st0" d="M187.4,466c-1.8,1.8-4.3,2.9-7.1,2.9c-2.8,0-5.3-1.1-7.1-2.9c0,0-142.3-105.1-154.4-270.9
		c-0.6-5.7-0.9-11.4-0.9-17.2c0-1.7,0-3.5,0.1-5.2v0l0,0C20.9,85.4,92.4,15.5,180.4,15.5c87.9,0,159.5,69.9,162.3,157.2l0,0v0
		c0.1,1.7,0.1,3.4,0.1,5.2c0,5.8-0.3,11.6-0.9,17.2C329.7,360.8,187.5,465.9,187.4,466z"/>
	<g>
		<g>
			<g>
				<path class="st1" d="M127.5,209.6c2.2,0,4,1.8,4,4v3c0,2.2-1.8,4-4,4h-17v20.9h14c2.2,0,4,1.8,4,4v3c0,2.2-1.8,4-4,4h-14v21.1
					h17c2.2,0,4,1.8,4,4v3c0,2.2-1.8,4-4,4h-24.1c-2.2,0-4-1.8-4-4v-67.1c0-2.2,1.8-4,4-4H127.5z"/>
				<path class="st1" d="M148.6,282.3c-0.4,1.1-2.2,2.3-3.6,2.3h-3.5c-3.1,0-4.9-2.9-3.7-5.7l15.2-31.9l-15.2-31.9
					c-1.2-2.8,0.4-5.7,3.7-5.7h3.5c1.3,0,3.1,1.2,3.6,2.3l10.6,22.1c3.5-7.4,7-14.7,10.5-22.1c0.4-1.2,2.2-2.3,3.6-2.3h3.5
					c3.1,0,4.9,2.9,3.6,5.7l-14.9,31.9l15.2,31.9c1.3,2.8-0.3,5.7-3.6,5.7h-3.5c-1.3,0-3.1-1.1-3.7-2.3l-10.5-22.2L148.6,282.3z"/>
				<path class="st1" d="M198.8,280.6c0,2.2-1.9,4-4,4h-3.1c-2.2,0-4-1.8-4-4v-67.1c0-2.2,1.8-4,4-4h3.1c2.1,0,4,1.8,4,4V280.6z"/>
				<path class="st1" d="M205.9,213.5c0-2.2,1.8-4,4-4h29.2c2.2,0,4,1.8,4,4v3.1c0,2.2-1.8,4-4,4H230v59.9c0,2.2-1.8,4-4,4h-3
					c-2.2,0-4-1.8-4-4v-59.9h-9c-2.2,0-4-1.8-4-4V213.5z"/>
			</g>
			<g>
				<circle class="st1" cx="261.6" cy="219" r="7.7"/>
				<g>
					<path class="st1" d="M259.9,222.2h0.5c0.3,0,0.5,0,0.6,0.1c0.1,0.1,0.2,0.2,0.2,0.4c0,0.2-0.1,0.3-0.2,0.4
						c-0.1,0.1-0.3,0.1-0.6,0.1h-2.4c-0.2,0-0.3,0-0.4-0.1c-0.1-0.1-0.1-0.2-0.1-0.4c0-0.2,0-0.3,0.1-0.4c0.1-0.1,0.3-0.1,0.5-0.1
						h0.2h0.4v-6.5h-0.4c-0.4,0-0.6,0-0.7-0.1c-0.1-0.1-0.2-0.2-0.2-0.4c0-0.2,0-0.3,0.1-0.4c0.1-0.1,0.2-0.1,0.4-0.1h3
						c0.7,0,1.3,0,1.6,0.1c0.4,0.1,0.7,0.2,0.9,0.4c0.3,0.2,0.6,0.5,0.8,0.9c0.2,0.4,0.3,0.7,0.3,1.1c0,0.6-0.2,1-0.5,1.4
						c-0.3,0.4-0.8,0.7-1.4,0.8c0.1,0.1,0.2,0.2,0.3,0.3c0.1,0.1,0.2,0.2,0.3,0.3l1.4,2.2h0.2c0.3,0,0.5,0,0.6,0.1
						c0.1,0.1,0.2,0.2,0.2,0.4c0,0.2,0,0.3-0.1,0.4c-0.1,0.1-0.2,0.1-0.4,0.1h-0.8c-0.2,0-0.5-0.2-0.7-0.5c0,0,0-0.1-0.1-0.1
						l-1.4-2.1c-0.3-0.4-0.5-0.7-0.7-0.8c-0.2-0.1-0.4-0.2-0.7-0.2h-1V222.2z M259.9,215.6v2.9h1.5c0.7,0,1.2-0.1,1.5-0.4
						c0.3-0.2,0.5-0.6,0.5-1.1c0-0.5-0.2-0.8-0.5-1.1c-0.3-0.2-0.8-0.4-1.5-0.4H259.9z"/>
				</g>
			</g>
			<g>
				<path class="st1" d="M262.1,275.4h3v-1.1c0-0.1,0-0.2,0.1-0.3s0.1-0.1,0.2-0.1c0.1,0,0.2,0,0.2,0.1c0.1,0.1,0.1,0.2,0.1,0.3v2.4
					c0,0.1,0,0.2-0.1,0.3c-0.1,0.1-0.1,0.1-0.2,0.1c-0.1,0-0.2,0-0.2-0.1c-0.1-0.1-0.1-0.2-0.1-0.3V276h-7v0.8c0,0.1,0,0.2-0.1,0.3
					c-0.1,0.1-0.1,0.1-0.2,0.1s-0.2,0-0.2-0.1c-0.1-0.1-0.1-0.2-0.1-0.3v-3.5c0-0.7,0.2-1.3,0.7-1.8c0.5-0.5,1-0.7,1.6-0.7
					c0.4,0,0.8,0.2,1.2,0.5c0.4,0.3,0.7,0.8,0.9,1.5c0.3-0.4,0.6-0.8,1-1.1c0.4-0.3,1.1-0.8,2.2-1.4v-0.4c0-0.1,0-0.2,0.1-0.3
					c0.1-0.1,0.1-0.1,0.2-0.1c0.1,0,0.2,0,0.2,0.1c0.1,0.1,0.1,0.2,0.1,0.3v0.8c-1.3,0.7-2.2,1.3-2.6,1.7c-0.4,0.4-0.8,0.9-1,1.4
					V275.4z M261.5,275.4v-1.6c0-0.5-0.1-1-0.3-1.4c-0.2-0.4-0.4-0.7-0.7-0.9c-0.2-0.2-0.5-0.3-0.8-0.3c-0.4,0-0.8,0.2-1.1,0.6
					c-0.4,0.4-0.5,0.9-0.5,1.4v2.1H261.5z"/>
				<path class="st1" d="M261.7,257.9c0.8,0,1.5,0.2,2.2,0.5c0.7,0.3,1.2,0.7,1.6,1.3c0.4,0.6,0.6,1.1,0.6,1.8
					c0,0.9-0.4,1.8-1.2,2.5c-0.8,0.7-1.8,1.1-3.1,1.1c-1.3,0-2.3-0.4-3.1-1.1c-0.8-0.7-1.2-1.5-1.2-2.5c0-0.6,0.2-1.2,0.6-1.8
					c0.4-0.6,0.9-1,1.5-1.3C260.2,258,260.9,257.9,261.7,257.9z M261.7,258.5c-0.9,0-1.8,0.3-2.6,0.8c-0.8,0.6-1.1,1.3-1.1,2.1
					c0,0.8,0.4,1.5,1.1,2.1c0.7,0.6,1.6,0.9,2.6,0.9c1.1,0,2-0.3,2.7-0.9c0.7-0.6,1-1.3,1-2.1c0-0.9-0.4-1.6-1.1-2.1
					C263.5,258.7,262.6,258.5,261.7,258.5z"/>
				<path class="st1" d="M261.7,245.8c0.8,0,1.5,0.2,2.2,0.5c0.7,0.3,1.2,0.7,1.6,1.3c0.4,0.6,0.6,1.1,0.6,1.8
					c0,0.9-0.4,1.8-1.2,2.5s-1.8,1.1-3.1,1.1c-1.3,0-2.3-0.4-3.1-1.1c-0.8-0.7-1.2-1.5-1.2-2.5c0-0.6,0.2-1.2,0.6-1.8
					c0.4-0.6,0.9-1,1.5-1.3S260.9,245.8,261.7,245.8z M261.7,246.4c-0.9,0-1.8,0.3-2.6,0.8c-0.8,0.6-1.1,1.3-1.1,2.1
					c0,0.8,0.4,1.5,1.1,2.1c0.7,0.6,1.6,0.9,2.6,0.9c1.1,0,2-0.3,2.7-0.9s1-1.3,1-2.1c0-0.9-0.4-1.6-1.1-2.1
					C263.5,246.7,262.6,246.4,261.7,246.4z"/>
				<path class="st1" d="M263.3,236.9v0.7l-5.1,2.2v0.1h7v-1.1c0-0.1,0-0.2,0.1-0.3c0.1-0.1,0.1-0.1,0.2-0.1c0.1,0,0.2,0,0.2,0.1
					c0.1,0.1,0.1,0.2,0.1,0.3v2.2c0,0.1,0,0.2-0.1,0.3c-0.1,0.1-0.1,0.1-0.2,0.1c-0.1,0-0.2,0-0.2-0.1s-0.1-0.2-0.1-0.3v-0.5h-7v0.4
					c0,0.1,0,0.2-0.1,0.3c-0.1,0.1-0.1,0.1-0.2,0.1s-0.2,0-0.2-0.1c-0.1-0.1-0.1-0.2-0.1-0.3v-1.4l5-2.2l-5-2.2v-1.4
					c0-0.1,0-0.2,0.1-0.3c0.1-0.1,0.1-0.1,0.2-0.1s0.2,0,0.2,0.1c0.1,0.1,0.1,0.2,0.1,0.3v0.4h7v-0.5c0-0.1,0-0.2,0.1-0.3
					c0.1-0.1,0.1-0.1,0.2-0.1c0.1,0,0.2,0,0.2,0.1c0.1,0.1,0.1,0.2,0.1,0.3v2.1c0,0.1,0,0.2-0.1,0.3c-0.1,0.1-0.1,0.1-0.2,0.1
					c-0.1,0-0.2,0-0.2-0.1c-0.1-0.1-0.1-0.2-0.1-0.3v-1.1h-7v0.1L263.3,236.9z"/>
			</g>
		</g>
		<g>
			<path class="st1" d="M180.4,86.8c-23.6,0-42.7,19.1-42.7,42.7c0,23.6,19.1,42.7,42.7,42.7c23.6,0,42.7-19.1,42.7-42.7
				C223.1,105.9,204,86.8,180.4,86.8z M193.5,155.2h-26.2l8.1-23.5c-4.8-2-8.1-6.6-8.1-12.1c0-7.2,5.9-13.1,13.1-13.1
				s13.1,5.9,13.1,13.1c0,5.5-3.4,10.1-8.1,12.1L193.5,155.2z"/>
			<path class="st1" d="M180.4,83.2c36.1,0,68.8,14.6,92.5,38.3C253,91.6,219,71.8,180.4,71.8c-38.6,0-72.6,19.7-92.5,49.7
				C111.6,97.8,144.3,83.2,180.4,83.2z"/>
			<path class="st1" d="M180.4,175.3c36.1,0,68.8-14.6,92.5-38.3C253,167,219,186.7,180.4,186.7S107.7,167,87.9,137
				C111.6,160.7,144.3,175.3,180.4,175.3z"/>
		</g>
	</g>
	<g>
		<defs>
			<path id="SVGID_1_" d="M187.4,466c-1.8,1.8-4.3,2.9-7.1,2.9c-2.8,0-5.3-1.1-7.1-2.9c0,0-142.3-105.1-154.4-270.9
				c-0.6-5.7-0.9-11.4-0.9-17.2c0-1.7,0-3.5,0.1-5.2v0l0,0C20.9,85.4,92.4,15.5,180.4,15.5c87.9,0,159.5,69.9,162.3,157.2l0,0v0
				c0.1,1.7,0.1,3.4,0.1,5.2c0,5.8-0.3,11.6-0.9,17.2C329.7,360.8,187.5,465.9,187.4,466z"/>
		</defs>
		<clipPath id="SVGID_2_">
			<use xlink:href="#SVGID_1_"  style="overflow:visible;"/>
		</clipPath>
		<linearGradient id="SVGID_3_" gradientUnits="userSpaceOnUse" x1="180.3478" y1="302.0877" x2="2219.0708" y2="302.0877">
			<stop  offset="0" style="stop-color:#000000"/>
			<stop  offset="7.480343e-02" style="stop-color:#060606;stop-opacity:0.9093"/>
			<stop  offset="0.1789" style="stop-color:#181818;stop-opacity:0.7831"/>
			<stop  offset="0.3002" style="stop-color:#363636;stop-opacity:0.636"/>
			<stop  offset="0.4345" style="stop-color:#5F5F5F;stop-opacity:0.4731"/>
			<stop  offset="0.5795" style="stop-color:#949494;stop-opacity:0.2972"/>
			<stop  offset="0.7312" style="stop-color:#D4D4D4;stop-opacity:0.1133"/>
			<stop  offset="0.8246" style="stop-color:#FFFFFF;stop-opacity:0"/>
		</linearGradient>
		<rect x="180.3" y="-586.4" class="st2" width="2038.7" height="1777"/>
	</g>
</g>
</svg>
