<?xml version="1.0" encoding="utf-8"?>
<!-- Generator: Adobe Illustrator 20.0.0, SVG Export Plug-In . SVG Version: 6.00 Build 0)  -->
<svg version="1.1" id="Layer_1" xmlns="http://www.w3.org/2000/svg" xmlns:xlink="http://www.w3.org/1999/xlink" x="0px" y="0px"
	 viewBox="0 0 81 92.8" style="enable-background:new 0 0 81 92.8;" xml:space="preserve">
<style type="text/css">
	.st0{fill:#E61939;}
</style>
<g>
	<g>
		<path class="st0" d="M20.5,58.3c0.8,0,1.5,0.7,1.5,1.5v1.1c0,0.8-0.7,1.5-1.5,1.5H14v7.9h5.3c0.8,0,1.5,0.7,1.5,1.5v1.1
			c0,0.8-0.7,1.5-1.5,1.5H14v8h6.5c0.8,0,1.5,0.7,1.5,1.5v1.1c0,0.8-0.7,1.5-1.5,1.5h-9.1c-0.8,0-1.5-0.7-1.5-1.5V59.8
			c0-0.8,0.7-1.5,1.5-1.5H20.5z"/>
		<path class="st0" d="M28.5,85.9c-0.2,0.4-0.8,0.9-1.4,0.9h-1.3c-1.2,0-1.9-1.1-1.4-2.2l5.7-12.1l-5.7-12.1
			c-0.5-1.1,0.2-2.2,1.4-2.2h1.3c0.5,0,1.2,0.5,1.4,0.9l4,8.4c1.3-2.8,2.7-5.6,4-8.4c0.2-0.5,0.8-0.9,1.4-0.9h1.3
			c1.2,0,1.9,1.1,1.4,2.2l-5.7,12.1l5.7,12.1c0.5,1.1-0.1,2.2-1.4,2.2h-1.3c-0.5,0-1.2-0.4-1.4-0.9l-4-8.4L28.5,85.9z"/>
		<path class="st0" d="M47.5,85.2c0,0.8-0.7,1.5-1.5,1.5h-1.2c-0.8,0-1.5-0.7-1.5-1.5V59.8c0-0.8,0.7-1.5,1.5-1.5H46
			c0.8,0,1.5,0.7,1.5,1.5V85.2z"/>
		<path class="st0" d="M50.2,59.8c0-0.8,0.7-1.5,1.5-1.5h11.1c0.8,0,1.5,0.7,1.5,1.5v1.2c0,0.8-0.7,1.5-1.5,1.5h-3.5v22.7
			c0,0.8-0.7,1.5-1.5,1.5h-1.1c-0.8,0-1.5-0.7-1.5-1.5V62.5h-3.4c-0.8,0-1.5-0.7-1.5-1.5V59.8z"/>
	</g>
	<g>
		<path class="st0" d="M72,61.1c0-0.2-0.1-0.3-0.2-0.4c-0.1-0.1-0.3-0.1-0.6-0.1h-0.6v1.1h0.6c0.3,0,0.4,0,0.6-0.1
			C72,61.5,72,61.3,72,61.1z"/>
		<path class="st0" d="M71.3,58.9c-1.6,0-2.9,1.3-2.9,2.9c0,1.6,1.3,2.9,2.9,2.9c1.6,0,2.9-1.3,2.9-2.9
			C74.2,60.2,72.9,58.9,71.3,58.9z M72.9,63.4c0,0-0.1,0.1-0.1,0.1h-0.3c-0.1,0-0.2-0.1-0.3-0.2c0,0,0,0,0,0l-0.5-0.8
			c-0.1-0.2-0.2-0.3-0.3-0.3c-0.1,0-0.2-0.1-0.3-0.1h-0.4v1h0.2c0.1,0,0.2,0,0.2,0c0,0,0.1,0.1,0.1,0.1c0,0.1,0,0.1-0.1,0.2
			c0,0-0.1,0-0.2,0H70c-0.1,0-0.1,0-0.1-0.1c0,0,0-0.1,0-0.1c0-0.1,0-0.1,0.1-0.1c0,0,0.1,0,0.2,0h0.1h0.2v-2.5h-0.2
			c-0.1,0-0.2,0-0.3,0c0,0-0.1-0.1-0.1-0.1c0-0.1,0-0.1,0-0.1c0,0,0.1,0,0.1,0h1.1c0.3,0,0.5,0,0.6,0c0.1,0,0.3,0.1,0.3,0.1
			c0.1,0.1,0.2,0.2,0.3,0.3c0.1,0.1,0.1,0.3,0.1,0.4c0,0.2-0.1,0.4-0.2,0.5c-0.1,0.1-0.3,0.3-0.5,0.3c0,0,0.1,0.1,0.1,0.1
			c0,0,0.1,0.1,0.1,0.1l0.5,0.8h0.1c0.1,0,0.2,0,0.2,0c0,0,0.1,0.1,0.1,0.1C72.9,63.3,72.9,63.4,72.9,63.4z"/>
	</g>
	<g>
		<path class="st0" d="M71.5,83.3h1.2v-0.4c0-0.1,0-0.1,0-0.1s0,0,0.1,0c0,0,0.1,0,0.1,0c0,0,0,0.1,0,0.1v0.9c0,0.1,0,0.1,0,0.1
			c0,0,0,0-0.1,0c0,0-0.1,0-0.1,0s0-0.1,0-0.1v-0.3H70v0.3c0,0.1,0,0.1,0,0.1s0,0-0.1,0s-0.1,0-0.1,0s0-0.1,0-0.1v-1.3
			c0-0.3,0.1-0.5,0.3-0.7c0.2-0.2,0.4-0.3,0.6-0.3c0.2,0,0.3,0.1,0.4,0.2c0.1,0.1,0.3,0.3,0.3,0.6c0.1-0.2,0.2-0.3,0.4-0.4
			c0.1-0.1,0.4-0.3,0.8-0.5v-0.2c0-0.1,0-0.1,0-0.1s0,0,0.1,0c0,0,0.1,0,0.1,0c0,0,0,0.1,0,0.1v0.3c-0.5,0.3-0.8,0.5-1,0.6
			c-0.2,0.2-0.3,0.3-0.4,0.5V83.3z M71.3,83.3v-0.6c0-0.2,0-0.4-0.1-0.5c-0.1-0.2-0.2-0.3-0.2-0.3c-0.1-0.1-0.2-0.1-0.3-0.1
			c-0.1,0-0.3,0.1-0.4,0.2c-0.1,0.1-0.2,0.3-0.2,0.5v0.8H71.3z"/>
		<path class="st0" d="M71.4,76.6c0.3,0,0.6,0.1,0.8,0.2s0.4,0.3,0.6,0.5c0.1,0.2,0.2,0.4,0.2,0.7c0,0.4-0.2,0.7-0.5,0.9
			c-0.3,0.3-0.7,0.4-1.2,0.4c-0.5,0-0.9-0.1-1.2-0.4c-0.3-0.3-0.5-0.6-0.5-0.9c0-0.2,0.1-0.5,0.2-0.7s0.3-0.4,0.6-0.5
			S71.1,76.6,71.4,76.6z M71.4,76.8c-0.4,0-0.7,0.1-1,0.3C70.1,77.4,70,77.6,70,78c0,0.3,0.1,0.6,0.4,0.8s0.6,0.3,1,0.3
			c0.4,0,0.7-0.1,1-0.3c0.3-0.2,0.4-0.5,0.4-0.8c0-0.3-0.1-0.6-0.4-0.8C72,76.9,71.7,76.8,71.4,76.8z"/>
		<path class="st0" d="M71.4,72c0.3,0,0.6,0.1,0.8,0.2s0.4,0.3,0.6,0.5c0.1,0.2,0.2,0.4,0.2,0.7c0,0.4-0.2,0.7-0.5,0.9
			c-0.3,0.3-0.7,0.4-1.2,0.4c-0.5,0-0.9-0.1-1.2-0.4c-0.3-0.3-0.5-0.6-0.5-0.9c0-0.2,0.1-0.5,0.2-0.7c0.1-0.2,0.3-0.4,0.6-0.5
			S71.1,72,71.4,72z M71.4,72.2c-0.4,0-0.7,0.1-1,0.3C70.1,72.8,70,73,70,73.4c0,0.3,0.1,0.6,0.4,0.8s0.6,0.3,1,0.3
			c0.4,0,0.7-0.1,1-0.3c0.3-0.2,0.4-0.5,0.4-0.8c0-0.3-0.1-0.6-0.4-0.8S71.7,72.2,71.4,72.2z"/>
		<path class="st0" d="M72,68.6v0.3L70,69.7v0h2.6v-0.4c0-0.1,0-0.1,0-0.1s0,0,0.1,0c0,0,0.1,0,0.1,0c0,0,0,0.1,0,0.1v0.8
			c0,0.1,0,0.1,0,0.1c0,0,0,0-0.1,0c0,0-0.1,0-0.1,0s0-0.1,0-0.1V70H70v0.1c0,0.1,0,0.1,0,0.1s0,0-0.1,0s-0.1,0-0.1,0s0-0.1,0-0.1
			v-0.5l1.9-0.8l-1.9-0.8v-0.5c0-0.1,0-0.1,0-0.1c0,0,0,0,0.1,0s0.1,0,0.1,0c0,0,0,0.1,0,0.1v0.1h2.6v-0.2c0-0.1,0-0.1,0-0.1
			c0,0,0,0,0.1,0c0,0,0.1,0,0.1,0c0,0,0,0.1,0,0.1v0.8c0,0.1,0,0.1,0,0.1c0,0,0,0-0.1,0c0,0-0.1,0-0.1,0s0-0.1,0-0.1v-0.4H70v0
			L72,68.6z"/>
	</g>
	<g>
		<path class="st0" d="M40.5,11.7c-8.9,0-16.2,7.2-16.2,16.2s7.2,16.2,16.2,16.2c8.9,0,16.2-7.2,16.2-16.2S49.5,11.7,40.5,11.7z
			 M45.5,37.7h-9.9l3.1-8.9c-1.8-0.7-3.1-2.5-3.1-4.6c0-2.7,2.2-5,5-5c2.7,0,5,2.2,5,5c0,2.1-1.3,3.8-3.1,4.6L45.5,37.7z"/>
		<path class="st0" d="M40.5,10.4c13.7,0,26.1,5.5,35.1,14.5C68.1,13.5,55.2,6.1,40.5,6.1C25.9,6.1,13,13.5,5.4,24.9
			C14.4,15.9,26.8,10.4,40.5,10.4z"/>
		<path class="st0" d="M40.5,45.3c13.7,0,26.1-5.5,35.1-14.5c-7.5,11.3-20.4,18.8-35.1,18.8c-14.6,0-27.5-7.5-35.1-18.8
			C14.4,39.7,26.8,45.3,40.5,45.3z"/>
	</g>
</g>
</svg>
