<?xml version="1.0" encoding="utf-8"?>
<!-- Generator: Adobe Illustrator 20.0.0, SVG Export Plug-In . SVG Version: 6.00 Build 0)  -->
<svg version="1.1" id="Layer_1" xmlns="http://www.w3.org/2000/svg" xmlns:xlink="http://www.w3.org/1999/xlink" x="0px" y="0px"
	 viewBox="0 0 258.8 141.7" style="enable-background:new 0 0 258.8 141.7;" xml:space="preserve">
<style type="text/css">
	.st0{fill:#4D4D4D;}
	.st1{fill:#E9CC88;}
	.st2{fill:#F5F5F5;}
	.st3{fill:#C7B073;}
	.st4{fill:#B8B8B8;}
	.st5{fill:#DBC07F;}
	.st6{fill:#7D7571;}
	.st7{fill:#544A47;}
	.st8{fill:#5D524E;}
	.st9{fill:#E8E7E6;}
	.st10{fill:#4A423F;}
</style>
<g>
	<g>
		<polygon class="st0" points="31.1,133.8 23.5,133.8 21.7,124.2 32.9,124.2 		"/>
		<polygon class="st0" points="235.6,133.8 227.9,133.8 226.2,124.2 237.3,124.2 		"/>
		<rect x="8.2" y="14.6" class="st1" width="242.4" height="113.6"/>
		<rect x="19.8" y="26.2" class="st2" width="219.2" height="90.4"/>
		<polygon class="st3" points="231.5,8 27.3,8 8.2,14.6 250.6,14.6 		"/>
		<g>
			<path class="st4" d="M238.6,26.2h-1.4H21.6h-1.8v1.5v89H239V26.2H238.6z M21.6,115.4V27.6h215.6v87.8H21.6z"/>
		</g>
		<g>
			<path class="st5" d="M248.3,16.9l0.3-0.3C149.9,18.8,44.2,17,10,16.4l0.3,0.3C32.6,17.1,90.2,18,154.6,18
				C190.7,18,213,17.7,248.3,16.9z"/>
			<path class="st5" d="M246.2,19.1l0.2-0.2C150.1,20.9,49,19.2,12.2,18.6l0.2,0.2c23.6,0.4,79.7,1.2,142.2,1.2
				C189.9,20.1,211.5,19.8,246.2,19.1z"/>
			<path class="st5" d="M243.5,21.7l0.3-0.3c-93.7,1.9-190.1,0.4-229.1-0.2l0.3,0.3c25,0.4,79.3,1.2,139.5,1.2
				C189,22.7,209.6,22.4,243.5,21.7z"/>
			<path class="st5" d="M17.5,23.9l0.1,0.1c26,0.4,78.7,1.1,137,1.1c33.6,0,53.2-0.2,86.4-0.9l0.1-0.1
				C150.1,25.9,58.3,24.6,17.5,23.9z"/>
		</g>
		<g>
			<path class="st5" d="M10.3,126.3l-0.3,0.3c98.9-2.2,204.7-0.4,239,0.2l-0.3-0.3c-22.3-0.4-64.2-1.2-128.7-1.2
				C83.9,125.3,45.6,125.5,10.3,126.3z"/>
			<path class="st5" d="M12.4,124.2l-0.2,0.2c96.5-2.1,197.8-0.4,234.6,0.2l-0.2-0.2c-23.6-0.4-64-1.2-126.6-1.2
				C84.6,123.2,47.2,123.4,12.4,124.2z"/>
			<path class="st5" d="M15.1,121.5l-0.3,0.3c93.8-1.9,190.4-0.4,229.4,0.2l-0.3-0.3c-25-0.4-63.6-1.2-123.9-1.2
				C85.5,120.6,49.1,120.8,15.1,121.5z"/>
			<path class="st5" d="M241.5,119.3l-0.1-0.1c-26-0.4-63-1.1-121.4-1.1c-33.6,0-69.1,0.2-102.3,0.9l-0.1,0.1
				C108.7,117.3,200.6,118.7,241.5,119.3z"/>
		</g>
		<g>
			<g>
				<path class="st5" d="M10.5,126.3l-0.4,0c0.1-50.1,0.1-108.9,0.1-109.6h0.4C10.5,17.4,10.5,76.2,10.5,126.3L10.5,126.3z"/>
			</g>
			<g>
				<path class="st5" d="M12.3,124.4l-0.2,0c2-50.6,0.3-105,0.3-105.5l0.2,0C12.6,19.4,14.3,73.8,12.3,124.4L12.3,124.4z"/>
			</g>
			<g>
				<path class="st5" d="M15.2,121.5l-0.3,0c2.4-33.1,0-99.3,0-100l0.3,0C15.3,22.2,17.6,88.4,15.2,121.5L15.2,121.5z"/>
			</g>
			<g>
				<path class="st5" d="M17.6,119l-0.1,0c0.6-49.1,0-94.5,0-95l0.1,0C17.7,24.5,18.2,69.9,17.6,119L17.6,119z"/>
			</g>
		</g>
		<g>
			<g>
				<path class="st5" d="M248.6,126.3l0.4,0c-0.1-50.1-0.2-108.9-0.2-109.6h-0.4C248.4,17.4,248.6,76.2,248.6,126.3L248.6,126.3z"/>
			</g>
			<g>
				<path class="st5" d="M246.8,124.4l0.2,0c-2-50.6-0.3-105.1-0.3-105.7l-0.2,0.1C246.5,19.4,244.8,73.8,246.8,124.4L246.8,124.4z"
					/>
			</g>
			<g>
				<path class="st5" d="M243.9,121.5l0.3,0c-2.4-33.1,0-99.7,0-100.4l-0.3,0.4C243.8,22.2,241.5,88.4,243.9,121.5L243.9,121.5z"/>
			</g>
			<g>
				<path class="st5" d="M241.4,119l0.1,0c-0.6-49.1,0-94.5,0-95l-0.1,0C241.4,24.5,240.9,69.9,241.4,119L241.4,119z"/>
			</g>
		</g>
		<polygon class="st3" points="19.8,116.6 19.8,116.2 8.2,127.8 8.2,128.2 8.6,128.2 20.2,116.6 		"/>
		<polygon class="st3" points="8.2,15 19.8,26.6 19.8,26.2 20.2,26.2 8.6,14.6 8.2,14.6 		"/>
		<polygon class="st3" points="250.3,14.6 238.6,26.2 239,26.2 239,26.6 250.6,15 250.6,14.6 		"/>
		<polygon class="st3" points="239,116.2 239,116.6 238.6,116.6 250.3,128.2 250.6,128.2 250.6,127.8 		"/>
	</g>
	<g>
		<g>
			<path class="st6" d="M25.8,105.2c0,4.7,3.8,8.5,8.5,8.5h84.9c4.7,0,8.5-3.8,8.5-8.5V72.9h-102V105.2z"/>
		</g>
		<g>
			<path class="st7" d="M119.2,30.5H34.3c-4.7,0-8.5,3.8-8.5,8.5v32.6h102V39C127.8,34.3,123.9,30.5,119.2,30.5z"/>
		</g>
		<g>
			<path class="st8" d="M25.8,104c0,4.7,3.8,8.5,8.5,8.5h84.9c4.7,0,8.5-3.8,8.5-8.5V71.6h-102V104z"/>
		</g>
		<g>
			<path class="st6" d="M131.2,72.9v32.3c0,4.7,3.8,8.5,8.5,8.5l84.8,0c4.7,0,8.5-3.8,8.5-8.5V72.9L131.2,72.9z"/>
		</g>
		<g>
			<path class="st8" d="M131.2,71.6V104c0,4.7,3.8,8.5,8.5,8.5l84.8,0c4.7,0,8.5-3.8,8.5-8.5V71.6L131.2,71.6z"/>
		</g>
		<g>
			<path class="st7" d="M233.1,39c0-4.7-3.8-8.5-8.5-8.5h-84.8c-4.7,0-8.5,3.8-8.5,8.5v32.6l101.9,0V39z"/>
		</g>
	</g>
	<g>
		<g>
			<path class="st2" d="M65.5,94.9h-8.7V62.2c-3.2,3-6.9,5.2-11.2,6.6v-7.9c2.3-0.7,4.7-2.2,7.4-4.2c2.6-2.1,4.5-4.5,5.5-7.3h7V94.9
				z"/>
		</g>
		<g>
			<path class="st9" d="M65.5,71.6V49.4h-7c-1,2.8-2.8,5.2-5.5,7.3c-2.6,2.1-5.1,3.5-7.4,4.2v7.9c4.3-1.4,8.1-3.6,11.2-6.6v9.4H65.5
				z"/>
		</g>
		<g>
			<path class="st2" d="M107.9,86.8v8.1H77.5c0.3-3.1,1.3-5.9,3-8.7c1.7-2.7,4.9-6.4,9.8-10.9c3.9-3.6,6.3-6.1,7.2-7.4
				c1.2-1.8,1.8-3.6,1.8-5.4c0-1.9-0.5-3.4-1.6-4.4c-1-1-2.5-1.6-4.3-1.6c-1.8,0-3.3,0.5-4.3,1.6c-1.1,1.1-1.7,2.9-1.8,5.4l-8.7-0.9
				c0.5-4.8,2.1-8.2,4.9-10.3c2.7-2.1,6.1-3.1,10.2-3.1c4.5,0,8,1.2,10.5,3.6c2.6,2.4,3.8,5.4,3.8,9c0,2-0.4,4-1.1,5.8
				c-0.7,1.8-1.9,3.8-3.5,5.8c-1.1,1.4-3,3.3-5.7,5.8c-2.7,2.5-4.5,4.2-5.2,5c-0.7,0.8-1.3,1.6-1.8,2.4H107.9z"/>
		</g>
		<g>
			<path class="st2" d="M107.9,86.8v8.1H77.5c0.3-3.1,1.3-5.9,3-8.7c1.7-2.7,4.9-6.4,9.8-10.9c3.9-3.6,6.3-6.1,7.2-7.4
				c1.2-1.8,1.8-3.6,1.8-5.4c0-1.9-0.5-3.4-1.6-4.4c-1-1-2.5-1.6-4.3-1.6c-1.8,0-3.3,0.5-4.3,1.6c-1.1,1.1-1.7,2.9-1.8,5.4l-8.7-0.9
				c0.5-4.8,2.1-8.2,4.9-10.3c2.7-2.1,6.1-3.1,10.2-3.1c4.5,0,8,1.2,10.5,3.6c2.6,2.4,3.8,5.4,3.8,9c0,2-0.4,4-1.1,5.8
				c-0.7,1.8-1.9,3.8-3.5,5.8c-1.1,1.4-3,3.3-5.7,5.8c-2.7,2.5-4.5,4.2-5.2,5c-0.7,0.8-1.3,1.6-1.8,2.4H107.9z"/>
		</g>
		<g>
			<path class="st9" d="M107.9,62c0-3.6-1.3-6.6-3.8-9c-2.6-2.4-6.1-3.6-10.5-3.6c-4.1,0-7.5,1-10.2,3.1c-2.7,2.1-4.3,5.5-4.9,10.3
				l8.7,0.9c0.1-2.5,0.8-4.3,1.8-5.4c1.1-1.1,2.5-1.6,4.3-1.6c1.8,0,3.3,0.5,4.3,1.6c1,1,1.6,2.5,1.6,4.4c0,1.8-0.6,3.5-1.8,5.4
				c-0.5,0.8-1.6,2-3.3,3.7h10.7c0.9-1.3,1.5-2.6,2-3.8C107.5,66,107.9,64,107.9,62z"/>
		</g>
	</g>
	<g>
		<g>
			<path class="st2" d="M149.4,82.4l8.7-0.9c0.2,2,1,3.5,2.2,4.7c1.2,1.2,2.6,1.7,4.2,1.7c1.8,0,3.3-0.7,4.6-2.2
				c1.3-1.5,1.9-3.7,1.9-6.7c0-2.8-0.6-4.8-1.9-6.2c-1.2-1.4-2.9-2.1-4.9-2.1c-2.5,0-4.7,1.1-6.7,3.3l-7-1l4.4-23.6h23v8.1h-16.4
				l-1.3,7.7c1.9-0.9,3.9-1.4,5.9-1.4c3.9,0,7.1,1.4,9.8,4.2c2.7,2.8,4,6.4,4,10.9c0,3.7-1.1,7-3.2,10c-2.9,4-7,6-12.3,6
				c-4.2,0-7.6-1.1-10.3-3.4C151.5,89.3,150,86.2,149.4,82.4z"/>
		</g>
		<g>
			<path class="st9" d="M175.9,68c-2.7-2.8-5.9-4.2-9.8-4.2c-2,0-4,0.5-5.9,1.4l1.3-7.7h16.4v-8.1h-23l-4.2,22.2h9.7
				c1.2-0.6,2.4-0.9,3.7-0.9c1.3,0,2.5,0.3,3.5,0.9h10.7C177.8,70.3,177,69.1,175.9,68z"/>
		</g>
		<g>
			<path class="st2" d="M214,59.8l-8.4,1c-0.2-1.7-0.7-3-1.6-3.8c-0.9-0.8-2-1.3-3.4-1.3c-1.8,0-3.4,0.8-4.7,2.5
				c-1.3,1.7-2.1,5.1-2.4,10.3c2.2-2.6,4.9-3.8,8.1-3.8c3.6,0,6.7,1.4,9.3,4.1c2.6,2.8,3.9,6.3,3.9,10.7c0,4.6-1.4,8.4-4.1,11.2
				c-2.7,2.8-6.2,4.2-10.5,4.2c-4.6,0-8.3-1.8-11.3-5.3c-3-3.6-4.4-9.4-4.4-17.5c0-8.3,1.5-14.3,4.6-17.9c3.1-3.7,7.1-5.5,12-5.5
				c3.5,0,6.3,1,8.6,2.9C211.9,53.4,213.4,56.2,214,59.8z M194.3,78.8c0,2.8,0.6,5,1.9,6.5c1.3,1.5,2.8,2.3,4.4,2.3
				c1.6,0,3-0.6,4-1.9c1.1-1.3,1.6-3.3,1.6-6.2c0-2.9-0.6-5.1-1.7-6.5c-1.2-1.4-2.6-2.1-4.3-2.1c-1.7,0-3.1,0.7-4.2,2
				C194.9,74.4,194.3,76.3,194.3,78.8z"/>
		</g>
		<g>
			<path class="st9" d="M211,68.8c-2.6-2.8-5.7-4.1-9.3-4.1c-3.2,0-5.9,1.3-8.1,3.8c0.3-5.2,1.1-8.6,2.4-10.3
				c1.3-1.7,2.8-2.5,4.7-2.5c1.4,0,2.5,0.4,3.4,1.3c0.9,0.8,1.4,2.1,1.6,3.8l8.4-1c-0.6-3.7-2.1-6.4-4.3-8.4
				c-2.2-1.9-5.1-2.9-8.6-2.9c-4.9,0-8.9,1.8-12,5.5c-3,3.6-4.6,9.5-4.6,17.5h13.3c0.7-0.4,1.5-0.5,2.4-0.5c0.9,0,1.7,0.2,2.4,0.5
				H213C212.5,70.6,211.8,69.7,211,68.8z"/>
		</g>
	</g>
	<g>
		<g>
			<path class="st2" d="M32.4,44.4v-7.3h2.8c0.5,0,0.9,0,1.1,0.1c0.4,0.1,0.7,0.2,0.9,0.3c0.2,0.2,0.4,0.4,0.6,0.7
				c0.1,0.3,0.2,0.6,0.2,1c0,0.6-0.2,1.2-0.6,1.6c-0.4,0.4-1.1,0.6-2.2,0.6h-1.9v3H32.4z M33.4,40.6h1.9c0.6,0,1.1-0.1,1.3-0.3
				c0.3-0.2,0.4-0.6,0.4-1c0-0.3-0.1-0.6-0.2-0.8c-0.2-0.2-0.4-0.4-0.6-0.4c-0.2,0-0.5-0.1-0.9-0.1h-1.9V40.6z"/>
		</g>
		<g>
			<path class="st2" d="M39.2,44.4v-7.3h1.5l1.7,5.2c0.2,0.5,0.3,0.8,0.3,1.1c0.1-0.3,0.2-0.7,0.4-1.2l1.8-5.1h1.3v7.3h-0.9v-6.1
				l-2.1,6.1h-0.9l-2.1-6.3v6.3H39.2z"/>
		</g>
	</g>
	<g>
		<rect x="25.8" y="71.1" class="st10" width="102" height="0.9"/>
		<rect x="131.2" y="71.1" class="st10" width="101.9" height="0.9"/>
	</g>
	<g>
		<g>
			<path class="st2" d="M226.9,77.4c-1.2,0-2.1-1-2.1-2.1V68c0-1.2,1-2.1,2.1-2.1s2.1,1,2.1,2.1v7.2C229,76.4,228.1,77.4,226.9,77.4
				L226.9,77.4z"/>
		</g>
	</g>
	<g>
		<g>
			<path class="st2" d="M32,77.4c-1.2,0-2.1-1-2.1-2.1V68c0-1.2,1-2.1,2.1-2.1c1.2,0,2.1,1,2.1,2.1v7.2C34.1,76.4,33.1,77.4,32,77.4
				L32,77.4z"/>
		</g>
	</g>
</g>
</svg>
